  0
SECTION
  2
HEADER
  9
$ACADVER
  1
AC1006
  9
$EXTMIN
 10
0.000000
 20
0.000000
 30
0.000000
  9
$EXTMAX
 10
818.000000
 20
1158.000000
 30
0.000000
  0
ENDSEC
  0
SECTION
  2
ENTITIES
  0
POLYLINE
  8
0
 66
1
 70
1
  0
VERTEX
  8
0
 10
389.041126
 20
1089.266895
 42
0.078916
  0
VERTEX
  8
0
 10
378.675782
 20
1085.568338
 42
0.037781
  0
VERTEX
  8
0
 10
366.788270
 20
1077.851707
 42
0.037759
  0
VERTEX
  8
0
 10
356.139074
 20
1068.383190
 42
0.075018
  0
VERTEX
  8
0
 10
349.604651
 20
1059.206518
 42
0.056138
  0
VERTEX
  8
0
 10
345.626465
 20
1048.536243
 42
0.058987
  0
VERTEX
  8
0
 10
344.209411
 20
1037.426959
 42
0.044945
  0
VERTEX
  8
0
 10
345.299563
 20
1023.963671
 42
0.017404
  0
VERTEX
  8
0
 10
349.120618
 20
1005.625804
 42
0.000000
  0
VERTEX
  8
0
 10
353.264816
 20
988.708354
 42
0.000000
  0
VERTEX
  8
0
 10
351.157157
 20
987.104177
 42
0.016557
  0
VERTEX
  8
0
 10
346.682618
 20
983.458396
 42
0.006774
  0
VERTEX
  8
0
 10
340.842072
 20
978.227903
 42
0.006236
  0
VERTEX
  8
0
 10
335.298761
 20
972.997429
 42
0.027485
  0
VERTEX
  8
0
 10
332.247219
 20
969.702053
 42
0.025337
  0
VERTEX
  8
0
 10
331.082585
 20
968.142329
 42
0.032720
  0
VERTEX
  8
0
 10
330.186600
 20
966.596521
 42
0.034420
  0
VERTEX
  8
0
 10
329.634896
 20
965.258430
 42
0.173888
  0
VERTEX
  8
0
 10
329.652451
 20
964.463314
 42
0.222032
  0
VERTEX
  8
0
 10
331.226478
 20
962.944910
 42
0.007063
  0
VERTEX
  8
0
 10
339.877644
 20
960.113371
 42
0.010550
  0
VERTEX
  8
0
 10
351.613155
 20
956.724974
 42
0.004088
  0
VERTEX
  8
0
 10
368.000000
 20
952.509123
 42
-0.003109
  0
VERTEX
  8
0
 10
383.629311
 20
948.520784
 42
-0.008536
  0
VERTEX
  8
0
 10
394.591871
 20
945.449718
 42
-0.007582
  0
VERTEX
  8
0
 10
402.437925
 20
942.976366
 42
-0.112383
  0
VERTEX
  8
0
 10
404.889090
 20
941.492483
 42
-0.120471
  0
VERTEX
  8
0
 10
405.470963
 20
940.570166
 42
-0.137982
  0
VERTEX
  8
0
 10
405.521671
 20
939.531886
 42
-0.065364
  0
VERTEX
  8
0
 10
404.971095
 20
938.051109
 42
-0.010894
  0
VERTEX
  8
0
 10
403.490366
 20
935.393349
 42
-0.039040
  0
VERTEX
  8
0
 10
400.019060
 20
930.406858
 42
-0.038173
  0
VERTEX
  8
0
 10
395.790705
 20
925.980133
 42
-0.039764
  0
VERTEX
  8
0
 10
391.142712
 20
922.428202
 42
-0.053804
  0
VERTEX
  8
0
 10
386.421708
 20
920.056591
 42
-0.039464
  0
VERTEX
  8
0
 10
382.720999
 20
918.995894
 42
-0.008163
  0
VERTEX
  8
0
 10
376.055317
 20
917.755902
 42
-0.007434
  0
VERTEX
  8
0
 10
367.380099
 20
916.420540
 42
-0.003972
  0
VERTEX
  8
0
 10
356.622276
 20
915.014989
 42
0.014302
  0
VERTEX
  8
0
 10
313.504048
 20
908.472838
 42
0.021551
  0
VERTEX
  8
0
 10
276.435431
 20
900.094952
 42
0.024465
  0
VERTEX
  8
0
 10
244.262501
 20
889.636652
 42
0.031624
  0
VERTEX
  8
0
 10
216.000000
 20
876.796527
 42
0.030859
  0
VERTEX
  8
0
 10
199.403954
 20
866.590235
 42
0.079525
  0
VERTEX
  8
0
 10
189.347879
 20
856.804419
 42
0.074803
  0
VERTEX
  8
0
 10
182.504091
 20
844.003710
 42
0.025035
  0
VERTEX
  8
0
 10
176.388253
 20
823.627391
 42
-0.055077
  0
VERTEX
  8
0
 10
173.821801
 20
816.630764
 42
-0.026239
  0
VERTEX
  8
0
 10
169.100903
 20
808.271212
 42
-0.019431
  0
VERTEX
  8
0
 10
161.915065
 20
797.888616
 42
-0.007968
  0
VERTEX
  8
0
 10
151.404304
 20
784.351269
 42
0.019793
  0
VERTEX
  8
0
 10
131.439446
 20
757.342701
 42
0.056738
  0
VERTEX
  8
0
 10
120.606332
 20
736.716951
 42
0.063155
  0
VERTEX
  8
0
 10
115.313346
 20
715.467861
 42
0.029211
  0
VERTEX
  8
0
 10
113.615358
 20
687.000000
 42
0.010456
  0
VERTEX
  8
0
 10
113.931262
 20
670.999598
 42
0.023925
  0
VERTEX
  8
0
 10
114.997202
 20
658.985400
 42
0.028585
  0
VERTEX
  8
0
 10
117.047145
 20
648.523151
 42
0.023160
  0
VERTEX
  8
0
 10
120.394272
 20
637.584822
 42
0.030555
  0
VERTEX
  8
0
 10
125.822096
 20
624.901117
 42
0.033737
  0
VERTEX
  8
0
 10
132.602513
 20
613.405226
 42
0.025689
  0
VERTEX
  8
0
 10
142.338390
 20
600.643627
 42
0.009259
  0
VERTEX
  8
0
 10
157.422910
 20
583.500000
 42
-0.006743
  0
VERTEX
  8
0
 10
168.011807
 20
571.587117
 42
-0.052729
  0
VERTEX
  8
0
 10
172.242492
 20
565.505230
 42
-0.118690
  0
VERTEX
  8
0
 10
173.512754
 20
560.845644
 42
-0.099463
  0
VERTEX
  8
0
 10
172.652020
 20
555.782912
 42
-0.055400
  0
VERTEX
  8
0
 10
171.340637
 20
553.247694
 42
-0.005761
  0
VERTEX
  8
0
 10
167.550148
 20
547.702102
 42
-0.007100
  0
VERTEX
  8
0
 10
162.850553
 20
541.192392
 42
-0.005626
  0
VERTEX
  8
0
 10
157.593711
 20
534.288072
 42
0.007547
  0
VERTEX
  8
0
 10
147.595936
 20
521.051839
 42
0.016063
  0
VERTEX
  8
0
 10
140.355679
 20
510.461756
 42
0.018114
  0
VERTEX
  8
0
 10
134.369363
 20
500.276171
 42
0.012851
  0
VERTEX
  8
0
 10
128.373401
 20
488.455362
 42
0.018623
  0
VERTEX
  8
0
 10
117.918743
 20
464.167778
 42
0.020929
  0
VERTEX
  8
0
 10
109.740820
 20
440.087328
 42
0.019484
  0
VERTEX
  8
0
 10
103.167289
 20
413.970315
 42
0.012780
  0
VERTEX
  8
0
 10
97.549572
 20
383.454480
 42
-0.001124
  0
VERTEX
  8
0
 10
96.216794
 20
375.129338
 42
-0.001829
  0
VERTEX
  8
0
 10
95.043475
 20
368.067654
 42
-0.000229
  0
VERTEX
  8
0
 10
93.973250
 20
361.786427
 42
-0.155314
  0
VERTEX
  8
0
 10
93.816347
 20
361.483113
 42
-0.088219
  0
VERTEX
  8
0
 10
93.532421
 20
361.284985
 42
-0.000355
  0
VERTEX
  8
0
 10
90.003018
 20
359.655350
 42
-0.001776
  0
VERTEX
  8
0
 10
85.986645
 20
357.821586
 42
-0.001116
  0
VERTEX
  8
0
 10
81.279034
 20
355.705034
 42
0.032084
  0
VERTEX
  8
0
 10
60.503992
 20
344.771866
 42
0.071280
  0
VERTEX
  8
0
 10
46.751646
 20
333.400669
 42
0.084661
  0
VERTEX
  8
0
 10
38.180143
 20
319.988234
 42
0.062493
  0
VERTEX
  8
0
 10
33.388569
 20
303.000000
 42
0.025506
  0
VERTEX
  8
0
 10
32.430914
 20
293.366806
 42
0.019240
  0
VERTEX
  8
0
 10
32.328677
 20
282.728171
 42
0.019604
  0
VERTEX
  8
0
 10
33.019624
 20
272.593129
 42
0.037711
  0
VERTEX
  8
0
 10
34.497539
 20
264.592201
 42
0.056583
  0
VERTEX
  8
0
 10
38.469867
 20
254.383719
 42
0.037630
  0
VERTEX
  8
0
 10
45.141394
 20
243.727391
 42
0.035482
  0
VERTEX
  8
0
 10
53.870482
 20
233.479246
 42
0.034635
  0
VERTEX
  8
0
 10
64.027631
 20
224.478738
 42
0.041685
  0
VERTEX
  8
0
 10
70.562048
 20
220.267012
 42
0.149604
  0
VERTEX
  8
0
 10
75.379394
 20
219.329530
 42
0.115716
  0
VERTEX
  8
0
 10
80.613498
 20
221.152861
 42
0.020355
  0
VERTEX
  8
0
 10
89.232845
 20
227.130003
 42
0.005479
  0
VERTEX
  8
0
 10
97.761785
 20
233.721820
 42
0.014587
  0
VERTEX
  8
0
 10
103.655447
 20
238.666988
 42
0.019154
  0
VERTEX
  8
0
 10
107.648306
 20
242.504693
 42
0.072541
  0
VERTEX
  8
0
 10
109.661480
 20
245.312268
 42
0.081680
  0
VERTEX
  8
0
 10
110.708445
 20
248.533477
 42
0.035223
  0
VERTEX
  8
0
 10
111.074081
 20
253.046675
 42
0.022663
  0
VERTEX
  8
0
 10
110.847654
 20
259.532612
 42
0.006557
  0
VERTEX
  8
0
 10
109.913686
 20
269.510968
 42
-0.010432
  0
VERTEX
  8
0
 10
109.180871
 20
278.053211
 42
-0.056555
  0
VERTEX
  8
0
 10
109.404967
 20
282.691630
 42
-0.119421
  0
VERTEX
  8
0
 10
110.558804
 20
285.428475
 42
-0.142687
  0
VERTEX
  8
0
 10
112.777929
 20
287.117697
 42
-0.055252
  0
VERTEX
  8
0
 10
119.950138
 20
289.000979
 42
-0.050001
  0
VERTEX
  8
0
 10
127.610674
 20
289.357240
 42
-0.053797
  0
VERTEX
  8
0
 10
134.377812
 20
288.258661
 42
-0.129967
  0
VERTEX
  8
0
 10
138.724945
 20
285.729600
 42
-0.131356
  0
VERTEX
  8
0
 10
140.618242
 20
282.454726
 42
-0.068258
  0
VERTEX
  8
0
 10
141.218862
 20
277.738136
 42
-0.045406
  0
VERTEX
  8
0
 10
140.561561
 20
271.212969
 42
-0.016688
  0
VERTEX
  8
0
 10
138.497771
 20
262.175830
 42
0.008999
  0
VERTEX
  8
0
 10
137.344802
 20
257.462218
 42
0.018803
  0
VERTEX
  8
0
 10
136.652612
 20
253.748972
 42
0.023659
  0
VERTEX
  8
0
 10
136.365383
 20
250.868424
 42
0.067171
  0
VERTEX
  8
0
 10
136.530469
 20
248.861278
 42
0.106934
  0
VERTEX
  8
0
 10
138.183144
 20
245.250671
 42
0.028409
  0
VERTEX
  8
0
 10
142.282785
 20
240.374727
 42
0.020960
  0
VERTEX
  8
0
 10
148.709169
 20
234.106277
 42
0.007602
  0
VERTEX
  8
0
 10
158.322768
 20
225.744992
 42
0.000000
  0
VERTEX
  8
0
 10
170.145537
 20
215.773943
 42
0.000000
  0
VERTEX
  8
0
 10
177.217052
 20
220.636971
 42
0.046713
  0
VERTEX
  8
0
 10
190.751941
 20
231.939865
 42
0.041849
  0
VERTEX
  8
0
 10
202.511130
 20
245.957317
 42
0.043122
  0
VERTEX
  8
0
 10
211.414315
 20
261.216476
 42
0.059975
  0
VERTEX
  8
0
 10
216.418524
 20
276.207842
 42
0.013902
  0
VERTEX
  8
0
 10
217.549180
 20
282.618880
 42
0.035733
  0
VERTEX
  8
0
 10
217.903180
 20
287.309519
 42
0.035158
  0
VERTEX
  8
0
 10
217.588207
 20
292.046369
 42
0.013091
  0
VERTEX
  8
0
 10
216.505780
 20
298.633647
 42
0.045423
  0
VERTEX
  8
0
 10
213.543068
 20
308.943353
 42
0.036482
  0
VERTEX
  8
0
 10
208.588013
 20
319.372424
 42
0.031619
  0
VERTEX
  8
0
 10
201.424118
 20
330.314183
 42
0.019826
  0
VERTEX
  8
0
 10
191.770745
 20
342.189440
 42
-0.011839
  0
VERTEX
  8
0
 10
186.315571
 20
348.685462
 42
-0.076489
  0
VERTEX
  8
0
 10
184.186847
 20
352.384729
 42
-0.127201
  0
VERTEX
  8
0
 10
183.800919
 20
355.683951
 42
-0.056692
  0
VERTEX
  8
0
 10
184.890747
 20
359.954589
 42
-0.035628
  0
VERTEX
  8
0
 10
188.027341
 20
366.716064
 42
-0.011601
  0
VERTEX
  8
0
 10
193.583230
 20
376.225189
 42
-0.011580
  0
VERTEX
  8
0
 10
199.569021
 20
385.459220
 42
-0.036095
  0
VERTEX
  8
0
 10
204.170787
 20
391.262330
 42
0.000000
  0
VERTEX
  8
0
 10
208.978336
 20
396.500000
 42
0.000000
  0
VERTEX
  8
0
 10
211.496934
 20
393.500000
 42
-0.038595
  0
VERTEX
  8
0
 10
212.778965
 20
391.708884
 42
-0.007623
  0
VERTEX
  8
0
 10
214.772781
 20
388.296875
 42
-0.008036
  0
VERTEX
  8
0
 10
216.976059
 20
384.239875
 42
-0.007390
  0
VERTEX
  8
0
 10
219.111999
 20
380.000000
 42
0.007579
  0
VERTEX
  8
0
 10
223.712006
 20
370.877456
 42
0.013269
  0
VERTEX
  8
0
 10
227.831751
 20
363.490385
 42
0.013243
  0
VERTEX
  8
0
 10
232.343418
 20
356.322134
 42
0.007511
  0
VERTEX
  8
0
 10
238.161467
 20
347.877131
 42
-0.021711
  0
VERTEX
  8
0
 10
244.164078
 20
338.611824
 42
-0.021899
  0
VERTEX
  8
0
 10
249.321989
 20
328.887065
 42
-0.019947
  0
VERTEX
  8
0
 10
253.996887
 20
317.951526
 42
-0.013009
  0
VERTEX
  8
0
 10
258.550323
 20
305.000000
 42
0.019320
  0
VERTEX
  8
0
 10
267.329746
 20
281.000539
 42
0.028579
  0
VERTEX
  8
0
 10
277.004559
 20
260.790492
 42
0.032939
  0
VERTEX
  8
0
 10
287.504977
 20
244.389258
 42
0.051135
  0
VERTEX
  8
0
 10
298.793500
 20
231.964192
 42
0.048292
  0
VERTEX
  8
0
 10
316.384342
 20
219.014143
 42
0.051660
  0
VERTEX
  8
0
 10
335.750996
 20
210.017982
 42
0.045013
  0
VERTEX
  8
0
 10
358.759500
 20
204.346711
 42
0.025081
  0
VERTEX
  8
0
 10
387.500000
 20
201.417997
 42
0.018485
  0
VERTEX
  8
0
 10
402.096657
 20
201.207310
 42
0.012109
  0
VERTEX
  8
0
 10
418.904549
 20
201.993658
 42
0.011991
  0
VERTEX
  8
0
 10
434.752935
 20
203.502971
 42
0.032387
  0
VERTEX
  8
0
 10
445.861867
 20
205.566722
 42
0.035109
  0
VERTEX
  8
0
 10
456.153264
 20
208.961416
 42
0.015723
  0
VERTEX
  8
0
 10
469.170799
 20
214.778619
 42
0.015769
  0
VERTEX
  8
0
 10
481.935064
 20
221.476340
 42
0.031344
  0
VERTEX
  8
0
 10
491.500000
 20
227.707972
 42
0.041558
  0
VERTEX
  8
0
 10
505.702854
 20
240.244767
 42
0.049342
  0
VERTEX
  8
0
 10
516.750910
 20
254.306419
 42
0.040817
  0
VERTEX
  8
0
 10
526.278766
 20
272.353129
 42
0.018098
  0
VERTEX
  8
0
 10
535.973929
 20
297.500000
 42
-0.011082
  0
VERTEX
  8
0
 10
541.429151
 20
312.263254
 42
-0.013363
  0
VERTEX
  8
0
 10
547.225495
 20
325.865029
 42
-0.014626
  0
VERTEX
  8
0
 10
553.073973
 20
337.704668
 42
-0.025814
  0
VERTEX
  8
0
 10
558.675204
 20
347.055689
 42
0.008622
  0
VERTEX
  8
0
 10
563.603385
 20
354.676147
 42
0.006297
  0
VERTEX
  8
0
 10
568.823050
 20
363.301170
 42
0.006363
  0
VERTEX
  8
0
 10
573.719130
 20
371.874227
 42
0.010243
  0
VERTEX
  8
0
 10
577.646175
 20
379.313737
 42
-0.008386
  0
VERTEX
  8
0
 10
579.338492
 20
382.548746
 42
-0.004977
  0
VERTEX
  8
0
 10
581.458094
 20
386.349651
 42
-0.004980
  0
VERTEX
  8
0
 10
583.648220
 20
390.099475
 42
-0.008550
  0
VERTEX
  8
0
 10
585.557597
 20
393.174438
 42
-0.009268
  0
VERTEX
  8
0
 10
587.934220
 20
396.713935
 42
-0.049780
  0
VERTEX
  8
0
 10
589.444555
 20
398.473502
 42
-0.105103
  0
VERTEX
  8
0
 10
590.688516
 20
399.240565
 42
-0.150854
  0
VERTEX
  8
0
 10
591.973373
 20
399.296712
 42
-0.155247
  0
VERTEX
  8
0
 10
596.590278
 20
396.377565
 42
-0.011681
  0
VERTEX
  8
0
 10
605.979636
 20
384.661233
 42
-0.016614
  0
VERTEX
  8
0
 10
614.739937
 20
372.364440
 42
-0.055722
  0
VERTEX
  8
0
 10
619.252048
 20
363.578783
 42
-0.070568
  0
VERTEX
  8
0
 10
621.016693
 20
355.768905
 42
-0.081961
  0
VERTEX
  8
0
 10
620.391615
 20
348.185286
 42
-0.089092
  0
VERTEX
  8
0
 10
617.470794
 20
341.705933
 42
-0.104376
  0
VERTEX
  8
0
 10
612.599781
 20
337.061668
 42
0.054384
  0
VERTEX
  8
0
 10
607.937968
 20
333.426881
 42
0.021256
  0
VERTEX
  8
0
 10
602.322419
 20
327.487647
 42
0.021456
  0
VERTEX
  8
0
 10
597.092684
 20
320.913361
 42
0.040662
  0
VERTEX
  8
0
 10
593.570571
 20
315.140136
 42
0.021000
  0
VERTEX
  8
0
 10
590.098329
 20
307.458343
 42
0.041061
  0
VERTEX
  8
0
 10
588.111651
 20
301.046268
 42
0.042419
  0
VERTEX
  8
0
 10
587.236496
 20
294.534279
 42
0.024031
  0
VERTEX
  8
0
 10
587.230520
 20
286.570627
 42
0.066479
  0
VERTEX
  8
0
 10
590.340330
 20
269.487228
 42
0.055112
  0
VERTEX
  8
0
 10
597.933518
 20
252.617353
 42
0.049000
  0
VERTEX
  8
0
 10
610.017084
 20
236.078291
 42
0.034512
  0
VERTEX
  8
0
 10
626.517666
 20
219.985001
 42
0.000000
  0
VERTEX
  8
0
 10
635.057138
 20
212.735106
 42
0.000000
  0
VERTEX
  8
0
 10
640.278569
 20
217.069307
 42
0.003042
  0
VERTEX
  8
0
 10
649.897520
 20
225.153143
 42
0.006476
  0
VERTEX
  8
0
 10
657.216494
 20
231.545674
 42
0.006908
  0
VERTEX
  8
0
 10
662.585104
 20
236.494177
 42
0.043938
  0
VERTEX
  8
0
 10
665.040610
 20
239.268798
 42
0.089538
  0
VERTEX
  8
0
 10
666.912600
 20
243.065878
 42
0.059446
  0
VERTEX
  8
0
 10
667.691635
 20
247.872255
 42
0.039452
  0
VERTEX
  8
0
 10
667.448824
 20
254.444325
 42
0.012930
  0
VERTEX
  8
0
 10
666.080084
 20
264.042298
 42
-0.024902
  0
VERTEX
  8
0
 10
664.608285
 20
276.487150
 42
-0.188679
  0
VERTEX
  8
0
 10
666.350929
 20
282.021561
 42
-0.197318
  0
VERTEX
  8
0
 10
671.335568
 20
284.765077
 42
-0.027548
  0
VERTEX
  8
0
 10
683.335374
 20
285.467051
 42
-0.005065
  0
VERTEX
  8
0
 10
689.588404
 20
285.424658
 42
-0.051468
  0
VERTEX
  8
0
 10
692.163707
 20
285.114770
 42
-0.107352
  0
VERTEX
  8
0
 10
693.849936
 20
284.328153
 42
-0.052501
  0
VERTEX
  8
0
 10
695.585374
 20
282.694236
 42
-0.090344
  0
VERTEX
  8
0
 10
697.289396
 20
279.788689
 42
-0.090130
  0
VERTEX
  8
0
 10
697.861185
 20
276.466430
 42
-0.047660
  0
VERTEX
  8
0
 10
697.350792
 20
271.604082
 42
-0.008717
  0
VERTEX
  8
0
 10
695.399287
 20
262.763876
 42
0.015625
  0
VERTEX
  8
0
 10
693.577853
 20
253.935290
 42
0.081199
  0
VERTEX
  8
0
 10
693.527441
 20
248.976927
 42
0.115802
  0
VERTEX
  8
0
 10
695.074363
 20
245.131350
 42
0.047400
  0
VERTEX
  8
0
 10
698.756704
 20
240.827753
 42
0.016895
  0
VERTEX
  8
0
 10
705.889737
 20
234.386002
 42
0.011762
  0
VERTEX
  8
0
 10
714.346784
 20
227.586080
 42
0.010024
  0
VERTEX
  8
0
 10
722.348036
 20
221.707540
 42
0.062276
  0
VERTEX
  8
0
 10
726.834604
 20
219.319063
 42
0.000000
  0
VERTEX
  8
0
 10
731.277907
 20
217.622150
 42
0.000000
  0
VERTEX
  8
0
 10
737.829892
 20
221.019193
 42
0.028970
  0
VERTEX
  8
0
 10
741.184683
 20
223.013059
 42
0.017206
  0
VERTEX
  8
0
 10
744.947604
 20
225.748460
 42
0.015549
  0
VERTEX
  8
0
 10
748.969561
 20
229.095604
 42
0.012237
  0
VERTEX
  8
0
 10
753.118610
 20
232.958118
 42
0.010459
  0
VERTEX
  8
0
 10
757.855993
 20
237.787733
 42
0.027619
  0
VERTEX
  8
0
 10
760.973704
 20
241.492090
 42
0.031613
  0
VERTEX
  8
0
 10
763.419711
 20
245.215839
 42
0.017894
  0
VERTEX
  8
0
 10
765.923778
 20
250.000000
 42
0.038457
  0
VERTEX
  8
0
 10
769.415070
 20
259.013731
 42
0.034512
  0
VERTEX
  8
0
 10
771.638223
 20
268.787182
 42
0.030344
  0
VERTEX
  8
0
 10
772.686169
 20
279.903032
 42
0.018890
  0
VERTEX
  8
0
 10
772.627939
 20
293.000000
 42
0.018438
  0
VERTEX
  8
0
 10
771.524720
 20
306.919230
 42
0.056846
  0
VERTEX
  8
0
 10
769.379795
 20
316.099200
 42
0.070637
  0
VERTEX
  8
0
 10
765.524600
 20
323.430006
 42
0.041093
  0
VERTEX
  8
0
 10
759.053097
 20
331.000000
 42
0.025225
  0
VERTEX
  8
0
 10
754.110839
 20
335.430853
 42
0.023125
  0
VERTEX
  8
0
 10
748.606412
 20
339.479818
 42
0.012420
  0
VERTEX
  8
0
 10
740.302756
 20
344.722060
 42
0.002056
  0
VERTEX
  8
0
 10
724.016009
 20
354.356348
 42
-0.017747
  0
VERTEX
  8
0
 10
715.544272
 20
359.733485
 42
-0.091376
  0
VERTEX
  8
0
 10
711.622027
 20
363.639231
 42
-0.105746
  0
VERTEX
  8
0
 10
709.633670
 20
368.414518
 42
-0.027706
  0
VERTEX
  8
0
 10
708.565144
 20
376.687802
 42
0.034458
  0
VERTEX
  8
0
 10
705.659389
 20
397.022735
 42
0.013290
  0
VERTEX
  8
0
 10
698.952847
 20
424.739675
 42
0.013429
  0
VERTEX
  8
0
 10
690.435176
 20
453.195942
 42
0.022594
  0
VERTEX
  8
0
 10
681.586951
 20
476.500000
 42
0.019799
  0
VERTEX
  8
0
 10
673.736426
 20
492.850042
 42
0.015208
  0
VERTEX
  8
0
 10
663.933494
 20
510.064881
 42
0.014901
  0
VERTEX
  8
0
 10
652.836738
 20
527.081309
 42
0.016438
  0
VERTEX
  8
0
 10
641.087286
 20
542.844409
 42
-0.007844
  0
VERTEX
  8
0
 10
634.330574
 20
551.591412
 42
-0.015329
  0
VERTEX
  8
0
 10
629.274838
 20
558.803863
 42
-0.018527
  0
VERTEX
  8
0
 10
625.751739
 20
564.632625
 42
-0.059375
  0
VERTEX
  8
0
 10
624.037243
 20
568.827286
 42
-0.050405
  0
VERTEX
  8
0
 10
623.565998
 20
571.594515
 42
-0.161963
  0
VERTEX
  8
0
 10
624.028029
 20
573.380228
 42
-0.156953
  0
VERTEX
  8
0
 10
625.480604
 20
574.567193
 42
-0.046521
  0
VERTEX
  8
0
 10
628.272426
 20
575.372318
 42
0.105406
  0
VERTEX
  8
0
 10
630.464274
 20
576.293418
 42
0.026163
  0
VERTEX
  8
0
 10
633.557014
 20
578.694611
 42
0.017544
  0
VERTEX
  8
0
 10
637.845786
 20
582.670672
 42
0.004791
  0
VERTEX
  8
0
 10
644.328545
 20
589.242833
 42
0.007357
  0
VERTEX
  8
0
 10
654.487437
 20
600.055042
 42
0.006646
  0
VERTEX
  8
0
 10
664.678998
 20
611.529632
 42
0.006547
  0
VERTEX
  8
0
 10
673.485992
 20
621.988593
 42
0.023407
  0
VERTEX
  8
0
 10
678.705880
 20
629.000000
 42
0.034797
  0
VERTEX
  8
0
 10
685.144691
 20
640.152525
 42
0.018523
  0
VERTEX
  8
0
 10
691.602476
 20
654.731212
 42
0.018119
  0
VERTEX
  8
0
 10
697.243984
 20
670.493379
 42
0.023181
  0
VERTEX
  8
0
 10
701.224005
 20
685.387516
 42
0.016062
  0
VERTEX
  8
0
 10
702.391828
 20
691.710221
 42
0.020488
  0
VERTEX
  8
0
 10
703.039851
 20
697.601662
 42
0.013808
  0
VERTEX
  8
0
 10
703.346982
 20
705.094057
 42
0.003339
  0
VERTEX
  8
0
 10
703.429832
 20
717.500000
 42
0.003337
  0
VERTEX
  8
0
 10
703.346941
 20
729.918520
 42
0.013846
  0
VERTEX
  8
0
 10
703.039368
 20
737.408798
 42
0.020535
  0
VERTEX
  8
0
 10
702.389521
 20
743.303727
 42
0.015966
  0
VERTEX
  8
0
 10
701.216815
 20
749.647763
 42
0.039496
  0
VERTEX
  8
0
 10
693.281769
 20
775.886935
 42
0.041400
  0
VERTEX
  8
0
 10
681.414487
 20
800.120866
 42
0.041898
  0
VERTEX
  8
0
 10
665.869590
 20
821.809337
 42
0.042549
  0
VERTEX
  8
0
 10
647.000000
 20
840.481246
 42
0.017354
  0
VERTEX
  8
0
 10
638.644989
 20
846.970703
 42
0.016208
  0
VERTEX
  8
0
 10
629.671219
 20
853.021640
 42
0.014655
  0
VERTEX
  8
0
 10
619.498663
 20
859.003011
 42
0.009713
  0
VERTEX
  8
0
 10
607.500000
 20
865.292555
 42
0.017453
  0
VERTEX
  8
0
 10
577.304878
 20
879.085204
 42
0.017460
  0
VERTEX
  8
0
 10
546.225305
 20
890.736158
 42
0.016108
  0
VERTEX
  8
0
 10
512.185417
 20
900.950877
 42
0.011060
  0
VERTEX
  8
0
 10
473.000000
 20
910.423982
 42
-0.001159
  0
VERTEX
  8
0
 10
457.700177
 20
913.803556
 42
-0.001571
  0
VERTEX
  8
0
 10
443.899026
 20
916.931213
 42
-0.000747
  0
VERTEX
  8
0
 10
432.010727
 20
919.683385
 42
-0.027321
  0
VERTEX
  8
0
 10
429.326115
 20
920.465883
 42
-0.343199
  0
VERTEX
  8
0
 10
428.668393
 20
921.488991
 42
-0.027831
  0
VERTEX
  8
0
 10
429.162535
 20
924.860958
 42
-0.017952
  0
VERTEX
  8
0
 10
430.509599
 20
930.436589
 42
-0.003261
  0
VERTEX
  8
0
 10
433.444888
 20
940.664485
 42
0.005161
  0
VERTEX
  8
0
 10
435.056806
 20
946.362707
 42
0.044519
  0
VERTEX
  8
0
 10
435.519983
 20
948.961478
 42
0.089227
  0
VERTEX
  8
0
 10
435.349037
 20
950.843432
 42
0.052218
  0
VERTEX
  8
0
 10
434.522006
 20
952.957445
 42
0.045515
  0
VERTEX
  8
0
 10
433.710828
 20
954.227976
 42
0.034802
  0
VERTEX
  8
0
 10
432.612256
 20
955.458613
 42
0.035699
  0
VERTEX
  8
0
 10
431.410235
 20
956.473311
 42
0.066700
  0
VERTEX
  8
0
 10
430.292530
 20
957.078880
 42
0.042969
  0
VERTEX
  8
0
 10
428.486946
 20
957.593076
 42
0.002492
  0
VERTEX
  8
0
 10
422.840220
 20
958.658978
 42
0.003771
  0
VERTEX
  8
0
 10
416.093262
 20
959.845250
 42
0.002763
  0
VERTEX
  8
0
 10
408.590426
 20
961.063569
 42
-0.006465
  0
VERTEX
  8
0
 10
388.127776
 20
964.541991
 42
-0.013365
  0
VERTEX
  8
0
 10
372.258702
 20
967.891817
 42
-0.008051
  0
VERTEX
  8
0
 10
360.043031
 20
971.022263
 42
-0.338014
  0
VERTEX
  8
0
 10
358.500000
 20
973.043975
 42
-0.395685
  0
VERTEX
  8
0
 10
359.486639
 20
974.095525
 42
-0.011065
  0
VERTEX
  8
0
 10
366.267856
 20
974.377406
 42
-0.009220
  0
VERTEX
  8
0
 10
377.737723
 20
974.388585
 42
-0.001165
  0
VERTEX
  8
0
 10
402.500000
 20
973.898333
 42
0.000000
  0
VERTEX
  8
0
 10
420.500000
 20
973.500000
 42
0.000000
  0
VERTEX
  8
0
 10
428.000000
 20
977.479270
 42
0.042068
  0
VERTEX
  8
0
 10
435.715251
 20
982.445088
 42
0.036535
  0
VERTEX
  8
0
 10
442.889702
 20
988.852892
 42
0.035922
  0
VERTEX
  8
0
 10
449.173742
 20
996.360201
 42
0.037233
  0
VERTEX
  8
0
 10
454.235616
 20
1004.603600
 42
0.019531
  0
VERTEX
  8
0
 10
457.481067
 20
1011.547766
 42
0.023963
  0
VERTEX
  8
0
 10
459.937231
 20
1018.271751
 42
0.026485
  0
VERTEX
  8
0
 10
461.497455
 20
1024.398684
 42
0.049138
  0
VERTEX
  8
0
 10
462.000000
 20
1029.500000
 42
0.047017
  0
VERTEX
  8
0
 10
461.546684
 20
1034.310085
 42
0.023316
  0
VERTEX
  8
0
 10
460.120951
 20
1040.276694
 42
0.021871
  0
VERTEX
  8
0
 10
457.953809
 20
1046.710268
 42
0.021187
  0
VERTEX
  8
0
 10
455.212521
 20
1053.000000
 42
0.052028
  0
VERTEX
  8
0
 10
450.266373
 20
1060.936035
 42
0.029197
  0
VERTEX
  8
0
 10
442.768638
 20
1069.490183
 42
0.029156
  0
VERTEX
  8
0
 10
434.286490
 20
1077.149128
 42
0.049946
  0
VERTEX
  8
0
 10
426.300482
 20
1082.339587
 42
0.037395
  0
VERTEX
  8
0
 10
417.036226
 20
1086.275794
 42
0.035813
  0
VERTEX
  8
0
 10
407.154971
 20
1088.856000
 42
0.037440
  0
VERTEX
  8
0
 10
397.527981
 20
1089.909295
 42
0.054896
  0
SEQEND
  0
POLYLINE
  8
0
 66
1
 70
1
  0
VERTEX
  8
0
 10
412.224674
 20
1086.449152
 42
-0.086377
  0
VERTEX
  8
0
 10
430.190919
 20
1078.612337
 42
-0.071973
  0
VERTEX
  8
0
 10
445.770964
 20
1064.743892
 42
-0.073774
  0
VERTEX
  8
0
 10
456.454941
 20
1047.414239
 42
-0.100735
  0
VERTEX
  8
0
 10
460.168480
 20
1029.500000
 42
-0.070611
  0
VERTEX
  8
0
 10
458.722277
 20
1019.039180
 42
-0.043726
  0
VERTEX
  8
0
 10
454.277516
 20
1007.433960
 42
-0.042436
  0
VERTEX
  8
0
 10
447.641782
 20
996.313026
 42
-0.051929
  0
VERTEX
  8
0
 10
439.603562
 20
987.268645
 42
-0.035488
  0
VERTEX
  8
0
 10
434.037312
 20
982.863114
 42
-0.027795
  0
VERTEX
  8
0
 10
427.440929
 20
978.882116
 42
-0.028510
  0
VERTEX
  8
0
 10
420.872725
 20
975.866471
 42
-0.060975
  0
VERTEX
  8
0
 10
415.476486
 20
974.479303
 42
-0.036774
  0
VERTEX
  8
0
 10
412.412749
 20
974.306638
 42
-0.004429
  0
VERTEX
  8
0
 10
405.646218
 20
974.483119
 42
-0.005250
  0
VERTEX
  8
0
 10
397.596814
 20
974.849085
 42
-0.004297
  0
VERTEX
  8
0
 10
389.000000
 20
975.404599
 42
0.005787
  0
VERTEX
  8
0
 10
372.990128
 20
976.391244
 42
0.029462
  0
VERTEX
  8
0
 10
364.067231
 20
976.311539
 42
0.058597
  0
VERTEX
  8
0
 10
358.983754
 20
975.360743
 42
0.289502
  0
VERTEX
  8
0
 10
357.180660
 20
973.242658
 42
0.072920
  0
VERTEX
  8
0
 10
357.185091
 20
972.117771
 42
0.124825
  0
VERTEX
  8
0
 10
357.546662
 20
971.257515
 42
0.102115
  0
VERTEX
  8
0
 10
358.338362
 20
970.561714
 42
0.038334
  0
VERTEX
  8
0
 10
359.680660
 20
969.928372
 42
0.030226
  0
VERTEX
  8
0
 10
365.332226
 20
968.156588
 42
0.006743
  0
VERTEX
  8
0
 10
375.184952
 20
965.850884
 42
0.007032
  0
VERTEX
  8
0
 10
386.566514
 20
963.516092
 42
0.007062
  0
VERTEX
  8
0
 10
397.993126
 20
961.505864
 42
-0.001482
  0
VERTEX
  8
0
 10
417.077798
 20
958.367537
 42
-0.013417
  0
VERTEX
  8
0
 10
425.372367
 20
956.748398
 42
-0.029573
  0
VERTEX
  8
0
 10
429.975808
 20
955.430928
 42
-0.134217
  0
VERTEX
  8
0
 10
432.250000
 20
953.859291
 42
-0.112722
  0
VERTEX
  8
0
 10
433.545180
 20
951.339258
 42
-0.086818
  0
VERTEX
  8
0
 10
433.783860
 20
948.247617
 42
-0.042517
  0
VERTEX
  8
0
 10
432.925221
 20
943.559283
 42
-0.007312
  0
VERTEX
  8
0
 10
430.417897
 20
934.864117
 42
0.006202
  0
VERTEX
  8
0
 10
429.069957
 20
930.228260
 42
0.008614
  0
VERTEX
  8
0
 10
427.985935
 20
926.041127
 42
0.005753
  0
VERTEX
  8
0
 10
427.182347
 20
922.523621
 42
0.101180
  0
VERTEX
  8
0
 10
427.169065
 20
921.360633
 42
0.253514
  0
VERTEX
  8
0
 10
428.429496
 20
919.823527
 42
0.029968
  0
VERTEX
  8
0
 10
432.759668
 20
918.352458
 42
0.010763
  0
VERTEX
  8
0
 10
441.482517
 20
916.161830
 42
0.000611
  0
VERTEX
  8
0
 10
468.571800
 20
910.010168
 42
-0.007539
  0
VERTEX
  8
0
 10
508.343969
 20
900.396992
 42
-0.013983
  0
VERTEX
  8
0
 10
540.255471
 20
891.213803
 42
-0.016066
  0
VERTEX
  8
0
 10
568.383239
 20
881.254671
 42
-0.015215
  0
VERTEX
  8
0
 10
596.336531
 20
869.342126
 42
-0.012046
  0
VERTEX
  8
0
 10
614.450629
 20
860.426772
 42
-0.020968
  0
VERTEX
  8
0
 10
628.955086
 20
852.056656
 42
-0.023892
  0
VERTEX
  8
0
 10
641.301556
 20
843.370487
 42
-0.023821
  0
VERTEX
  8
0
 10
652.775863
 20
833.537861
 42
-0.080785
  0
VERTEX
  8
0
 10
683.967202
 20
792.799560
 42
-0.081034
  0
VERTEX
  8
0
 10
700.600374
 20
744.319365
 42
-0.080595
  0
VERTEX
  8
0
 10
701.009668
 20
692.835597
 42
-0.078683
  0
VERTEX
  8
0
 10
685.177873
 20
643.400716
 42
-0.026689
  0
VERTEX
  8
0
 10
678.186998
 20
631.200582
 42
-0.023692
  0
VERTEX
  8
0
 10
669.672311
 20
619.301015
 42
-0.018280
  0
VERTEX
  8
0
 10
658.173028
 20
605.786745
 42
-0.007492
  0
VERTEX
  8
0
 10
641.637125
 20
588.268353
 42
-0.005829
  0
VERTEX
  8
0
 10
636.092324
 20
582.699083
 42
-0.020474
  0
VERTEX
  8
0
 10
632.339783
 20
579.306927
 42
-0.031331
  0
VERTEX
  8
0
 10
629.555036
 20
577.270481
 42
-0.096126
  0
VERTEX
  8
0
 10
627.391918
 20
576.413746
 42
0.030311
  0
VERTEX
  8
0
 10
626.036397
 20
576.073324
 42
0.028875
  0
VERTEX
  8
0
 10
624.709190
 20
575.567104
 42
0.030126
  0
VERTEX
  8
0
 10
623.591272
 20
574.981755
 42
0.084068
  0
VERTEX
  8
0
 10
622.922281
 20
574.406355
 42
0.245278
  0
VERTEX
  8
0
 10
622.096643
 20
570.564095
 42
0.052598
  0
VERTEX
  8
0
 10
624.672474
 20
564.010517
 42
0.035756
  0
VERTEX
  8
0
 10
630.157777
 20
555.085303
 42
0.013076
  0
VERTEX
  8
0
 10
639.116881
 20
543.268508
 42
-0.015084
  0
VERTEX
  8
0
 10
650.610438
 20
527.981776
 42
-0.014203
  0
VERTEX
  8
0
 10
661.403879
 20
511.725543
 42
-0.014560
  0
VERTEX
  8
0
 10
670.958787
 20
495.365565
 42
-0.018726
  0
VERTEX
  8
0
 10
678.722710
 20
479.775041
 42
-0.026361
  0
VERTEX
  8
0
 10
687.948828
 20
456.120115
 42
-0.012571
  0
VERTEX
  8
0
 10
697.415578
 20
424.857065
 42
-0.011224
  0
VERTEX
  8
0
 10
705.038011
 20
394.556228
 42
-0.055810
  0
VERTEX
  8
0
 10
707.005577
 20
377.139532
 42
0.052976
  0
VERTEX
  8
0
 10
707.893553
 20
368.860132
 42
0.107528
  0
VERTEX
  8
0
 10
710.592114
 20
362.928055
 42
0.082855
  0
VERTEX
  8
0
 10
716.032190
 20
357.712814
 42
0.022546
  0
VERTEX
  8
0
 10
726.196474
 20
351.426616
 42
-0.015210
  0
VERTEX
  8
0
 10
749.757371
 20
337.328658
 42
-0.073202
  0
VERTEX
  8
0
 10
761.519318
 20
327.100202
 42
-0.104479
  0
VERTEX
  8
0
 10
767.733146
 20
315.744033
 42
-0.048245
  0
VERTEX
  8
0
 10
771.029181
 20
299.148224
 42
-0.032350
  0
VERTEX
  8
0
 10
771.572501
 20
283.614856
 42
-0.035260
  0
VERTEX
  8
0
 10
770.061824
 20
268.589394
 42
-0.038081
  0
VERTEX
  8
0
 10
766.691245
 20
255.211770
 42
-0.062106
  0
VERTEX
  8
0
 10
761.639031
 20
244.672168
 42
-0.042217
  0
VERTEX
  8
0
 10
757.513025
 20
239.305436
 42
-0.018379
  0
VERTEX
  8
0
 10
751.206010
 20
232.886062
 42
-0.018405
  0
VERTEX
  8
0
 10
744.423389
 20
226.929219
 42
-0.040813
  0
VERTEX
  8
0
 10
738.756838
 20
223.033518
 42
-0.059389
  0
VERTEX
  8
0
 10
732.823635
 20
220.510577
 42
-0.134350
  0
VERTEX
  8
0
 10
727.983702
 20
220.431577
 42
-0.090106
  0
VERTEX
  8
0
 10
722.574543
 20
222.915638
 42
-0.017716
  0
VERTEX
  8
0
 10
714.000000
 20
229.375515
 42
-0.007685
  0
VERTEX
  8
0
 10
706.587485
 20
235.574237
 42
-0.013898
  0
VERTEX
  8
0
 10
700.743786
 20
240.906005
 42
-0.014002
  0
VERTEX
  8
0
 10
696.463178
 20
245.273276
 42
-0.096015
  0
VERTEX
  8
0
 10
694.882277
 20
247.817792
 42
-0.098316
  0
VERTEX
  8
0
 10
694.605501
 20
249.444923
 42
-0.023644
  0
VERTEX
  8
0
 10
694.810980
 20
252.187080
 42
-0.018583
  0
VERTEX
  8
0
 10
695.412276
 20
255.931235
 42
-0.007488
  0
VERTEX
  8
0
 10
696.498976
 20
260.995555
 42
0.012027
  0
VERTEX
  8
0
 10
698.398289
 20
270.255812
 42
0.043665
  0
VERTEX
  8
0
 10
698.943697
 20
276.234626
 42
0.072040
  0
VERTEX
  8
0
 10
698.350545
 20
280.439621
 42
0.107195
  0
VERTEX
  8
0
 10
696.582916
 20
283.694236
 42
0.059410
  0
VERTEX
  8
0
 10
694.772507
 20
285.350626
 42
0.107978
  0
VERTEX
  8
0
 10
692.939314
 20
286.141287
 42
0.044535
  0
VERTEX
  8
0
 10
690.004180
 20
286.444862
 42
0.003512
  0
VERTEX
  8
0
 10
682.155239
 20
286.500000
 42
0.004892
  0
VERTEX
  8
0
 10
675.229141
 20
286.432232
 42
0.030313
  0
VERTEX
  8
0
 10
671.685398
 20
286.147497
 42
0.059098
  0
VERTEX
  8
0
 10
669.353242
 20
285.529982
 42
0.065916
  0
VERTEX
  8
0
 10
667.322323
 20
284.397852
 42
0.087816
  0
VERTEX
  8
0
 10
664.606045
 20
281.513688
 42
0.118296
  0
VERTEX
  8
0
 10
663.398407
 20
278.150627
 42
0.058516
  0
VERTEX
  8
0
 10
663.438142
 20
272.955187
 42
0.008641
  0
VERTEX
  8
0
 10
664.925011
 20
262.541920
 42
-0.008111
  0
VERTEX
  8
0
 10
666.339066
 20
252.713081
 42
-0.043066
  0
VERTEX
  8
0
 10
666.559321
 20
247.289526
 42
-0.076295
  0
VERTEX
  8
0
 10
665.791381
 20
243.457599
 42
-0.067275
  0
VERTEX
  8
0
 10
663.891968
 20
239.848284
 42
-0.056952
  0
VERTEX
  8
0
 10
660.611815
 20
236.201778
 42
-0.003217
  0
VERTEX
  8
0
 10
649.159312
 20
226.197126
 42
-0.001317
  0
VERTEX
  8
0
 10
636.880295
 20
215.665243
 42
-0.178439
  0
VERTEX
  8
0
 10
635.075582
 20
215.000000
 42
-0.177332
  0
VERTEX
  8
0
 10
633.469645
 20
215.588061
 42
-0.002306
  0
VERTEX
  8
0
 10
625.194029
 20
222.653013
 42
-0.007060
  0
VERTEX
  8
0
 10
617.481959
 20
229.490685
 42
-0.023249
  0
VERTEX
  8
0
 10
612.678072
 20
234.300185
 42
-0.042382
  0
VERTEX
  8
0
 10
603.049075
 20
246.872022
 42
-0.036188
  0
VERTEX
  8
0
 10
595.094511
 20
261.552845
 42
-0.037674
  0
VERTEX
  8
0
 10
589.735823
 20
276.283535
 42
-0.069167
  0
VERTEX
  8
0
 10
588.014781
 20
288.909963
 42
-0.064193
  0
VERTEX
  8
0
 10
589.712154
 20
301.807225
 42
-0.058889
  0
VERTEX
  8
0
 10
594.638885
 20
314.261005
 42
-0.054567
  0
VERTEX
  8
0
 10
602.751594
 20
326.033821
 42
-0.042409
  0
VERTEX
  8
0
 10
613.885715
 20
336.908860
 42
0.089591
  0
VERTEX
  8
0
 10
620.603357
 20
344.832212
 42
0.135446
  0
VERTEX
  8
0
 10
622.873358
 20
353.530621
 42
0.104237
  0
VERTEX
  8
0
 10
620.549986
 20
363.837996
 42
0.039428
  0
VERTEX
  8
0
 10
613.327975
 20
376.802636
 42
0.023226
  0
VERTEX
  8
0
 10
607.581341
 20
384.626565
 42
0.017175
  0
VERTEX
  8
0
 10
600.545577
 20
392.741410
 42
0.010527
  0
VERTEX
  8
0
 10
593.664876
 20
399.841679
 42
0.197522
  0
VERTEX
  8
0
 10
590.847145
 20
401.000000
 42
0.229309
  0
VERTEX
  8
0
 10
588.833023
 20
400.025018
 42
0.017069
  0
VERTEX
  8
0
 10
585.109933
 20
394.972100
 42
0.020639
  0
VERTEX
  8
0
 10
580.913855
 20
388.273378
 42
0.013277
  0
VERTEX
  8
0
 10
576.585088
 20
380.192434
 42
-0.011654
  0
VERTEX
  8
0
 10
572.594790
 20
372.684890
 42
-0.004484
  0
VERTEX
  8
0
 10
566.719615
 20
362.442889
 42
-0.004498
  0
VERTEX
  8
0
 10
560.644321
 20
352.279504
 42
-0.011242
  0
VERTEX
  8
0
 10
555.975806
 20
345.000000
 42
0.027112
  0
VERTEX
  8
0
 10
550.346694
 20
335.577692
 42
0.016291
  0
VERTEX
  8
0
 10
544.658305
 20
323.853783
 42
0.013948
  0
VERTEX
  8
0
 10
538.838704
 20
309.746699
 42
0.008822
  0
VERTEX
  8
0
 10
532.806689
 20
293.000000
 42
-0.030335
  0
VERTEX
  8
0
 10
521.627444
 20
265.705260
 42
-0.058061
  0
VERTEX
  8
0
 10
508.959194
 20
245.738417
 42
-0.063289
  0
VERTEX
  8
0
 10
492.847650
 20
230.332295
 42
-0.043418
  0
VERTEX
  8
0
 10
471.257768
 20
217.100452
 42
-0.020558
  0
VERTEX
  8
0
 10
454.597954
 20
209.621846
 42
-0.047891
  0
VERTEX
  8
0
 10
441.484754
 20
205.778281
 42
-0.037997
  0
VERTEX
  8
0
 10
426.156183
 20
204.031683
 42
-0.009079
  0
VERTEX
  8
0
 10
400.500000
 20
203.535449
 42
-0.002112
  0
VERTEX
  8
0
 10
382.784515
 20
203.589354
 42
-0.011592
  0
VERTEX
  8
0
 10
373.225990
 20
203.880500
 42
-0.018692
  0
VERTEX
  8
0
 10
365.870392
 20
204.551802
 42
-0.012576
  0
VERTEX
  8
0
 10
357.533161
 20
205.842080
 42
-0.064608
  0
VERTEX
  8
0
 10
323.749415
 20
216.579493
 42
-0.088598
  0
VERTEX
  8
0
 10
297.724692
 20
234.904684
 42
-0.077494
  0
VERTEX
  8
0
 10
277.318820
 20
263.135449
 42
-0.038538
  0
VERTEX
  8
0
 10
260.322949
 20
303.997662
 42
0.012289
  0
VERTEX
  8
0
 10
255.498233
 20
317.563348
 42
0.017638
  0
VERTEX
  8
0
 10
250.512584
 20
329.304627
 42
0.020001
  0
VERTEX
  8
0
 10
245.356052
 20
339.286737
 42
0.030047
  0
VERTEX
  8
0
 10
240.011368
 20
347.500000
 42
-0.013598
  0
VERTEX
  8
0
 10
234.987750
 20
354.691115
 42
-0.010748
  0
VERTEX
  8
0
 10
229.938507
 20
362.725358
 42
-0.009921
  0
VERTEX
  8
0
 10
224.835501
 20
371.643125
 42
-0.007793
  0
VERTEX
  8
0
 10
219.649641
 20
381.500000
 42
0.006178
  0
VERTEX
  8
0
 10
215.256368
 20
389.916234
 42
0.034138
  0
VERTEX
  8
0
 10
212.535749
 20
394.239355
 42
0.072732
  0
VERTEX
  8
0
 10
210.430611
 20
396.388065
 42
0.213322
  0
VERTEX
  8
0
 10
208.459031
 20
396.849885
 42
0.189093
  0
VERTEX
  8
0
 10
204.417406
 20
394.293269
 42
0.010374
  0
VERTEX
  8
0
 10
195.631825
 20
381.783100
 42
0.016781
  0
VERTEX
  8
0
 10
187.472118
 20
368.708523
 42
0.046942
  0
VERTEX
  8
0
 10
182.967393
 20
358.900967
 42
0.072212
  0
VERTEX
  8
0
 10
182.256038
 20
355.252972
 42
0.110467
  0
VERTEX
  8
0
 10
182.804265
 20
352.090229
 42
0.069018
  0
VERTEX
  8
0
 10
184.914714
 20
348.484082
 42
0.014952
  0
VERTEX
  8
0
 10
189.560963
 20
342.936526
 42
-0.021070
  0
VERTEX
  8
0
 10
198.872273
 20
331.538539
 42
-0.026940
  0
VERTEX
  8
0
 10
206.402556
 20
320.266874
 42
-0.030070
  0
VERTEX
  8
0
 10
211.869979
 20
309.635091
 42
-0.052354
  0
VERTEX
  8
0
 10
214.894651
 20
300.200779
 42
-0.034329
  0
VERTEX
  8
0
 10
215.748761
 20
294.005783
 42
-0.021082
  0
VERTEX
  8
0
 10
215.941986
 20
286.637737
 42
-0.021149
  0
VERTEX
  8
0
 10
215.517691
 20
279.359355
 42
-0.037771
  0
VERTEX
  8
0
 10
214.468409
 20
273.460099
 42
-0.052543
  0
VERTEX
  8
0
 10
209.443440
 20
259.967937
 42
-0.038885
  0
VERTEX
  8
0
 10
201.261797
 20
246.295368
 42
-0.038159
  0
VERTEX
  8
0
 10
190.845011
 20
233.757404
 42
-0.044567
  0
VERTEX
  8
0
 10
179.132688
 20
223.645682
 42
-0.010562
  0
VERTEX
  8
0
 10
175.920902
 20
221.438981
 42
-0.015743
  0
VERTEX
  8
0
 10
173.014004
 20
219.659206
 42
-0.010734
  0
VERTEX
  8
0
 10
170.564733
 20
218.332479
 42
-0.218473
  0
VERTEX
  8
0
 10
169.743041
 20
218.295659
 42
-0.077994
  0
VERTEX
  8
0
 10
167.317211
 20
219.753331
 42
-0.001658
  0
VERTEX
  8
0
 10
156.623289
 20
228.761917
 42
-0.003091
  0
VERTEX
  8
0
 10
146.513443
 20
237.443969
 42
-0.032552
  0
VERTEX
  8
0
 10
142.645217
 20
241.276997
 42
-0.039050
  0
VERTEX
  8
0
 10
139.219818
 20
245.812682
 42
-0.112898
  0
VERTEX
  8
0
 10
137.900756
 20
249.495599
 42
-0.080078
  0
VERTEX
  8
0
 10
138.088369
 20
254.098488
 42
-0.013521
  0
VERTEX
  8
0
 10
140.081550
 20
262.704349
 42
0.025787
  0
VERTEX
  8
0
 10
142.538684
 20
274.637315
 42
0.096510
  0
VERTEX
  8
0
 10
142.227035
 20
282.250241
 42
0.158479
  0
VERTEX
  8
0
 10
139.264076
 20
287.108183
 42
0.111580
  0
VERTEX
  8
0
 10
133.565130
 20
290.122579
 42
0.057814
  0
VERTEX
  8
0
 10
128.914099
 20
290.819762
 42
0.028253
  0
VERTEX
  8
0
 10
122.910530
 20
290.680451
 42
0.028192
  0
VERTEX
  8
0
 10
117.025939
 20
289.874806
 42
0.064681
  0
VERTEX
  8
0
 10
112.789891
 20
288.463441
 42
0.099661
  0
VERTEX
  8
0
 10
109.635213
 20
286.067926
 42
0.138756
  0
VERTEX
  8
0
 10
108.110966
 20
282.887497
 42
0.060420
  0
VERTEX
  8
0
 10
107.838658
 20
277.496935
 42
0.007320
  0
VERTEX
  8
0
 10
108.846411
 20
265.649870
 42
-0.002466
  0
VERTEX
  8
0
 10
109.806147
 20
255.531318
 42
-0.027345
  0
VERTEX
  8
0
 10
109.948056
 20
251.473643
 42
-0.065816
  0
VERTEX
  8
0
 10
109.547276
 20
248.842475
 42
-0.053127
  0
VERTEX
  8
0
 10
108.462766
 20
246.194749
 42
-0.059871
  0
VERTEX
  8
0
 10
107.152026
 20
244.337259
 42
-0.012863
  0
VERTEX
  8
0
 10
104.432813
 20
241.475332
 42
-0.013259
  0
VERTEX
  8
0
 10
101.089430
 20
238.305741
 42
-0.012304
  0
VERTEX
  8
0
 10
97.500000
 20
235.235494
 42
-0.011666
  0
VERTEX
  8
0
 10
82.816690
 20
223.847755
 42
-0.122567
  0
VERTEX
  8
0
 10
75.843728
 20
220.961829
 42
-0.182407
  0
VERTEX
  8
0
 10
69.554687
 20
222.317779
 42
-0.032776
  0
VERTEX
  8
0
 10
59.761340
 20
229.590035
 42
-0.034834
  0
VERTEX
  8
0
 10
51.011655
 20
238.140749
 42
-0.038279
  0
VERTEX
  8
0
 10
43.831024
 20
247.571961
 42
-0.040386
  0
VERTEX
  8
0
 10
38.510196
 20
257.464242
 42
-0.050356
  0
VERTEX
  8
0
 10
35.307448
 20
267.389712
 42
-0.037380
  0
VERTEX
  8
0
 10
34.153636
 20
275.772646
 42
-0.016072
  0
VERTEX
  8
0
 10
33.815769
 20
287.064881
 42
-0.016106
  0
VERTEX
  8
0
 10
34.206389
 20
298.402393
 42
-0.035699
  0
VERTEX
  8
0
 10
35.395714
 20
306.964818
 42
-0.031870
  0
VERTEX
  8
0
 10
37.350842
 20
313.944898
 42
-0.025651
  0
VERTEX
  8
0
 10
40.300860
 20
321.160339
 42
-0.026257
  0
VERTEX
  8
0
 10
43.845248
 20
327.775038
 42
-0.042969
  0
VERTEX
  8
0
 10
47.590703
 20
332.908900
 42
-0.051415
  0
VERTEX
  8
0
 10
52.919561
 20
337.892010
 42
-0.021788
  0
VERTEX
  8
0
 10
60.974116
 20
343.468592
 42
-0.019816
  0
VERTEX
  8
0
 10
70.814283
 20
349.133823
 42
-0.016040
  0
VERTEX
  8
0
 10
81.783433
 20
354.441674
 42
0.005724
  0
VERTEX
  8
0
 10
88.255887
 20
357.410442
 42
0.021103
  0
VERTEX
  8
0
 10
92.238850
 20
359.502745
 42
0.030308
  0
VERTEX
  8
0
 10
94.696560
 20
361.135851
 42
0.175499
  0
VERTEX
  8
0
 10
95.532001
 20
362.421495
 42
0.016374
  0
VERTEX
  8
0
 10
95.825764
 20
363.900689
 42
0.000584
  0
VERTEX
  8
0
 10
96.760859
 20
369.617564
 42
0.001078
  0
VERTEX
  8
0
 10
97.843591
 20
376.378037
 42
0.000755
  0
VERTEX
  8
0
 10
99.035661
 20
384.000000
 42
-0.015899
  0
VERTEX
  8
0
 10
105.142280
 20
416.554095
 42
-0.021334
  0
VERTEX
  8
0
 10
112.855765
 20
445.563214
 42
-0.022737
  0
VERTEX
  8
0
 10
122.537320
 20
472.250595
 42
-0.023102
  0
VERTEX
  8
0
 10
134.556880
 20
497.803431
 42
-0.010905
  0
VERTEX
  8
0
 10
139.588785
 20
506.848533
 42
-0.016311
  0
VERTEX
  8
0
 10
144.408247
 20
514.499886
 42
-0.012759
  0
VERTEX
  8
0
 10
150.519749
 20
523.056207
 42
-0.004049
  0
VERTEX
  8
0
 10
160.055431
 20
535.500000
 42
0.004184
  0
VERTEX
  8
0
 10
168.586059
 20
546.638416
 42
0.027519
  0
VERTEX
  8
0
 10
172.495382
 20
552.474664
 42
0.056649
  0
VERTEX
  8
0
 10
174.366785
 20
556.642934
 42
0.077605
  0
VERTEX
  8
0
 10
174.996262
 20
560.700340
 42
0.080189
  0
VERTEX
  8
0
 10
174.395284
 20
564.400380
 42
0.066084
  0
VERTEX
  8
0
 10
172.643105
 20
567.999788
 42
0.035572
  0
VERTEX
  8
0
 10
169.076396
 20
572.632450
 42
0.006748
  0
VERTEX
  8
0
 10
161.882073
 20
580.500000
 42
-0.022922
  0
VERTEX
  8
0
 10
137.604483
 20
608.837358
 42
-0.061585
  0
VERTEX
  8
0
 10
123.990281
 20
631.573026
 42
-0.069107
  0
VERTEX
  8
0
 10
117.188195
 20
655.359644
 42
-0.034991
  0
VERTEX
  8
0
 10
114.986606
 20
686.500000
 42
-0.029232
  0
VERTEX
  8
0
 10
116.618411
 20
714.690844
 42
-0.062592
  0
VERTEX
  8
0
 10
121.817658
 20
735.818773
 42
-0.056467
  0
VERTEX
  8
0
 10
132.467285
 20
756.318517
 42
-0.020075
  0
VERTEX
  8
0
 10
152.006497
 20
783.000000
 42
0.007441
  0
VERTEX
  8
0
 10
161.812575
 20
795.704401
 42
0.013341
  0
VERTEX
  8
0
 10
169.424344
 20
806.462079
 42
0.014578
  0
VERTEX
  8
0
 10
174.861592
 20
815.135546
 42
0.070547
  0
VERTEX
  8
0
 10
177.066289
 20
820.500000
 42
-0.017423
  0
VERTEX
  8
0
 10
183.319919
 20
841.930992
 42
-0.065089
  0
VERTEX
  8
0
 10
189.396982
 20
854.551519
 42
-0.081930
  0
VERTEX
  8
0
 10
197.741491
 20
863.649175
 42
-0.038421
  0
VERTEX
  8
0
 10
211.066695
 20
872.537433
 42
-0.022682
  0
VERTEX
  8
0
 10
232.170371
 20
883.153811
 42
-0.022100
  0
VERTEX
  8
0
 10
254.330192
 20
891.916005
 42
-0.020083
  0
VERTEX
  8
0
 10
279.063263
 20
899.355630
 42
-0.013276
  0
VERTEX
  8
0
 10
307.990501
 20
905.990847
 42
-0.004609
  0
VERTEX
  8
0
 10
321.277081
 20
908.542079
 42
-0.007504
  0
VERTEX
  8
0
 10
332.604738
 20
910.433885
 42
-0.006189
  0
VERTEX
  8
0
 10
345.408071
 20
912.213294
 42
-0.002121
  0
VERTEX
  8
0
 10
364.000000
 20
914.482957
 42
0.011956
  0
VERTEX
  8
0
 10
376.971415
 20
916.326089
 42
0.040013
  0
VERTEX
  8
0
 10
385.299123
 20
918.408584
 42
0.057375
  0
VERTEX
  8
0
 10
391.462278
 20
921.307448
 42
0.051922
  0
VERTEX
  8
0
 10
397.035364
 20
925.615141
 42
0.027330
  0
VERTEX
  8
0
 10
401.634820
 20
930.509227
 42
0.043477
  0
VERTEX
  8
0
 10
404.937915
 20
935.206881
 42
0.053464
  0
VERTEX
  8
0
 10
406.714514
 20
939.194785
 42
0.221067
  0
VERTEX
  8
0
 10
406.399350
 20
941.747074
 42
0.159791
  0
VERTEX
  8
0
 10
404.206088
 20
943.579096
 42
0.016343
  0
VERTEX
  8
0
 10
397.757931
 20
945.905920
 42
0.014112
  0
VERTEX
  8
0
 10
388.054771
 20
948.752960
 42
0.004138
  0
VERTEX
  8
0
 10
373.000000
 20
952.579503
 42
-0.005237
  0
VERTEX
  8
0
 10
357.416689
 20
956.576867
 42
-0.007576
  0
VERTEX
  8
0
 10
343.741741
 20
960.460765
 42
-0.002210
  0
VERTEX
  8
0
 10
331.806474
 20
964.104442
 42
-0.328639
  0
VERTEX
  8
0
 10
331.000000
 20
965.198915
 42
-0.185590
  0
VERTEX
  8
0
 10
331.987575
 20
967.767909
 42
-0.015377
  0
VERTEX
  8
0
 10
337.030664
 20
973.023579
 42
-0.016509
  0
VERTEX
  8
0
 10
344.273027
 20
979.666737
 42
-0.007403
  0
VERTEX
  8
0
 10
354.200193
 20
987.934575
 42
0.276290
  0
VERTEX
  8
0
 10
354.402094
 20
988.484240
 42
0.002586
  0
VERTEX
  8
0
 10
353.544876
 20
992.887247
 42
0.007692
  0
VERTEX
  8
0
 10
352.436183
 20
998.017432
 42
0.004786
  0
VERTEX
  8
0
 10
350.986077
 20
1004.000193
 42
-0.010947
  0
VERTEX
  8
0
 10
347.744551
 20
1018.132176
 42
-0.023454
  0
VERTEX
  8
0
 10
345.999100
 20
1029.180807
 42
-0.030226
  0
VERTEX
  8
0
 10
345.555843
 20
1038.154978
 42
-0.048658
  0
VERTEX
  8
0
 10
346.382907
 20
1045.760421
 42
-0.044918
  0
VERTEX
  8
0
 10
349.136033
 20
1054.809828
 42
-0.053995
  0
VERTEX
  8
0
 10
353.343799
 20
1062.642002
 42
-0.049728
  0
VERTEX
  8
0
 10
359.438296
 20
1069.873937
 42
-0.030571
  0
VERTEX
  8
0
 10
367.891838
 20
1077.140696
 42
-0.042756
  0
VERTEX
  8
0
 10
378.654281
 20
1083.940267
 42
-0.067865
  0
VERTEX
  8
0
 10
388.905677
 20
1087.595233
 42
-0.068140
  0
VERTEX
  8
0
 10
399.731259
 20
1088.363972
 42
-0.043481
  0
SEQEND
  0
POLYLINE
  8
0
 66
1
 70
1
  0
VERTEX
  8
0
 10
351.000000
 20
145.335840
 42
0.013063
  0
VERTEX
  8
0
 10
320.365104
 20
142.893260
 42
0.023976
  0
VERTEX
  8
0
 10
295.632174
 20
139.063353
 42
0.022801
  0
VERTEX
  8
0
 10
277.284270
 20
134.433716
 42
0.263917
  0
VERTEX
  8
0
 10
272.351460
 20
129.264192
 42
0.153146
  0
VERTEX
  8
0
 10
272.578204
 20
125.360899
 42
0.067231
  0
VERTEX
  8
0
 10
275.070072
 20
120.758240
 42
0.062888
  0
VERTEX
  8
0
 10
278.987925
 20
116.603687
 42
0.082127
  0
VERTEX
  8
0
 10
283.500000
 20
113.988901
 42
0.072806
  0
VERTEX
  8
0
 10
287.929297
 20
113.017125
 42
0.001769
  0
VERTEX
  8
0
 10
308.876918
 20
111.609789
 42
0.003922
  0
VERTEX
  8
0
 10
332.997519
 20
110.264836
 42
0.002965
  0
VERTEX
  8
0
 10
359.500000
 20
109.152966
 42
0.006631
  0
VERTEX
  8
0
 10
399.741461
 20
108.237816
 42
0.006751
  0
VERTEX
  8
0
 10
439.753725
 20
108.398866
 42
0.006305
  0
VERTEX
  8
0
 10
474.384196
 20
109.442769
 42
0.032286
  0
VERTEX
  8
0
 10
493.500000
 20
111.501677
 42
0.015155
  0
VERTEX
  8
0
 10
505.670839
 20
113.996088
 42
0.014319
  0
VERTEX
  8
0
 10
517.902963
 20
117.264424
 42
0.012942
  0
VERTEX
  8
0
 10
528.414506
 20
120.696715
 42
0.074624
  0
VERTEX
  8
0
 10
533.559818
 20
123.444237
 42
0.229840
  0
VERTEX
  8
0
 10
534.675122
 20
125.589008
 42
0.176369
  0
VERTEX
  8
0
 10
533.829261
 20
128.129113
 42
0.082789
  0
VERTEX
  8
0
 10
530.599864
 20
131.048337
 42
0.027502
  0
VERTEX
  8
0
 10
525.027648
 20
134.200447
 42
0.025242
  0
VERTEX
  8
0
 10
517.707787
 20
137.376167
 42
0.023885
  0
VERTEX
  8
0
 10
509.970293
 20
139.864164
 42
0.022615
  0
VERTEX
  8
0
 10
501.630149
 20
141.712774
 42
0.018022
  0
VERTEX
  8
0
 10
492.500000
 20
142.970210
 42
0.018349
  0
VERTEX
  8
0
 10
469.712099
 20
144.433557
 42
0.002679
  0
VERTEX
  8
0
 10
423.348115
 20
145.457225
 42
0.002908
  0
VERTEX
  8
0
 10
376.940853
 20
145.963132
 42
0.014632
  0
SEQEND
  0
POLYLINE
  8
0
 66
1
 70
1
  0
VERTEX
  8
0
 10
487.630617
 20
142.081687
 42
-0.010061
  0
VERTEX
  8
0
 10
492.887256
 20
141.551179
 42
-0.007524
  0
VERTEX
  8
0
 10
498.656224
 20
140.763199
 42
-0.007612
  0
VERTEX
  8
0
 10
504.069396
 20
139.856149
 42
-0.017186
  0
VERTEX
  8
0
 10
508.130113
 20
138.966779
 42
-0.027180
  0
VERTEX
  8
0
 10
518.969665
 20
135.562238
 42
-0.043937
  0
VERTEX
  8
0
 10
527.683967
 20
131.390382
 42
-0.065582
  0
VERTEX
  8
0
 10
532.813507
 20
127.365686
 42
-0.421079
  0
VERTEX
  8
0
 10
532.746614
 20
124.400636
 42
-0.108873
  0
VERTEX
  8
0
 10
528.330811
 20
121.788024
 42
-0.010918
  0
VERTEX
  8
0
 10
516.539989
 20
118.198364
 42
-0.014397
  0
VERTEX
  8
0
 10
503.157242
 20
114.853759
 42
-0.017161
  0
VERTEX
  8
0
 10
490.363086
 20
112.501910
 42
-0.033214
  0
VERTEX
  8
0
 10
460.251984
 20
110.055420
 42
-0.005461
  0
VERTEX
  8
0
 10
401.841427
 20
109.836658
 42
-0.006458
  0
VERTEX
  8
0
 10
340.749928
 20
111.064334
 42
-0.013491
  0
VERTEX
  8
0
 10
293.265005
 20
113.916414
 42
-0.026866
  0
VERTEX
  8
0
 10
286.310306
 20
114.901389
 42
-0.068476
  0
VERTEX
  8
0
 10
281.503581
 20
116.553984
 42
-0.085533
  0
VERTEX
  8
0
 10
277.967624
 20
119.178629
 42
-0.062475
  0
VERTEX
  8
0
 10
275.053287
 20
123.118978
 42
-0.033066
  0
VERTEX
  8
0
 10
273.386625
 20
126.605433
 42
-0.167750
  0
VERTEX
  8
0
 10
273.286046
 20
128.725260
 42
-0.172547
  0
VERTEX
  8
0
 10
274.514072
 20
130.421179
 42
-0.035429
  0
VERTEX
  8
0
 10
277.750000
 20
132.323764
 42
-0.044701
  0
VERTEX
  8
0
 10
285.518402
 20
135.348866
 42
-0.021681
  0
VERTEX
  8
0
 10
295.883289
 20
137.870463
 42
-0.016999
  0
VERTEX
  8
0
 10
309.241210
 20
140.043928
 42
-0.008163
  0
VERTEX
  8
0
 10
326.500000
 20
141.967140
 42
0.000572
  0
VERTEX
  8
0
 10
330.968020
 20
142.396464
 42
0.000628
  0
VERTEX
  8
0
 10
335.296875
 20
142.822899
 42
0.000585
  0
VERTEX
  8
0
 10
338.996420
 20
143.196404
 42
0.003178
  0
VERTEX
  8
0
 10
341.000000
 20
143.413927
 42
-0.030540
  0
VERTEX
  8
0
 10
350.485683
 20
143.921312
 42
-0.000366
  0
VERTEX
  8
0
 10
412.424906
 20
143.403880
 42
-0.000599
  0
VERTEX
  8
0
 10
472.266357
 20
142.788491
 42
-0.017246
  0
SEQEND
  0
POLYLINE
  8
0
 66
1
 70
1
  0
VERTEX
  8
0
 10
398.275891
 20
1069.841230
 42
0.070710
  0
VERTEX
  8
0
 10
388.462946
 20
1067.278453
 42
0.055683
  0
VERTEX
  8
0
 10
378.854650
 20
1061.930516
 42
0.055983
  0
VERTEX
  8
0
 10
370.716963
 20
1054.633376
 42
0.073711
  0
VERTEX
  8
0
 10
365.253601
 20
1046.308965
 42
0.073411
  0
VERTEX
  8
0
 10
362.485182
 20
1036.931979
 42
0.064162
  0
VERTEX
  8
0
 10
362.358572
 20
1026.699155
 42
0.060742
  0
VERTEX
  8
0
 10
364.882799
 20
1016.253697
 42
0.053888
  0
VERTEX
  8
0
 10
369.911329
 20
1006.258486
 42
0.058921
  0
VERTEX
  8
0
 10
375.289203
 20
999.762344
 42
0.076488
  0
VERTEX
  8
0
 10
381.620696
 20
995.347371
 42
0.071041
  0
VERTEX
  8
0
 10
389.360226
 20
992.830671
 42
0.043163
  0
VERTEX
  8
0
 10
398.964759
 20
992.000000
 42
0.076054
  0
VERTEX
  8
0
 10
411.968685
 20
993.989514
 42
0.080907
  0
VERTEX
  8
0
 10
423.481600
 20
999.766822
 42
0.081789
  0
VERTEX
  8
0
 10
432.470119
 20
1008.834336
 42
0.080081
  0
VERTEX
  8
0
 10
438.156009
 20
1020.368864
 42
0.074467
  0
VERTEX
  8
0
 10
439.682201
 20
1030.500792
 42
0.069432
  0
VERTEX
  8
0
 10
438.240989
 20
1040.893816
 42
0.066449
  0
VERTEX
  8
0
 10
433.906225
 20
1050.890877
 42
0.058987
  0
VERTEX
  8
0
 10
426.953988
 20
1059.854753
 42
0.045232
  0
VERTEX
  8
0
 10
420.519514
 20
1065.306221
 42
0.069458
  0
VERTEX
  8
0
 10
414.031227
 20
1068.633025
 42
0.068857
  0
VERTEX
  8
0
 10
406.837925
 20
1070.073195
 42
0.043621
  0
SEQEND
  0
POLYLINE
  8
0
 66
1
 70
1
  0
VERTEX
  8
0
 10
417.905665
 20
1065.454827
 42
-0.066082
  0
VERTEX
  8
0
 10
424.793794
 20
1060.428334
 42
-0.050853
  0
VERTEX
  8
0
 10
430.843967
 20
1053.343687
 42
-0.050454
  0
VERTEX
  8
0
 10
435.386639
 20
1045.113894
 42
-0.062077
  0
VERTEX
  8
0
 10
437.805110
 20
1036.688951
 42
-0.060451
  0
VERTEX
  8
0
 10
438.124338
 20
1027.517522
 42
-0.065180
  0
VERTEX
  8
0
 10
436.205681
 20
1018.779265
 42
-0.064088
  0
VERTEX
  8
0
 10
432.061924
 20
1010.708204
 42
-0.055451
  0
VERTEX
  8
0
 10
425.829490
 20
1003.502623
 42
-0.038745
  0
VERTEX
  8
0
 10
419.792847
 20
998.725481
 42
-0.060824
  0
VERTEX
  8
0
 10
413.902607
 20
995.729736
 42
-0.056741
  0
VERTEX
  8
0
 10
407.170056
 20
994.113240
 42
-0.029141
  0
VERTEX
  8
0
 10
398.500000
 20
993.557476
 42
-0.008235
  0
VERTEX
  8
0
 10
392.638495
 20
993.620326
 42
-0.036349
  0
VERTEX
  8
0
 10
389.204279
 20
993.964403
 42
-0.048345
  0
VERTEX
  8
0
 10
386.342174
 20
994.753860
 42
-0.022686
  0
VERTEX
  8
0
 10
382.818397
 20
996.290085
 42
-0.063808
  0
VERTEX
  8
0
 10
376.566883
 20
1000.421034
 42
-0.060388
  0
VERTEX
  8
0
 10
371.426293
 20
1006.064515
 42
-0.054432
  0
VERTEX
  8
0
 10
367.373620
 20
1013.319717
 42
-0.037483
  0
VERTEX
  8
0
 10
364.357680
 20
1022.249067
 42
-0.100390
  0
VERTEX
  8
0
 10
363.651325
 20
1036.173345
 42
-0.100051
  0
VERTEX
  8
0
 10
368.422729
 20
1049.290979
 42
-0.095057
  0
VERTEX
  8
0
 10
378.187768
 20
1060.031870
 42
-0.081336
  0
VERTEX
  8
0
 10
391.761950
 20
1067.117558
 42
-0.050391
  0
VERTEX
  8
0
 10
398.384476
 20
1068.585123
 42
-0.045255
  0
VERTEX
  8
0
 10
405.414645
 20
1068.774515
 42
-0.046494
  0
VERTEX
  8
0
 10
412.153732
 20
1067.711599
 42
-0.062349
  0
SEQEND
  0
POLYLINE
  8
0
 66
1
 70
1
  0
VERTEX
  8
0
 10
350.679679
 20
896.908071
 42
0.016829
  0
VERTEX
  8
0
 10
335.685638
 20
894.812296
 42
0.013161
  0
VERTEX
  8
0
 10
319.572909
 20
891.565365
 42
0.011159
  0
VERTEX
  8
0
 10
301.183176
 20
886.918849
 42
0.006363
  0
VERTEX
  8
0
 10
279.168399
 20
880.527994
 42
0.007534
  0
VERTEX
  8
0
 10
252.354859
 20
871.929247
 42
0.023502
  0
VERTEX
  8
0
 10
234.701227
 20
865.033484
 42
0.034852
  0
VERTEX
  8
0
 10
222.302391
 20
858.435026
 42
0.056688
  0
VERTEX
  8
0
 10
212.979460
 20
851.018596
 42
0.025982
  0
VERTEX
  8
0
 10
207.352837
 20
844.776599
 42
0.018436
  0
VERTEX
  8
0
 10
201.686255
 20
837.241202
 42
0.013924
  0
VERTEX
  8
0
 10
196.972027
 20
830.046755
 42
0.138938
  0
VERTEX
  8
0
 10
196.000000
 20
826.616223
 42
0.174577
  0
VERTEX
  8
0
 10
197.032888
 20
823.748121
 42
0.184661
  0
VERTEX
  8
0
 10
199.632060
 20
822.279720
 42
0.063195
  0
VERTEX
  8
0
 10
204.993526
 20
822.157362
 42
0.008009
  0
VERTEX
  8
0
 10
216.500000
 20
823.538066
 42
-0.005400
  0
VERTEX
  8
0
 10
231.692564
 20
825.441530
 42
-0.014449
  0
VERTEX
  8
0
 10
242.561970
 20
826.367044
 42
-0.018871
  0
VERTEX
  8
0
 10
251.614333
 20
826.532815
 42
-0.018320
  0
VERTEX
  8
0
 10
260.743821
 20
826.020448
 42
-0.047027
  0
VERTEX
  8
0
 10
294.994749
 20
819.551011
 42
-0.057154
  0
VERTEX
  8
0
 10
325.123478
 20
806.995170
 42
-0.060010
  0
VERTEX
  8
0
 10
350.445933
 20
788.574291
 42
-0.061073
  0
VERTEX
  8
0
 10
370.500000
 20
764.765904
 42
0.004482
  0
VERTEX
  8
0
 10
373.237017
 20
760.651300
 42
0.007106
  0
VERTEX
  8
0
 10
375.662429
 20
757.182247
 42
0.002427
  0
VERTEX
  8
0
 10
377.795977
 20
754.251264
 42
0.232296
  0
VERTEX
  8
0
 10
378.244439
 20
754.017665
 42
0.279537
  0
VERTEX
  8
0
 10
378.674221
 20
754.264560
 42
0.001290
  0
VERTEX
  8
0
 10
381.267445
 20
758.993156
 42
0.005397
  0
VERTEX
  8
0
 10
384.177263
 20
764.471570
 42
0.003321
  0
VERTEX
  8
0
 10
387.490144
 20
770.980314
 42
-0.016292
  0
VERTEX
  8
0
 10
402.487494
 20
798.646005
 42
-0.028641
  0
VERTEX
  8
0
 10
416.884939
 20
820.308054
 42
-0.033442
  0
VERTEX
  8
0
 10
431.839438
 20
837.681140
 42
-0.037364
  0
VERTEX
  8
0
 10
448.466330
 20
852.220623
 42
-0.019250
  0
VERTEX
  8
0
 10
456.981018
 20
858.112756
 42
-0.023023
  0
VERTEX
  8
0
 10
465.441195
 20
862.965736
 42
-0.021501
  0
VERTEX
  8
0
 10
474.782644
 20
867.269924
 42
-0.013617
  0
VERTEX
  8
0
 10
486.000000
 20
871.511905
 42
0.003611
  0
VERTEX
  8
0
 10
491.263018
 20
873.382696
 42
0.005166
  0
VERTEX
  8
0
 10
495.901563
 20
875.123812
 42
0.002914
  0
VERTEX
  8
0
 10
499.785618
 20
876.653771
 42
0.076214
  0
VERTEX
  8
0
 10
500.750000
 20
877.222978
 42
0.125375
  0
VERTEX
  8
0
 10
501.690035
 20
878.496120
 42
0.118076
  0
VERTEX
  8
0
 10
501.933949
 20
880.093816
 42
0.107003
  0
VERTEX
  8
0
 10
501.426038
 20
881.754793
 42
0.088094
  0
VERTEX
  8
0
 10
500.250000
 20
883.192290
 42
0.113637
  0
VERTEX
  8
0
 10
495.192062
 20
885.845266
 42
0.008363
  0
VERTEX
  8
0
 10
479.879499
 20
889.593144
 42
0.012603
  0
VERTEX
  8
0
 10
463.243960
 20
892.932606
 42
0.018636
  0
VERTEX
  8
0
 10
448.500000
 20
894.944786
 42
0.012001
  0
VERTEX
  8
0
 10
424.018285
 20
896.768805
 42
0.007575
  0
VERTEX
  8
0
 10
395.381948
 20
897.777722
 42
0.007308
  0
VERTEX
  8
0
 10
368.435533
 20
897.924651
 42
0.024019
  0
SEQEND
  0
POLYLINE
  8
0
 66
1
 70
1
  0
VERTEX
  8
0
 10
413.500000
 20
895.965054
 42
-0.006483
  0
VERTEX
  8
0
 10
438.055409
 20
894.439059
 42
-0.014493
  0
VERTEX
  8
0
 10
456.653538
 20
892.497577
 42
-0.017666
  0
VERTEX
  8
0
 10
472.615941
 20
889.784994
 42
-0.016619
  0
VERTEX
  8
0
 10
488.679185
 20
885.906927
 42
-0.014103
  0
VERTEX
  8
0
 10
498.937757
 20
882.752315
 42
-0.290046
  0
VERTEX
  8
0
 10
500.880617
 20
880.348076
 42
-0.338259
  0
VERTEX
  8
0
 10
499.415659
 20
877.889099
 42
-0.016798
  0
VERTEX
  8
0
 10
490.000000
 20
874.478199
 42
0.024746
  0
VERTEX
  8
0
 10
472.899304
 20
867.974150
 42
0.034303
  0
VERTEX
  8
0
 10
458.367063
 20
860.380701
 42
0.034292
  0
VERTEX
  8
0
 10
445.006030
 20
850.869506
 42
0.024707
  0
VERTEX
  8
0
 10
431.444144
 20
838.570514
 42
0.022410
  0
VERTEX
  8
0
 10
419.108154
 20
825.059749
 42
0.025063
  0
VERTEX
  8
0
 10
408.511892
 20
810.976898
 42
0.021756
  0
VERTEX
  8
0
 10
398.250146
 20
794.293170
 42
0.011288
  0
VERTEX
  8
0
 10
386.837910
 20
772.655812
 42
-0.002470
  0
VERTEX
  8
0
 10
383.614824
 20
766.274686
 42
-0.004062
  0
VERTEX
  8
0
 10
380.818116
 20
760.912931
 42
-0.000701
  0
VERTEX
  8
0
 10
378.314587
 20
756.222767
 42
-0.312799
  0
VERTEX
  8
0
 10
378.014060
 20
756.069060
 42
-0.210860
  0
VERTEX
  8
0
 10
377.700599
 20
756.260889
 42
-0.001262
  0
VERTEX
  8
0
 10
375.741630
 20
759.103123
 42
-0.004909
  0
VERTEX
  8
0
 10
373.528837
 20
762.399972
 42
-0.003070
  0
VERTEX
  8
0
 10
371.000000
 20
766.300806
 42
0.081922
  0
VERTEX
  8
0
 10
345.434456
 20
794.724721
 42
0.068927
  0
VERTEX
  8
0
 10
310.601877
 20
815.470966
 42
0.066598
  0
VERTEX
  8
0
 10
270.233769
 20
826.493038
 42
0.067127
  0
VERTEX
  8
0
 10
228.500000
 20
826.471760
 42
-0.003424
  0
VERTEX
  8
0
 10
210.391739
 20
824.146416
 42
-0.030403
  0
VERTEX
  8
0
 10
202.364553
 20
823.663580
 42
-0.093778
  0
VERTEX
  8
0
 10
198.417555
 20
824.413337
 42
-0.308259
  0
VERTEX
  8
0
 10
197.000000
 20
826.494139
 42
-0.147756
  0
VERTEX
  8
0
 10
197.857955
 20
829.334031
 42
-0.008642
  0
VERTEX
  8
0
 10
203.048854
 20
836.855795
 42
-0.014182
  0
VERTEX
  8
0
 10
208.800445
 20
844.426245
 42
-0.026839
  0
VERTEX
  8
0
 10
213.918851
 20
850.125748
 42
-0.048633
  0
VERTEX
  8
0
 10
221.285259
 20
856.183366
 42
-0.034132
  0
VERTEX
  8
0
 10
230.594989
 20
861.548211
 42
-0.024687
  0
VERTEX
  8
0
 10
243.264920
 20
866.982518
 42
-0.009266
  0
VERTEX
  8
0
 10
261.500000
 20
873.377313
 42
-0.012608
  0
VERTEX
  8
0
 10
305.894727
 20
886.796639
 42
-0.030210
  0
VERTEX
  8
0
 10
339.531455
 20
893.893131
 42
-0.032442
  0
VERTEX
  8
0
 10
372.317911
 20
896.609556
 42
-0.016727
  0
SEQEND
  0
POLYLINE
  8
0
 66
1
 70
1
  0
VERTEX
  8
0
 10
527.000000
 20
827.959903
 42
0.059668
  0
VERTEX
  8
0
 10
503.616013
 20
822.677407
 42
0.058001
  0
VERTEX
  8
0
 10
481.898999
 20
811.992268
 42
0.057910
  0
VERTEX
  8
0
 10
463.186768
 20
796.585960
 42
0.059113
  0
VERTEX
  8
0
 10
448.653663
 20
777.397476
 42
0.043658
  0
VERTEX
  8
0
 10
440.321522
 20
759.829569
 42
0.036048
  0
VERTEX
  8
0
 10
434.521030
 20
739.923135
 42
0.035747
  0
VERTEX
  8
0
 10
431.600049
 20
719.196765
 42
0.040823
  0
VERTEX
  8
0
 10
431.861409
 20
699.178335
 42
0.036043
  0
VERTEX
  8
0
 10
434.969720
 20
680.706420
 42
0.051126
  0
VERTEX
  8
0
 10
440.536986
 20
665.014325
 42
0.051953
  0
VERTEX
  8
0
 10
449.091306
 20
650.964442
 42
0.038881
  0
VERTEX
  8
0
 10
461.163971
 20
637.431761
 42
0.025156
  0
VERTEX
  8
0
 10
470.985533
 20
628.915595
 42
0.028194
  0
VERTEX
  8
0
 10
481.258944
 20
621.771097
 42
0.027905
  0
VERTEX
  8
0
 10
492.366549
 20
615.767922
 42
0.023703
  0
VERTEX
  8
0
 10
504.688010
 20
610.670057
 42
0.047505
  0
VERTEX
  8
0
 10
522.474835
 20
606.129123
 42
0.039979
  0
VERTEX
  8
0
 10
541.872137
 20
604.669543
 42
0.039866
  0
VERTEX
  8
0
 10
561.315632
 20
606.316426
 42
0.046470
  0
VERTEX
  8
0
 10
579.241050
 20
611.028627
 42
0.058411
  0
VERTEX
  8
0
 10
601.692276
 20
622.337926
 42
0.057370
  0
VERTEX
  8
0
 10
621.070156
 20
638.591207
 42
0.056811
  0
VERTEX
  8
0
 10
636.405172
 20
658.984637
 42
0.055196
  0
VERTEX
  8
0
 10
646.933940
 20
682.500000
 42
0.035072
  0
VERTEX
  8
0
 10
652.036447
 20
703.298695
 42
0.047382
  0
VERTEX
  8
0
 10
653.501494
 20
722.597808
 42
0.051056
  0
VERTEX
  8
0
 10
651.308726
 20
740.638885
 42
0.052508
  0
VERTEX
  8
0
 10
645.510810
 20
757.682975
 42
0.048042
  0
VERTEX
  8
0
 10
635.631501
 20
774.589869
 42
0.030694
  0
VERTEX
  8
0
 10
621.199405
 20
792.212131
 42
0.030936
  0
VERTEX
  8
0
 10
605.083195
 20
807.572015
 42
0.058465
  0
VERTEX
  8
0
 10
590.114335
 20
817.437545
 42
0.042703
  0
VERTEX
  8
0
 10
576.165538
 20
823.018166
 42
0.032517
  0
VERTEX
  8
0
 10
560.136382
 20
826.774836
 42
0.031797
  0
VERTEX
  8
0
 10
543.319042
 20
828.489839
 42
0.035273
  0
SEQEND
  0
POLYLINE
  8
0
 66
1
 70
1
  0
VERTEX
  8
0
 10
559.557581
 20
825.522876
 42
-0.032187
  0
VERTEX
  8
0
 10
576.048209
 20
821.746064
 42
-0.048809
  0
VERTEX
  8
0
 10
589.662122
 20
816.197084
 42
-0.046903
  0
VERTEX
  8
0
 10
602.320910
 20
807.933874
 42
-0.027055
  0
VERTEX
  8
0
 10
615.938305
 20
795.841534
 42
-0.021428
  0
VERTEX
  8
0
 10
626.225783
 20
784.747690
 42
-0.025451
  0
VERTEX
  8
0
 10
634.915181
 20
773.410887
 42
-0.027359
  0
VERTEX
  8
0
 10
641.828992
 20
762.092772
 42
-0.036001
  0
VERTEX
  8
0
 10
646.780092
 20
751.056119
 42
-0.083564
  0
VERTEX
  8
0
 10
651.985302
 20
722.927889
 42
-0.065270
  0
VERTEX
  8
0
 10
648.442391
 20
692.015414
 42
-0.063745
  0
VERTEX
  8
0
 10
636.869930
 20
662.336288
 42
-0.071696
  0
VERTEX
  8
0
 10
618.533250
 20
637.823573
 42
-0.031773
  0
VERTEX
  8
0
 10
607.607617
 20
628.204758
 42
-0.033367
  0
VERTEX
  8
0
 10
595.721695
 20
620.218197
 42
-0.033445
  0
VERTEX
  8
0
 10
582.905868
 20
613.899466
 42
-0.032240
  0
VERTEX
  8
0
 10
569.205812
 20
609.256687
 42
-0.014634
  0
VERTEX
  8
0
 10
563.198504
 20
607.830990
 42
-0.026562
  0
VERTEX
  8
0
 10
558.208290
 20
607.073533
 42
-0.019189
  0
VERTEX
  8
0
 10
552.190250
 20
606.717123
 42
-0.004394
  0
VERTEX
  8
0
 10
542.000000
 20
606.594910
 42
-0.004509
  0
VERTEX
  8
0
 10
532.164575
 20
606.652095
 42
-0.017100
  0
VERTEX
  8
0
 10
526.023978
 20
606.953408
 42
-0.023952
  0
VERTEX
  8
0
 10
521.037550
 20
607.611007
 42
-0.017058
  0
VERTEX
  8
0
 10
515.529365
 20
608.803062
 42
-0.049987
  0
VERTEX
  8
0
 10
492.515164
 20
617.129201
 42
-0.051071
  0
VERTEX
  8
0
 10
471.788626
 20
629.810461
 42
-0.052847
  0
VERTEX
  8
0
 10
454.697834
 20
645.948287
 42
-0.062286
  0
VERTEX
  8
0
 10
442.435337
 20
664.500000
 42
-0.022732
  0
VERTEX
  8
0
 10
437.734180
 20
675.193494
 42
-0.044654
  0
VERTEX
  8
0
 10
435.172649
 20
684.118657
 42
-0.036414
  0
VERTEX
  8
0
 10
433.950961
 20
694.473094
 42
-0.010667
  0
VERTEX
  8
0
 10
433.577210
 20
710.500000
 42
-0.003127
  0
VERTEX
  8
0
 10
433.631851
 20
723.291990
 42
-0.018466
  0
VERTEX
  8
0
 10
433.949685
 20
729.984717
 42
-0.027695
  0
VERTEX
  8
0
 10
434.713797
 20
735.416508
 42
-0.012996
  0
VERTEX
  8
0
 10
436.270387
 20
742.340868
 42
-0.026052
  0
VERTEX
  8
0
 10
441.092156
 20
757.972226
 42
-0.032837
  0
VERTEX
  8
0
 10
447.222601
 20
771.813178
 42
-0.034447
  0
VERTEX
  8
0
 10
454.827493
 20
784.176256
 42
-0.034420
  0
VERTEX
  8
0
 10
464.059627
 20
795.381541
 42
-0.040738
  0
VERTEX
  8
0
 10
476.540491
 20
806.582420
 42
-0.040451
  0
VERTEX
  8
0
 10
490.700703
 20
815.640940
 42
-0.041084
  0
VERTEX
  8
0
 10
505.907359
 20
822.180411
 42
-0.045227
  0
VERTEX
  8
0
 10
521.500000
 20
825.890854
 42
-0.025649
  0
VERTEX
  8
0
 10
529.835263
 20
826.659335
 42
-0.012580
  0
VERTEX
  8
0
 10
540.496544
 20
826.824498
 42
-0.012584
  0
VERTEX
  8
0
 10
551.171163
 20
826.452496
 42
-0.025203
  0
SEQEND
  0
POLYLINE
  8
0
 66
1
 70
1
  0
VERTEX
  8
0
 10
245.500000
 20
781.328310
 42
0.021767
  0
VERTEX
  8
0
 10
239.108786
 20
779.628601
 42
0.005982
  0
VERTEX
  8
0
 10
229.207691
 20
776.397756
 42
0.005905
  0
VERTEX
  8
0
 10
219.411433
 20
772.941378
 42
0.023138
  0
VERTEX
  8
0
 10
213.500000
 20
770.461074
 42
0.047329
  0
VERTEX
  8
0
 10
194.457594
 20
759.094959
 42
0.056529
  0
VERTEX
  8
0
 10
179.111506
 20
744.922753
 42
0.059190
  0
VERTEX
  8
0
 10
167.874006
 20
728.282371
 42
0.060776
  0
VERTEX
  8
0
 10
160.969225
 20
709.617504
 42
0.049429
  0
VERTEX
  8
0
 10
158.808223
 20
693.604540
 42
0.039863
  0
VERTEX
  8
0
 10
159.577764
 20
676.252105
 42
0.039539
  0
VERTEX
  8
0
 10
163.113087
 20
659.079988
 42
0.046262
  0
VERTEX
  8
0
 10
169.197684
 20
643.600991
 42
0.058869
  0
VERTEX
  8
0
 10
181.321517
 20
625.280178
 42
0.053273
  0
VERTEX
  8
0
 10
197.756740
 20
609.591671
 42
0.054522
  0
VERTEX
  8
0
 10
216.700834
 20
598.060808
 42
0.069351
  0
VERTEX
  8
0
 10
236.235439
 20
592.031737
 42
0.047893
  0
VERTEX
  8
0
 10
250.894891
 20
591.075074
 42
0.036357
  0
VERTEX
  8
0
 10
266.925987
 20
592.735852
 42
0.035176
  0
VERTEX
  8
0
 10
283.148515
 20
596.813132
 42
0.036778
  0
VERTEX
  8
0
 10
298.389956
 20
603.079636
 42
0.051330
  0
VERTEX
  8
0
 10
315.611974
 20
614.025659
 42
0.069208
  0
VERTEX
  8
0
 10
328.369298
 20
627.344753
 42
0.068214
  0
VERTEX
  8
0
 10
337.133395
 20
643.797669
 42
0.048151
  0
VERTEX
  8
0
 10
342.464829
 20
664.083525
 42
0.026602
  0
VERTEX
  8
0
 10
343.513196
 20
673.790526
 42
0.010959
  0
VERTEX
  8
0
 10
343.942848
 20
687.015976
 42
0.010755
  0
VERTEX
  8
0
 10
343.799958
 20
700.064486
 42
0.032108
  0
VERTEX
  8
0
 10
342.938572
 20
708.948929
 42
0.067429
  0
VERTEX
  8
0
 10
338.424289
 20
723.778464
 42
0.039681
  0
VERTEX
  8
0
 10
329.371300
 20
739.983040
 42
0.038908
  0
VERTEX
  8
0
 10
317.517791
 20
755.050593
 42
0.052409
  0
VERTEX
  8
0
 10
304.500000
 20
766.507839
 42
0.036529
  0
VERTEX
  8
0
 10
293.344051
 20
773.255463
 42
0.039303
  0
VERTEX
  8
0
 10
281.588830
 20
778.120272
 42
0.040100
  0
VERTEX
  8
0
 10
269.442458
 20
781.011186
 42
0.041413
  0
VERTEX
  8
0
 10
257.121775
 20
781.883999
 42
0.003966
  0
VERTEX
  8
0
 10
253.290994
 20
781.807421
 42
0.004965
  0
VERTEX
  8
0
 10
249.738896
 20
781.672914
 42
0.004032
  0
VERTEX
  8
0
 10
246.763812
 20
781.506607
 42
0.038142
  0
SEQEND
  0
POLYLINE
  8
0
 66
1
 70
1
  0
VERTEX
  8
0
 10
276.000000
 20
778.461424
 42
-0.069572
  0
VERTEX
  8
0
 10
296.823018
 20
769.771739
 42
-0.061591
  0
VERTEX
  8
0
 10
315.437195
 20
755.405878
 42
-0.060370
  0
VERTEX
  8
0
 10
330.312722
 20
736.625278
 42
-0.061660
  0
VERTEX
  8
0
 10
340.145352
 20
714.964757
 42
-0.022794
  0
VERTEX
  8
0
 10
341.423934
 20
710.107301
 42
-0.031089
  0
VERTEX
  8
0
 10
342.098772
 20
705.631382
 42
-0.018676
  0
VERTEX
  8
0
 10
342.398812
 20
699.652202
 42
-0.003358
  0
VERTEX
  8
0
 10
342.466570
 20
688.500000
 42
-0.011318
  0
VERTEX
  8
0
 10
342.132963
 20
674.169532
 42
-0.024500
  0
VERTEX
  8
0
 10
341.088879
 20
663.200791
 42
-0.029504
  0
VERTEX
  8
0
 10
339.149112
 20
653.771273
 42
-0.027114
  0
VERTEX
  8
0
 10
336.070860
 20
644.359150
 42
-0.080481
  0
VERTEX
  8
0
 10
324.792758
 20
625.150894
 42
-0.073636
  0
VERTEX
  8
0
 10
307.719520
 20
609.802209
 42
-0.066864
  0
VERTEX
  8
0
 10
285.366850
 20
598.957159
 42
-0.049880
  0
VERTEX
  8
0
 10
258.586376
 20
593.010313
 42
-0.096944
  0
VERTEX
  8
0
 10
229.270237
 20
595.196882
 42
-0.085560
  0
VERTEX
  8
0
 10
201.488025
 20
608.223130
 42
-0.082774
  0
VERTEX
  8
0
 10
178.931088
 20
630.285324
 42
-0.082450
  0
VERTEX
  8
0
 10
164.712869
 20
658.500000
 42
-0.048633
  0
VERTEX
  8
0
 10
160.629767
 20
678.130816
 42
-0.051645
  0
VERTEX
  8
0
 10
160.537723
 20
697.780510
 42
-0.052963
  0
VERTEX
  8
0
 10
164.433739
 20
716.580675
 42
-0.056571
  0
VERTEX
  8
0
 10
172.145387
 20
733.702299
 42
-0.044295
  0
VERTEX
  8
0
 10
176.609881
 20
739.893561
 42
-0.015724
  0
VERTEX
  8
0
 10
184.015861
 20
747.927950
 42
-0.015922
  0
VERTEX
  8
0
 10
192.006663
 20
755.565354
 42
-0.038235
  0
VERTEX
  8
0
 10
198.500000
 20
760.548051
 42
-0.025106
  0
VERTEX
  8
0
 10
208.705799
 20
766.498820
 42
-0.021360
  0
VERTEX
  8
0
 10
220.014247
 20
771.753275
 42
-0.020790
  0
VERTEX
  8
0
 10
232.065887
 20
776.161763
 42
-0.020491
  0
VERTEX
  8
0
 10
244.500000
 20
779.577965
 42
-0.044889
  0
VERTEX
  8
0
 10
251.094954
 20
780.490087
 42
-0.020790
  0
VERTEX
  8
0
 10
259.753696
 20
780.543277
 42
-0.020754
  0
VERTEX
  8
0
 10
268.631025
 20
779.858971
 42
-0.034510
  0
SEQEND
  0
POLYLINE
  8
0
 66
1
 70
1
  0
VERTEX
  8
0
 10
379.191464
 20
628.103909
 42
-0.010424
  0
VERTEX
  8
0
 10
371.427307
 20
613.801070
 42
-0.021054
  0
VERTEX
  8
0
 10
364.614676
 20
602.941482
 42
-0.024760
  0
VERTEX
  8
0
 10
357.719472
 20
593.906778
 42
-0.022809
  0
VERTEX
  8
0
 10
349.782745
 20
585.336066
 42
-0.035347
  0
VERTEX
  8
0
 10
334.781999
 20
572.507328
 42
-0.037831
  0
VERTEX
  8
0
 10
318.447154
 20
562.238467
 42
-0.037153
  0
VERTEX
  8
0
 10
300.479424
 20
554.400902
 42
-0.031843
  0
VERTEX
  8
0
 10
280.604058
 20
548.827738
 42
-0.033398
  0
VERTEX
  8
0
 10
268.703832
 20
547.114934
 42
-0.018675
  0
VERTEX
  8
0
 10
254.080522
 20
546.546798
 42
-0.018414
  0
VERTEX
  8
0
 10
238.970683
 20
547.080971
 42
-0.025407
  0
VERTEX
  8
0
 10
225.500000
 20
548.745805
 42
0.001773
  0
VERTEX
  8
0
 10
220.533907
 20
549.599408
 42
0.001745
  0
VERTEX
  8
0
 10
215.535629
 20
550.422375
 42
0.001714
  0
VERTEX
  8
0
 10
211.150300
 20
551.113289
 42
0.006675
  0
VERTEX
  8
0
 10
208.429800
 20
551.495249
 42
0.100517
  0
VERTEX
  8
0
 10
203.614030
 20
551.137165
 42
0.307883
  0
VERTEX
  8
0
 10
201.613708
 20
548.756839
 42
0.066245
  0
VERTEX
  8
0
 10
201.797861
 20
542.774716
 42
0.002758
  0
VERTEX
  8
0
 10
205.390869
 20
521.664447
 42
0.004545
  0
VERTEX
  8
0
 10
215.292794
 20
468.218123
 42
0.014524
  0
VERTEX
  8
0
 10
223.253160
 20
432.840758
 42
0.021061
  0
VERTEX
  8
0
 10
231.288111
 20
406.157687
 42
0.026332
  0
VERTEX
  8
0
 10
241.054166
 20
382.212604
 42
0.048608
  0
VERTEX
  8
0
 10
254.484251
 20
359.657164
 42
0.063008
  0
VERTEX
  8
0
 10
271.052911
 20
342.226110
 42
0.058050
  0
VERTEX
  8
0
 10
292.546973
 20
328.481298
 42
0.033921
  0
VERTEX
  8
0
 10
320.916054
 20
316.980559
 42
0.015655
  0
VERTEX
  8
0
 10
339.122573
 20
311.626186
 42
0.024735
  0
VERTEX
  8
0
 10
355.052391
 20
308.309717
 42
0.022382
  0
VERTEX
  8
0
 10
372.328259
 20
306.383422
 42
0.010235
  0
VERTEX
  8
0
 10
395.000000
 20
305.343926
 42
0.011974
  0
VERTEX
  8
0
 10
419.333435
 20
305.309790
 42
0.025200
  0
VERTEX
  8
0
 10
438.174146
 20
306.686344
 42
0.028858
  0
VERTEX
  8
0
 10
455.079915
 20
309.780534
 42
0.021981
  0
VERTEX
  8
0
 10
473.160021
 20
315.031977
 42
0.026924
  0
VERTEX
  8
0
 10
496.127665
 20
324.217976
 42
0.033228
  0
VERTEX
  8
0
 10
516.351258
 20
335.285456
 42
0.036873
  0
VERTEX
  8
0
 10
532.815225
 20
347.566109
 42
0.061311
  0
VERTEX
  8
0
 10
544.391337
 20
360.404667
 42
0.031348
  0
VERTEX
  8
0
 10
552.835257
 20
374.220695
 42
0.019748
  0
VERTEX
  8
0
 10
561.002643
 20
391.284035
 42
0.017861
  0
VERTEX
  8
0
 10
568.674915
 20
410.993904
 42
0.014000
  0
VERTEX
  8
0
 10
575.619660
 20
432.862229
 42
0.015420
  0
VERTEX
  8
0
 10
581.038216
 20
454.202123
 42
0.007073
  0
VERTEX
  8
0
 10
586.845737
 20
482.319900
 42
0.007001
  0
VERTEX
  8
0
 10
592.124689
 20
512.084384
 42
0.009669
  0
VERTEX
  8
0
 10
595.969704
 20
538.942694
 42
0.000163
  0
VERTEX
  8
0
 10
596.748118
 20
545.263794
 42
0.000267
  0
VERTEX
  8
0
 10
597.403601
 20
550.624636
 42
0.000023
  0
VERTEX
  8
0
 10
597.988487
 20
555.431269
 42
0.030270
  0
VERTEX
  8
0
 10
598.000000
 20
555.621266
 42
0.174857
  0
VERTEX
  8
0
 10
597.946910
 20
555.768433
 42
0.005818
  0
VERTEX
  8
0
 10
597.538393
 20
556.249461
 42
0.010425
  0
VERTEX
  8
0
 10
597.030731
 20
556.809311
 42
0.007000
  0
VERTEX
  8
0
 10
596.428571
 20
557.428571
 42
0.163297
  0
VERTEX
  8
0
 10
593.968106
 20
558.652700
 42
0.041160
  0
VERTEX
  8
0
 10
589.439644
 20
558.904965
 42
0.025915
  0
VERTEX
  8
0
 10
582.510321
 20
558.360291
 42
0.006829
  0
VERTEX
  8
0
 10
571.500000
 20
556.764683
 42
-0.010103
  0
VERTEX
  8
0
 10
563.315567
 20
555.633278
 42
-0.014094
  0
VERTEX
  8
0
 10
555.953952
 20
554.976534
 42
-0.011415
  0
VERTEX
  8
0
 10
547.492626
 20
554.655173
 42
-0.004162
  0
VERTEX
  8
0
 10
535.500000
 20
554.573512
 42
-0.003358
  0
VERTEX
  8
0
 10
522.477881
 20
554.680677
 42
-0.015774
  0
VERTEX
  8
0
 10
515.001723
 20
555.028493
 42
-0.021827
  0
VERTEX
  8
0
 10
508.740419
 20
555.794159
 42
-0.010910
  0
VERTEX
  8
0
 10
500.898447
 20
557.279138
 42
-0.019163
  0
VERTEX
  8
0
 10
486.262290
 20
560.974113
 42
-0.023014
  0
VERTEX
  8
0
 10
472.836798
 20
565.597131
 42
-0.025075
  0
VERTEX
  8
0
 10
461.084025
 20
570.955779
 42
-0.037782
  0
VERTEX
  8
0
 10
451.511363
 20
576.870458
 42
-0.028871
  0
VERTEX
  8
0
 10
440.205594
 20
586.139189
 42
-0.019903
  0
VERTEX
  8
0
 10
428.479715
 20
597.837931
 42
-0.017710
  0
VERTEX
  8
0
 10
416.319570
 20
611.947100
 42
-0.012660
  0
VERTEX
  8
0
 10
403.695715
 20
628.532099
 42
0.004682
  0
VERTEX
  8
0
 10
398.897849
 20
635.048604
 42
0.007207
  0
VERTEX
  8
0
 10
394.613688
 20
640.586618
 42
0.002965
  0
VERTEX
  8
0
 10
390.873068
 20
645.223946
 42
0.175737
  0
VERTEX
  8
0
 10
389.959543
 20
645.769275
 42
0.300848
  0
VERTEX
  8
0
 10
388.943419
 20
645.346575
 42
0.011174
  0
VERTEX
  8
0
 10
386.595296
 20
641.681279
 42
0.013473
  0
VERTEX
  8
0
 10
383.509819
 20
636.298297
 42
0.004262
  0
SEQEND
  0
POLYLINE
  8
0
 66
1
 70
1
  0
VERTEX
  8
0
 10
400.500000
 20
630.744896
 42
0.007759
  0
VERTEX
  8
0
 10
409.776889
 20
618.002711
 42
0.013390
  0
VERTEX
  8
0
 10
417.936731
 20
607.736888
 42
0.014664
  0
VERTEX
  8
0
 10
426.079242
 20
598.596033
 42
0.012160
  0
VERTEX
  8
0
 10
435.256393
 20
589.344164
 42
0.012248
  0
VERTEX
  8
0
 10
443.754080
 20
581.575070
 42
0.023175
  0
VERTEX
  8
0
 10
451.027813
 20
575.814780
 42
0.025947
  0
VERTEX
  8
0
 10
458.215053
 20
571.191979
 42
0.020831
  0
VERTEX
  8
0
 10
466.381167
 20
566.960944
 42
0.042626
  0
VERTEX
  8
0
 10
488.856168
 20
558.726776
 42
0.036947
  0
VERTEX
  8
0
 10
513.505779
 20
553.931884
 42
0.035059
  0
VERTEX
  8
0
 10
539.879456
 20
552.660410
 42
0.030336
  0
VERTEX
  8
0
 10
567.500000
 20
554.946267
 42
-0.002979
  0
VERTEX
  8
0
 10
582.368581
 20
557.000152
 42
-0.019658
  0
VERTEX
  8
0
 10
589.843154
 20
557.689745
 42
-0.037120
  0
VERTEX
  8
0
 10
594.131149
 20
557.597453
 42
-0.284488
  0
VERTEX
  8
0
 10
595.664643
 20
556.431544
 42
-0.125321
  0
VERTEX
  8
0
 10
596.315118
 20
550.900469
 42
-0.003291
  0
VERTEX
  8
0
 10
592.859312
 20
526.173270
 42
-0.007181
  0
VERTEX
  8
0
 10
588.404696
 20
498.535230
 42
-0.006433
  0
VERTEX
  8
0
 10
583.004628
 20
470.000000
 42
-0.018756
  0
VERTEX
  8
0
 10
573.393468
 20
430.278817
 42
-0.028035
  0
VERTEX
  8
0
 10
561.790642
 20
396.510800
 42
-0.032705
  0
VERTEX
  8
0
 10
548.655705
 20
369.485769
 42
-0.065451
  0
VERTEX
  8
0
 10
534.336321
 20
350.591176
 42
-0.060997
  0
VERTEX
  8
0
 10
517.549703
 20
337.299362
 42
-0.030408
  0
VERTEX
  8
0
 10
493.553663
 20
324.589868
 42
-0.029806
  0
VERTEX
  8
0
 10
466.941022
 20
314.368922
 42
-0.040510
  0
VERTEX
  8
0
 10
441.879290
 20
308.603248
 42
-0.025262
  0
VERTEX
  8
0
 10
421.948100
 20
306.711397
 42
-0.014982
  0
VERTEX
  8
0
 10
398.074639
 20
306.373338
 42
-0.014940
  0
VERTEX
  8
0
 10
374.030009
 20
307.472483
 42
-0.023561
  0
VERTEX
  8
0
 10
353.533837
 20
309.999473
 42
-0.020287
  0
VERTEX
  8
0
 10
338.358988
 20
313.239490
 42
-0.015556
  0
VERTEX
  8
0
 10
322.070358
 20
317.959210
 42
-0.015648
  0
VERTEX
  8
0
 10
306.249758
 20
323.634593
 42
-0.021745
  0
VERTEX
  8
0
 10
292.500000
 20
329.761863
 42
-0.040617
  0
VERTEX
  8
0
 10
277.818067
 20
338.640376
 42
-0.040556
  0
VERTEX
  8
0
 10
264.756679
 20
349.779704
 42
-0.040307
  0
VERTEX
  8
0
 10
253.593886
 20
362.951799
 42
-0.039077
  0
VERTEX
  8
0
 10
244.559436
 20
377.876512
 42
-0.022815
  0
VERTEX
  8
0
 10
236.828197
 20
395.161142
 42
-0.017243
  0
VERTEX
  8
0
 10
229.883589
 20
414.762538
 42
-0.015514
  0
VERTEX
  8
0
 10
223.628198
 20
436.934539
 42
-0.011200
  0
VERTEX
  8
0
 10
217.982055
 20
462.000000
 42
-0.003474
  0
VERTEX
  8
0
 10
212.697253
 20
489.155170
 42
-0.002854
  0
VERTEX
  8
0
 10
207.421889
 20
518.218737
 42
-0.000475
  0
VERTEX
  8
0
 10
202.387295
 20
547.047048
 42
-0.135407
  0
VERTEX
  8
0
 10
202.622522
 20
549.458692
 42
-0.264593
  0
VERTEX
  8
0
 10
203.644041
 20
550.296748
 42
-0.064439
  0
VERTEX
  8
0
 10
205.906098
 20
550.389605
 42
-0.019635
  0
VERTEX
  8
0
 10
210.416740
 20
549.813933
 42
-0.001373
  0
VERTEX
  8
0
 10
223.000000
 20
547.667530
 42
0.025676
  0
VERTEX
  8
0
 10
237.679991
 20
545.892159
 42
0.017956
  0
VERTEX
  8
0
 10
254.342561
 20
545.340348
 42
0.018165
  0
VERTEX
  8
0
 10
270.364456
 20
545.967575
 42
0.036140
  0
VERTEX
  8
0
 10
282.918778
 20
547.835470
 42
0.032460
  0
VERTEX
  8
0
 10
302.355004
 20
553.526594
 42
0.037327
  0
VERTEX
  8
0
 10
319.967279
 20
561.484150
 42
0.037631
  0
VERTEX
  8
0
 10
336.080061
 20
571.907946
 42
0.034003
  0
VERTEX
  8
0
 10
351.039649
 20
584.960351
 42
0.019601
  0
VERTEX
  8
0
 10
359.492305
 20
594.103044
 42
0.026535
  0
VERTEX
  8
0
 10
366.335778
 20
603.031845
 42
0.022349
  0
VERTEX
  8
0
 10
373.000021
 20
613.751830
 42
0.009330
  0
VERTEX
  8
0
 10
381.054843
 20
628.750000
 42
-0.002592
  0
VERTEX
  8
0
 10
384.292301
 20
634.978073
 42
-0.004242
  0
VERTEX
  8
0
 10
387.107453
 20
640.217459
 42
-0.000792
  0
VERTEX
  8
0
 10
389.624035
 20
644.790142
 42
-0.288135
  0
VERTEX
  8
0
 10
389.947569
 20
644.969008
 42
-0.221924
  0
VERTEX
  8
0
 10
390.295419
 20
644.782210
 42
-0.000734
  0
VERTEX
  8
0
 10
393.275223
 20
640.777891
 42
-0.003785
  0
VERTEX
  8
0
 10
396.626427
 20
636.188452
 42
-0.002338
  0
SEQEND
  0
POLYLINE
  8
0
 66
1
 70
1
  0
VERTEX
  8
0
 10
88.734467
 20
335.982918
 42
0.069222
  0
VERTEX
  8
0
 10
79.852574
 20
332.359139
 42
0.068597
  0
VERTEX
  8
0
 10
72.266393
 20
326.439991
 42
0.056019
  0
VERTEX
  8
0
 10
65.425307
 20
317.612801
 42
0.027886
  0
VERTEX
  8
0
 10
58.737721
 20
305.124019
 42
0.032904
  0
VERTEX
  8
0
 10
55.336575
 20
296.357446
 42
0.065684
  0
VERTEX
  8
0
 10
54.057427
 20
289.042907
 42
0.063072
  0
VERTEX
  8
0
 10
54.696497
 20
281.455551
 42
0.028233
  0
VERTEX
  8
0
 10
57.338098
 20
271.777538
 42
0.014544
  0
VERTEX
  8
0
 10
60.337044
 20
263.612470
 42
0.034816
  0
VERTEX
  8
0
 10
63.146015
 20
257.807580
 42
0.047399
  0
VERTEX
  8
0
 10
66.042555
 20
253.707193
 42
0.076127
  0
VERTEX
  8
0
 10
69.285422
 20
250.924951
 42
0.076445
  0
VERTEX
  8
0
 10
72.204162
 20
249.675272
 42
0.092143
  0
VERTEX
  8
0
 10
75.175919
 20
249.472336
 42
0.089534
  0
VERTEX
  8
0
 10
78.087863
 20
250.354556
 42
0.067953
  0
VERTEX
  8
0
 10
80.830804
 20
252.265385
 42
0.070713
  0
VERTEX
  8
0
 10
83.243339
 20
255.215759
 42
0.058822
  0
VERTEX
  8
0
 10
84.922243
 20
258.908210
 42
0.040334
  0
VERTEX
  8
0
 10
86.118353
 20
264.048835
 42
0.013264
  0
VERTEX
  8
0
 10
87.059920
 20
271.762799
 42
-0.023887
  0
VERTEX
  8
0
 10
89.749084
 20
290.479938
 42
-0.110087
  0
VERTEX
  8
0
 10
94.085112
 20
300.463004
 42
-0.148696
  0
VERTEX
  8
0
 10
101.520483
 20
306.074705
 42
-0.056474
  0
VERTEX
  8
0
 10
114.284939
 20
309.177620
 42
-0.029544
  0
VERTEX
  8
0
 10
122.274876
 20
309.710274
 42
-0.018054
  0
VERTEX
  8
0
 10
131.723924
 20
309.439897
 42
-0.018117
  0
VERTEX
  8
0
 10
140.956478
 20
308.504788
 42
-0.034934
  0
VERTEX
  8
0
 10
148.224744
 20
306.978316
 42
-0.061369
  0
VERTEX
  8
0
 10
152.208540
 20
305.296651
 42
-0.039577
  0
VERTEX
  8
0
 10
156.345474
 20
302.459555
 42
-0.039643
  0
VERTEX
  8
0
 10
159.972519
 20
299.015773
 42
-0.062823
  0
VERTEX
  8
0
 10
162.411934
 20
295.500000
 42
-0.056257
  0
VERTEX
  8
0
 10
163.568708
 20
292.506122
 42
-0.042249
  0
VERTEX
  8
0
 10
164.173228
 20
289.023438
 42
-0.019380
  0
VERTEX
  8
0
 10
164.441321
 20
283.518654
 42
-0.002477
  0
VERTEX
  8
0
 10
164.500000
 20
271.674817
 42
0.001971
  0
VERTEX
  8
0
 10
164.547749
 20
259.562162
 42
0.020806
  0
VERTEX
  8
0
 10
164.792445
 20
254.621783
 42
0.055584
  0
VERTEX
  8
0
 10
165.340112
 20
251.949563
 42
0.157381
  0
VERTEX
  8
0
 10
166.441130
 20
250.424817
 42
0.069044
  0
VERTEX
  8
0
 10
168.408180
 20
249.362127
 42
0.154511
  0
VERTEX
  8
0
 10
170.086550
 20
249.276696
 42
0.081124
  0
VERTEX
  8
0
 10
172.182486
 20
250.206746
 42
0.010478
  0
VERTEX
  8
0
 10
176.243226
 20
252.987736
 42
0.057970
  0
VERTEX
  8
0
 10
183.634344
 20
259.699315
 42
0.038714
  0
VERTEX
  8
0
 10
190.471153
 20
268.875237
 42
0.039304
  0
VERTEX
  8
0
 10
195.606432
 20
278.634362
 42
0.079012
  0
VERTEX
  8
0
 10
197.738108
 20
287.048430
 42
0.042957
  0
VERTEX
  8
0
 10
197.761882
 20
292.253501
 42
0.066016
  0
VERTEX
  8
0
 10
196.810046
 20
296.651555
 42
0.059337
  0
VERTEX
  8
0
 10
194.651291
 20
300.970555
 42
0.028015
  0
VERTEX
  8
0
 10
190.933754
 20
305.983879
 42
0.041568
  0
VERTEX
  8
0
 10
183.215416
 20
313.830404
 42
0.034606
  0
VERTEX
  8
0
 10
173.837001
 20
320.832905
 42
0.034961
  0
VERTEX
  8
0
 10
163.705867
 20
326.397650
 42
0.045532
  0
VERTEX
  8
0
 10
153.739195
 20
329.938824
 42
0.025176
  0
VERTEX
  8
0
 10
137.410167
 20
333.249717
 42
0.014250
  0
VERTEX
  8
0
 10
117.367057
 20
335.691125
 42
0.012150
  0
VERTEX
  8
0
 10
98.478309
 20
336.985387
 42
0.073449
  0
SEQEND
  0
POLYLINE
  8
0
 66
1
 70
1
  0
VERTEX
  8
0
 10
126.000000
 20
333.396243
 42
-0.019723
  0
VERTEX
  8
0
 10
148.207265
 20
329.607974
 42
-0.047490
  0
VERTEX
  8
0
 10
164.106021
 20
324.632206
 42
-0.058926
  0
VERTEX
  8
0
 10
176.619085
 20
317.535137
 42
-0.049040
  0
VERTEX
  8
0
 10
188.006365
 20
307.310597
 42
-0.044744
  0
VERTEX
  8
0
 10
193.803834
 20
299.711517
 42
-0.095319
  0
VERTEX
  8
0
 10
196.481127
 20
292.854146
 42
-0.100157
  0
VERTEX
  8
0
 10
196.356328
 20
285.717633
 42
-0.053100
  0
VERTEX
  8
0
 10
193.535207
 20
277.295936
 42
-0.042597
  0
VERTEX
  8
0
 10
188.225380
 20
267.902188
 42
-0.037873
  0
VERTEX
  8
0
 10
181.208406
 20
259.141552
 42
-0.037231
  0
VERTEX
  8
0
 10
174.119345
 20
252.599000
 42
-0.200125
  0
VERTEX
  8
0
 10
169.172202
 20
251.198526
 42
-0.190464
  0
VERTEX
  8
0
 10
166.815539
 20
252.472490
 42
-0.130604
  0
VERTEX
  8
0
 10
165.508406
 20
255.255818
 42
-0.059266
  0
VERTEX
  8
0
 10
165.201604
 20
260.285201
 42
-0.012410
  0
VERTEX
  8
0
 10
165.928170
 20
269.094946
 42
0.009621
  0
VERTEX
  8
0
 10
166.356078
 20
273.952451
 42
0.009004
  0
VERTEX
  8
0
 10
166.608312
 20
278.931366
 42
0.009013
  0
VERTEX
  8
0
 10
166.672876
 20
283.357781
 42
0.030224
  0
VERTEX
  8
0
 10
166.487832
 20
286.251091
 42
0.075760
  0
VERTEX
  8
0
 10
164.224506
 20
294.256637
 42
0.080715
  0
VERTEX
  8
0
 10
159.709283
 20
301.031839
 42
0.079332
  0
VERTEX
  8
0
 10
153.205499
 20
306.116474
 42
0.069878
  0
VERTEX
  8
0
 10
145.156190
 20
309.198577
 42
0.032534
  0
VERTEX
  8
0
 10
141.864527
 20
309.733525
 42
0.009053
  0
VERTEX
  8
0
 10
136.652280
 20
310.140680
 42
0.008551
  0
VERTEX
  8
0
 10
130.385073
 20
310.408764
 42
0.006471
  0
VERTEX
  8
0
 10
123.500000
 20
310.496261
 42
0.003641
  0
VERTEX
  8
0
 10
114.017242
 20
310.424987
 42
0.023579
  0
VERTEX
  8
0
 10
109.246722
 20
310.129081
 42
0.043722
  0
VERTEX
  8
0
 10
105.898626
 20
309.462621
 42
0.036867
  0
VERTEX
  8
0
 10
102.512457
 20
308.197415
 42
0.071473
  0
VERTEX
  8
0
 10
95.340654
 20
303.560124
 42
0.100553
  0
VERTEX
  8
0
 10
90.721021
 20
297.529474
 42
0.070796
  0
VERTEX
  8
0
 10
87.840436
 20
288.595045
 42
0.020723
  0
VERTEX
  8
0
 10
85.978351
 20
274.251104
 42
-0.009837
  0
VERTEX
  8
0
 10
85.075517
 20
265.871522
 42
-0.032676
  0
VERTEX
  8
0
 10
84.016736
 20
260.434584
 42
-0.050042
  0
VERTEX
  8
0
 10
82.587943
 20
256.611585
 42
-0.072563
  0
VERTEX
  8
0
 10
80.548842
 20
253.647203
 42
-0.151531
  0
VERTEX
  8
0
 10
76.237405
 20
251.163652
 42
-0.158755
  0
VERTEX
  8
0
 10
71.366159
 20
251.618195
 42
-0.116873
  0
VERTEX
  8
0
 10
66.565420
 20
255.197144
 42
-0.063991
  0
VERTEX
  8
0
 10
62.585799
 20
261.410220
 42
-0.027309
  0
VERTEX
  8
0
 10
59.994561
 20
267.763325
 42
-0.014873
  0
VERTEX
  8
0
 10
57.480755
 20
275.806446
 42
-0.013833
  0
VERTEX
  8
0
 10
55.540344
 20
283.550472
 42
-0.056602
  0
VERTEX
  8
0
 10
55.034421
 20
288.361867
 42
-0.083714
  0
VERTEX
  8
0
 10
56.309830
 20
295.560437
 42
-0.024891
  0
VERTEX
  8
0
 10
60.593839
 20
305.918602
 42
-0.025682
  0
VERTEX
  8
0
 10
66.209642
 20
316.364263
 42
-0.044315
  0
VERTEX
  8
0
 10
72.044954
 20
324.313731
 42
-0.086260
  0
VERTEX
  8
0
 10
80.451210
 20
331.068746
 42
-0.084714
  0
VERTEX
  8
0
 10
90.696071
 20
334.644334
 42
-0.056585
  0
VERTEX
  8
0
 10
104.808415
 20
335.403202
 42
-0.017550
  0
SEQEND
  0
POLYLINE
  8
0
 66
1
 70
1
  0
VERTEX
  8
0
 10
677.616488
 20
332.902480
 42
0.017196
  0
VERTEX
  8
0
 10
663.934287
 20
330.981721
 42
0.018265
  0
VERTEX
  8
0
 10
650.691672
 20
328.153802
 42
0.019533
  0
VERTEX
  8
0
 10
638.876280
 20
324.679698
 42
0.035627
  0
VERTEX
  8
0
 10
629.606276
 20
320.801249
 42
0.046009
  0
VERTEX
  8
0
 10
623.874301
 20
317.212117
 42
0.034656
  0
VERTEX
  8
0
 10
618.285098
 20
312.303363
 42
0.035053
  0
VERTEX
  8
0
 10
613.513288
 20
306.760256
 42
0.052358
  0
VERTEX
  8
0
 10
610.250526
 20
301.268248
 42
0.024435
  0
VERTEX
  8
0
 10
608.917393
 20
297.955396
 42
0.032928
  0
VERTEX
  8
0
 10
608.062118
 20
294.839529
 42
0.028055
  0
VERTEX
  8
0
 10
607.538334
 20
291.276661
 42
0.012201
  0
VERTEX
  8
0
 10
607.225155
 20
286.500000
 42
0.029091
  0
VERTEX
  8
0
 10
607.344849
 20
279.499465
 42
0.043787
  0
VERTEX
  8
0
 10
608.333543
 20
273.479408
 42
0.045034
  0
VERTEX
  8
0
 10
610.327483
 20
267.848102
 42
0.033208
  0
VERTEX
  8
0
 10
613.481207
 20
262.029769
 42
0.039545
  0
VERTEX
  8
0
 10
618.873236
 20
254.820068
 42
0.043460
  0
VERTEX
  8
0
 10
625.179111
 20
248.793721
 42
0.046978
  0
VERTEX
  8
0
 10
631.090925
 20
244.903705
 42
0.249888
  0
VERTEX
  8
0
 10
634.831603
 20
244.909877
 42
0.164491
  0
VERTEX
  8
0
 10
636.544082
 20
246.735841
 42
0.066163
  0
VERTEX
  8
0
 10
637.552016
 20
250.051187
 42
0.026359
  0
VERTEX
  8
0
 10
638.225518
 20
256.132333
 42
0.003049
  0
VERTEX
  8
0
 10
638.932211
 20
269.842555
 42
-0.008316
  0
VERTEX
  8
0
 10
639.776206
 20
283.430909
 42
-0.042616
  0
VERTEX
  8
0
 10
641.007688
 20
290.879724
 42
-0.076115
  0
VERTEX
  8
0
 10
643.100369
 20
295.816150
 42
-0.074479
  0
VERTEX
  8
0
 10
646.586568
 20
299.941864
 42
-0.071107
  0
VERTEX
  8
0
 10
650.441021
 20
302.459248
 42
-0.028721
  0
VERTEX
  8
0
 10
656.290223
 20
304.789786
 42
-0.025976
  0
VERTEX
  8
0
 10
663.382074
 20
306.750922
 42
-0.020862
  0
VERTEX
  8
0
 10
671.177478
 20
308.138323
 42
-0.064452
  0
VERTEX
  8
0
 10
684.861187
 20
308.216166
 42
-0.076581
  0
VERTEX
  8
0
 10
697.279405
 20
304.700315
 42
-0.084216
  0
VERTEX
  8
0
 10
707.138743
 20
298.001413
 42
-0.102907
  0
VERTEX
  8
0
 10
713.429045
 20
288.824062
 42
-0.040753
  0
VERTEX
  8
0
 10
715.019857
 20
283.930688
 42
-0.008538
  0
VERTEX
  8
0
 10
716.950434
 20
275.123097
 42
-0.008512
  0
VERTEX
  8
0
 10
718.579262
 20
266.256800
 42
-0.041189
  0
VERTEX
  8
0
 10
719.000000
 20
261.158016
 42
0.063458
  0
VERTEX
  8
0
 10
719.682659
 20
255.800835
 42
0.078941
  0
VERTEX
  8
0
 10
721.686328
 20
251.203964
 42
0.095340
  0
VERTEX
  8
0
 10
724.630709
 20
248.098056
 42
0.156762
  0
VERTEX
  8
0
 10
728.046954
 20
247.000000
 42
0.158883
  0
VERTEX
  8
0
 10
730.786465
 20
247.893066
 42
0.038695
  0
VERTEX
  8
0
 10
734.446196
 20
251.023562
 42
0.037864
  0
VERTEX
  8
0
 10
738.080798
 20
255.250980
 42
0.040698
  0
VERTEX
  8
0
 10
740.939517
 20
259.881444
 42
0.044481
  0
VERTEX
  8
0
 10
743.104646
 20
265.257846
 42
0.018659
  0
VERTEX
  8
0
 10
745.086655
 20
272.810980
 42
0.018766
  0
VERTEX
  8
0
 10
746.528062
 20
280.652735
 42
0.035811
  0
VERTEX
  8
0
 10
746.992994
 20
287.039901
 42
0.063979
  0
VERTEX
  8
0
 10
745.433670
 20
299.279901
 42
0.059365
  0
VERTEX
  8
0
 10
740.821087
 20
311.064096
 42
0.061009
  0
VERTEX
  8
0
 10
733.730086
 20
321.133530
 42
0.076494
  0
VERTEX
  8
0
 10
724.880487
 20
328.329375
 42
0.069753
  0
VERTEX
  8
0
 10
716.751825
 20
331.677567
 42
0.038766
  0
VERTEX
  8
0
 10
706.175043
 20
333.536168
 42
0.031846
  0
VERTEX
  8
0
 10
693.181809
 20
333.962311
 42
0.018552
  0
SEQEND
  0
POLYLINE
  8
0
 66
1
 70
1
  0
VERTEX
  8
0
 10
716.519617
 20
330.459971
 42
-0.108338
  0
VERTEX
  8
0
 10
728.630938
 20
324.085586
 42
-0.081600
  0
VERTEX
  8
0
 10
738.440247
 20
312.618627
 42
-0.077661
  0
VERTEX
  8
0
 10
744.436697
 20
298.022160
 42
-0.082747
  0
VERTEX
  8
0
 10
745.511666
 20
282.616795
 42
-0.025931
  0
VERTEX
  8
0
 10
744.632468
 20
276.691419
 42
-0.018036
  0
VERTEX
  8
0
 10
743.055539
 20
270.111526
 42
-0.018214
  0
VERTEX
  8
0
 10
741.053887
 20
263.813261
 42
-0.031621
  0
VERTEX
  8
0
 10
738.880562
 20
258.776559
 42
-0.046215
  0
VERTEX
  8
0
 10
736.601149
 20
255.164533
 42
-0.033095
  0
VERTEX
  8
0
 10
733.444682
 20
251.576343
 42
-0.030756
  0
VERTEX
  8
0
 10
730.225575
 20
248.743488
 42
-0.166557
  0
VERTEX
  8
0
 10
728.055560
 20
248.000000
 42
-0.174694
  0
VERTEX
  8
0
 10
725.478811
 20
248.928624
 42
-0.085960
  0
VERTEX
  8
0
 10
723.184039
 20
251.611947
 42
-0.066073
  0
VERTEX
  8
0
 10
721.437745
 20
255.696102
 42
-0.043410
  0
VERTEX
  8
0
 10
720.494055
 20
260.729528
 42
0.015969
  0
VERTEX
  8
0
 10
719.404793
 20
269.028793
 42
0.013034
  0
VERTEX
  8
0
 10
717.726179
 20
277.827994
 42
0.012665
  0
VERTEX
  8
0
 10
715.804460
 20
285.684245
 42
0.046436
  0
VERTEX
  8
0
 10
714.011440
 20
290.476369
 42
0.074661
  0
VERTEX
  8
0
 10
708.806717
 20
298.085966
 42
0.069667
  0
VERTEX
  8
0
 10
701.484089
 20
304.040957
 42
0.065916
  0
VERTEX
  8
0
 10
692.419263
 20
308.002456
 42
0.055910
  0
VERTEX
  8
0
 10
682.109245
 20
309.758025
 42
0.039354
  0
VERTEX
  8
0
 10
671.543432
 20
309.528589
 42
0.035022
  0
VERTEX
  8
0
 10
660.713163
 20
307.665104
 42
0.036647
  0
VERTEX
  8
0
 10
651.264427
 20
304.600135
 42
0.091177
  0
VERTEX
  8
0
 10
645.165139
 20
300.701154
 42
0.051722
  0
VERTEX
  8
0
 10
643.108649
 20
298.341279
 42
0.031138
  0
VERTEX
  8
0
 10
641.162285
 20
295.175230
 42
0.030441
  0
VERTEX
  8
0
 10
639.561271
 20
291.666572
 42
0.038680
  0
VERTEX
  8
0
 10
638.543924
 20
288.256109
 42
0.034400
  0
VERTEX
  8
0
 10
638.236677
 20
286.134278
 42
0.002813
  0
VERTEX
  8
0
 10
637.847736
 20
280.539289
 42
0.003766
  0
VERTEX
  8
0
 10
637.471213
 20
273.852236
 42
0.002889
  0
VERTEX
  8
0
 10
637.157113
 20
266.541336
 42
-0.004293
  0
VERTEX
  8
0
 10
636.791775
 20
258.560361
 42
-0.009889
  0
VERTEX
  8
0
 10
636.346922
 20
252.568559
 42
-0.006888
  0
VERTEX
  8
0
 10
635.856809
 20
248.033811
 42
-0.167532
  0
VERTEX
  8
0
 10
635.308442
 20
246.908442
 42
-0.203160
  0
VERTEX
  8
0
 10
633.519260
 20
246.184396
 42
-0.096665
  0
VERTEX
  8
0
 10
631.043269
 20
246.709706
 42
-0.059340
  0
VERTEX
  8
0
 10
627.862675
 20
248.532203
 42
-0.023242
  0
VERTEX
  8
0
 10
623.940509
 20
251.738773
 42
-0.108153
  0
VERTEX
  8
0
 10
611.256653
 20
269.374674
 42
-0.133046
  0
VERTEX
  8
0
 10
608.367814
 20
289.368606
 42
-0.137429
  0
VERTEX
  8
0
 10
615.957399
 20
307.614318
 42
-0.118779
  0
VERTEX
  8
0
 10
632.302805
 20
320.484559
 42
-0.050825
  0
VERTEX
  8
0
 10
651.219533
 20
326.942754
 42
-0.027390
  0
VERTEX
  8
0
 10
675.510343
 20
331.179137
 42
-0.027205
  0
VERTEX
  8
0
 10
699.378540
 20
332.696901
 42
-0.069550
  0
SEQEND
  0
POLYLINE
  8
0
 66
1
 70
1
  0
VERTEX
  8
0
 10
529.500000
 20
772.635595
 42
0.025685
  0
VERTEX
  8
0
 10
521.354507
 20
770.164862
 42
0.043654
  0
VERTEX
  8
0
 10
514.896615
 20
767.178736
 42
0.044619
  0
VERTEX
  8
0
 10
509.151439
 20
763.167169
 42
0.028262
  0
VERTEX
  8
0
 10
503.199905
 20
757.564210
 42
0.054837
  0
VERTEX
  8
0
 10
494.028134
 20
745.486368
 42
0.059025
  0
VERTEX
  8
0
 10
487.968653
 20
731.990199
 42
0.061084
  0
VERTEX
  8
0
 10
485.371291
 20
717.882742
 42
0.066760
  0
VERTEX
  8
0
 10
486.390239
 20
704.000000
 42
0.035875
  0
VERTEX
  8
0
 10
488.860299
 20
695.355045
 42
0.037616
  0
VERTEX
  8
0
 10
492.510876
 20
687.293720
 42
0.038297
  0
VERTEX
  8
0
 10
497.256075
 20
680.002961
 42
0.040275
  0
VERTEX
  8
0
 10
502.985746
 20
673.652257
 42
0.043997
  0
VERTEX
  8
0
 10
512.384903
 20
666.231436
 42
0.056786
  0
VERTEX
  8
0
 10
522.197454
 20
661.284838
 42
0.057379
  0
VERTEX
  8
0
 10
532.787633
 20
658.706178
 42
0.046280
  0
VERTEX
  8
0
 10
544.500000
 20
658.334503
 42
0.028735
  0
VERTEX
  8
0
 10
552.570963
 20
659.293150
 42
0.037980
  0
VERTEX
  8
0
 10
559.739388
 20
661.135779
 42
0.037728
  0
VERTEX
  8
0
 10
566.583591
 20
664.053253
 42
0.027792
  0
VERTEX
  8
0
 10
573.680010
 20
668.248771
 42
0.045340
  0
VERTEX
  8
0
 10
581.858760
 20
674.864286
 42
0.056825
  0
VERTEX
  8
0
 10
588.038156
 20
682.404607
 42
0.051657
  0
VERTEX
  8
0
 10
592.768260
 20
691.721643
 42
0.029539
  0
VERTEX
  8
0
 10
596.590326
 20
703.757233
 42
0.029479
  0
VERTEX
  8
0
 10
598.656090
 20
714.528222
 42
0.060597
  0
VERTEX
  8
0
 10
598.737546
 20
723.102029
 42
0.085606
  0
VERTEX
  8
0
 10
596.928346
 20
729.338688
 42
0.157872
  0
VERTEX
  8
0
 10
593.303017
 20
733.105235
 42
0.058564
  0
VERTEX
  8
0
 10
591.868500
 20
733.668816
 42
0.033915
  0
VERTEX
  8
0
 10
590.046670
 20
734.018335
 42
0.030022
  0
VERTEX
  8
0
 10
587.930301
 20
734.149117
 42
0.022538
  0
VERTEX
  8
0
 10
585.598264
 20
734.047895
 42
-0.021272
  0
VERTEX
  8
0
 10
574.382550
 20
733.532630
 42
-0.035768
  0
VERTEX
  8
0
 10
564.982834
 20
734.174055
 42
-0.042613
  0
VERTEX
  8
0
 10
557.922385
 20
735.788625
 42
-0.171855
  0
VERTEX
  8
0
 10
554.457291
 20
738.424839
 42
-0.100939
  0
VERTEX
  8
0
 10
553.789168
 20
740.103234
 42
-0.025638
  0
VERTEX
  8
0
 10
553.417701
 20
743.026815
 42
-0.017638
  0
VERTEX
  8
0
 10
553.245008
 20
747.358684
 42
-0.005162
  0
VERTEX
  8
0
 10
553.283343
 20
754.023584
 42
0.009067
  0
VERTEX
  8
0
 10
553.263552
 20
763.638805
 42
0.061045
  0
VERTEX
  8
0
 10
552.589259
 20
768.350975
 42
0.121961
  0
VERTEX
  8
0
 10
550.986548
 20
771.237923
 42
0.086220
  0
VERTEX
  8
0
 10
548.020016
 20
773.489650
 42
0.072547
  0
VERTEX
  8
0
 10
544.899704
 20
774.566838
 42
0.058479
  0
VERTEX
  8
0
 10
541.357531
 20
774.817839
 42
0.038121
  0
VERTEX
  8
0
 10
536.636782
 20
774.237656
 42
0.011164
  0
SEQEND
  0
POLYLINE
  8
0
 66
1
 70
1
  0
VERTEX
  8
0
 10
546.451627
 20
772.584658
 42
-0.034631
  0
VERTEX
  8
0
 10
547.827653
 20
771.894294
 42
-0.030281
  0
VERTEX
  8
0
 10
549.161366
 20
770.992016
 42
-0.031491
  0
VERTEX
  8
0
 10
550.267642
 20
770.025069
 42
-0.074674
  0
VERTEX
  8
0
 10
550.919509
 20
769.150400
 42
-0.098288
  0
VERTEX
  8
0
 10
551.363962
 20
767.690098
 42
-0.008154
  0
VERTEX
  8
0
 10
551.695090
 20
763.719089
 42
-0.010207
  0
VERTEX
  8
0
 10
551.925018
 20
758.774977
 42
-0.006515
  0
VERTEX
  8
0
 10
552.000000
 20
753.020287
 42
0.003158
  0
VERTEX
  8
0
 10
552.055145
 20
744.290052
 42
0.031261
  0
VERTEX
  8
0
 10
552.330392
 20
740.633584
 42
0.077558
  0
VERTEX
  8
0
 10
552.988517
 20
738.447668
 42
0.084739
  0
VERTEX
  8
0
 10
554.268848
 20
736.640243
 42
0.112220
  0
VERTEX
  8
0
 10
557.913680
 20
734.345497
 42
0.044590
  0
VERTEX
  8
0
 10
563.676660
 20
732.878480
 42
0.035525
  0
VERTEX
  8
0
 10
571.237150
 20
732.202885
 42
0.019456
  0
VERTEX
  8
0
 10
580.541592
 20
732.396508
 42
-0.003643
  0
VERTEX
  8
0
 10
587.918242
 20
732.783603
 42
-0.042303
  0
VERTEX
  8
0
 10
590.805267
 20
732.669753
 42
-0.101808
  0
VERTEX
  8
0
 10
592.632801
 20
732.050126
 42
-0.063985
  0
VERTEX
  8
0
 10
594.424312
 20
730.666597
 42
-0.104502
  0
VERTEX
  8
0
 10
596.470643
 20
727.523729
 42
-0.066231
  0
VERTEX
  8
0
 10
597.499159
 20
723.258728
 42
-0.048027
  0
VERTEX
  8
0
 10
597.546609
 20
717.600564
 42
-0.020827
  0
VERTEX
  8
0
 10
596.575560
 20
710.128999
 42
-0.031681
  0
VERTEX
  8
0
 10
593.648383
 20
697.861380
 42
-0.045001
  0
VERTEX
  8
0
 10
589.413271
 20
687.485040
 42
-0.049920
  0
VERTEX
  8
0
 10
583.817571
 20
678.892024
 42
-0.056292
  0
VERTEX
  8
0
 10
576.825984
 20
671.956682
 42
-0.037426
  0
VERTEX
  8
0
 10
568.633715
 20
666.423017
 42
-0.045887
  0
VERTEX
  8
0
 10
560.232532
 20
662.594959
 42
-0.046019
  0
VERTEX
  8
0
 10
551.294484
 20
660.371000
 42
-0.037992
  0
VERTEX
  8
0
 10
541.500000
 20
659.625701
 42
-0.044614
  0
VERTEX
  8
0
 10
530.524742
 20
660.606962
 42
-0.051186
  0
VERTEX
  8
0
 10
520.414630
 20
663.520973
 42
-0.052008
  0
VERTEX
  8
0
 10
511.241738
 20
668.376361
 42
-0.048701
  0
VERTEX
  8
0
 10
503.045415
 20
675.114585
 42
-0.095958
  0
VERTEX
  8
0
 10
491.458893
 20
692.268062
 42
-0.093500
  0
VERTEX
  8
0
 10
486.976980
 20
712.666879
 42
-0.090607
  0
VERTEX
  8
0
 10
490.195766
 20
733.835092
 42
-0.083608
  0
VERTEX
  8
0
 10
500.717256
 20
753.165671
 42
-0.035969
  0
VERTEX
  8
0
 10
504.989169
 20
757.870728
 42
-0.024788
  0
VERTEX
  8
0
 10
510.440846
 20
762.576923
 42
-0.025056
  0
VERTEX
  8
0
 10
516.059859
 20
766.524882
 42
-0.055092
  0
VERTEX
  8
0
 10
520.776488
 20
768.816665
 42
-0.021760
  0
VERTEX
  8
0
 10
524.672153
 20
770.016247
 42
-0.004265
  0
VERTEX
  8
0
 10
531.782299
 20
771.806565
 42
-0.003242
  0
VERTEX
  8
0
 10
538.989878
 20
773.506769
 42
-0.039899
  0
VERTEX
  8
0
 10
541.782119
 20
773.915694
 42
-0.070952
  0
VERTEX
  8
0
 10
542.485924
 20
773.862098
 42
-0.015004
  0
VERTEX
  8
0
 10
543.682661
 20
773.559479
 42
-0.015427
  0
VERTEX
  8
0
 10
545.060738
 20
773.120268
 42
-0.014099
  0
SEQEND
  0
POLYLINE
  8
0
 66
1
 70
1
  0
VERTEX
  8
0
 10
239.634076
 20
730.413542
 42
0.037343
  0
VERTEX
  8
0
 10
233.339230
 20
728.382323
 42
0.034285
  0
VERTEX
  8
0
 10
227.226267
 20
725.389160
 42
0.034793
  0
VERTEX
  8
0
 10
221.674050
 20
721.644004
 42
0.041860
  0
VERTEX
  8
0
 10
217.054092
 20
717.368807
 42
0.026940
  0
VERTEX
  8
0
 10
213.359216
 20
712.860838
 42
0.036340
  0
VERTEX
  8
0
 10
210.558534
 20
708.394494
 42
0.035257
  0
VERTEX
  8
0
 10
208.374420
 20
703.463292
 42
0.023294
  0
VERTEX
  8
0
 10
206.542857
 20
697.539901
 42
0.112329
  0
VERTEX
  8
0
 10
205.977992
 20
678.451595
 42
0.097679
  0
VERTEX
  8
0
 10
213.577368
 20
659.904858
 42
0.096497
  0
VERTEX
  8
0
 10
227.755401
 20
645.458171
 42
0.106518
  0
VERTEX
  8
0
 10
245.848116
 20
638.017899
 42
0.069330
  0
VERTEX
  8
0
 10
256.644061
 20
637.591504
 42
0.057338
  0
VERTEX
  8
0
 10
267.903694
 20
640.032803
 42
0.059336
  0
VERTEX
  8
0
 10
277.891673
 20
644.815703
 42
0.091226
  0
VERTEX
  8
0
 10
284.905498
 20
651.311602
 42
0.039447
  0
VERTEX
  8
0
 10
290.859310
 20
660.746867
 42
0.037327
  0
VERTEX
  8
0
 10
295.383748
 20
671.172615
 42
0.037802
  0
VERTEX
  8
0
 10
298.259168
 20
682.014104
 42
0.043219
  0
VERTEX
  8
0
 10
299.300950
 20
692.687050
 42
0.008101
  0
VERTEX
  8
0
 10
299.276549
 20
697.303110
 42
0.039939
  0
VERTEX
  8
0
 10
299.013512
 20
699.890243
 42
0.071555
  0
VERTEX
  8
0
 10
298.433478
 20
701.617254
 42
0.079796
  0
VERTEX
  8
0
 10
297.404690
 20
703.039755
 42
0.054853
  0
VERTEX
  8
0
 10
296.102298
 20
704.083934
 42
0.108968
  0
VERTEX
  8
0
 10
294.865442
 20
704.534196
 42
0.068014
  0
VERTEX
  8
0
 10
293.188881
 20
704.527873
 42
0.011958
  0
VERTEX
  8
0
 10
290.072066
 20
704.013667
 42
-0.028459
  0
VERTEX
  8
0
 10
283.898119
 20
703.203254
 42
-0.024099
  0
VERTEX
  8
0
 10
277.317183
 20
703.035895
 42
-0.023675
  0
VERTEX
  8
0
 10
271.457674
 20
703.447350
 42
-0.090194
  0
VERTEX
  8
0
 10
267.967267
 20
704.516927
 42
-0.087531
  0
VERTEX
  8
0
 10
264.935527
 20
706.830608
 42
-0.101434
  0
VERTEX
  8
0
 10
263.064997
 20
709.936057
 42
-0.075360
  0
VERTEX
  8
0
 10
262.234872
 20
714.263526
 42
-0.029021
  0
VERTEX
  8
0
 10
262.351010
 20
720.395894
 42
0.023462
  0
VERTEX
  8
0
 10
262.555438
 20
727.197349
 42
0.173144
  0
VERTEX
  8
0
 10
261.430355
 20
730.188612
 42
0.192295
  0
VERTEX
  8
0
 10
258.734735
 20
731.620198
 42
0.030006
  0
VERTEX
  8
0
 10
252.595012
 20
731.916687
 42
0.015562
  0
VERTEX
  8
0
 10
249.451024
 20
731.781842
 42
0.010369
  0
VERTEX
  8
0
 10
245.861045
 20
731.440772
 42
0.010444
  0
VERTEX
  8
0
 10
242.388949
 20
730.964407
 42
0.020064
  0
SEQEND
  0
POLYLINE
  8
0
 66
1
 70
1
  0
VERTEX
  8
0
 10
257.811072
 20
730.387786
 42
-0.030580
  0
VERTEX
  8
0
 10
259.013704
 20
730.069743
 42
-0.036518
  0
VERTEX
  8
0
 10
260.096670
 20
729.621185
 42
-0.039587
  0
VERTEX
  8
0
 10
260.928339
 20
729.117195
 42
-0.149174
  0
VERTEX
  8
0
 10
261.293304
 20
728.637786
 42
-0.099448
  0
VERTEX
  8
0
 10
261.412431
 20
727.881701
 42
-0.008250
  0
VERTEX
  8
0
 10
261.295651
 20
725.886696
 42
-0.010761
  0
VERTEX
  8
0
 10
261.063905
 20
723.492398
 42
-0.008092
  0
VERTEX
  8
0
 10
260.709878
 20
720.870117
 42
0.012338
  0
VERTEX
  8
0
 10
260.218371
 20
716.980732
 42
0.050652
  0
VERTEX
  8
0
 10
260.218817
 20
714.607318
 42
0.062269
  0
VERTEX
  8
0
 10
260.695946
 20
712.530139
 42
0.025175
  0
VERTEX
  8
0
 10
261.831404
 20
709.848272
 42
0.091799
  0
VERTEX
  8
0
 10
265.352334
 20
705.058837
 42
0.112895
  0
VERTEX
  8
0
 10
270.130090
 20
702.266229
 42
0.081332
  0
VERTEX
  8
0
 10
276.881397
 20
701.302419
 42
0.028992
  0
VERTEX
  8
0
 10
286.620855
 20
702.068288
 42
-0.004779
  0
VERTEX
  8
0
 10
291.963740
 20
702.749880
 42
-0.032457
  0
VERTEX
  8
0
 10
294.620497
 20
702.889315
 42
-0.074815
  0
VERTEX
  8
0
 10
296.154484
 20
702.638913
 42
-0.175645
  0
VERTEX
  8
0
 10
297.059326
 20
701.938249
 42
-0.134151
  0
VERTEX
  8
0
 10
297.922184
 20
699.123363
 42
-0.014767
  0
VERTEX
  8
0
 10
297.930344
 20
692.311787
 42
-0.019186
  0
VERTEX
  8
0
 10
297.444438
 20
685.037890
 42
-0.033122
  0
VERTEX
  8
0
 10
296.411028
 20
679.063889
 42
-0.035046
  0
VERTEX
  8
0
 10
294.256133
 20
672.280071
 42
-0.016324
  0
VERTEX
  8
0
 10
290.572387
 20
663.810987
 42
-0.015949
  0
VERTEX
  8
0
 10
286.452914
 20
655.797143
 42
-0.047526
  0
VERTEX
  8
0
 10
282.963765
 20
650.715574
 42
-0.078774
  0
VERTEX
  8
0
 10
277.667507
 20
646.099381
 42
-0.047035
  0
VERTEX
  8
0
 10
270.183569
 20
642.338433
 42
-0.044600
  0
VERTEX
  8
0
 10
261.581921
 20
639.841393
 42
-0.048385
  0
VERTEX
  8
0
 10
252.907593
 20
639.000000
 42
-0.073278
  0
VERTEX
  8
0
 10
240.185074
 20
640.874616
 42
-0.074901
  0
VERTEX
  8
0
 10
228.647782
 20
646.335905
 42
-0.071837
  0
VERTEX
  8
0
 10
218.852145
 20
655.191852
 42
-0.059802
  0
VERTEX
  8
0
 10
211.235988
 20
667.000000
 42
-0.014767
  0
VERTEX
  8
0
 10
209.197170
 20
671.518646
 42
-0.040423
  0
VERTEX
  8
0
 10
208.117699
 20
674.848182
 42
-0.036987
  0
VERTEX
  8
0
 10
207.537679
 20
678.470530
 42
-0.010769
  0
VERTEX
  8
0
 10
207.180056
 20
684.112942
 42
-0.052761
  0
VERTEX
  8
0
 10
207.968476
 20
696.480071
 42
-0.068728
  0
VERTEX
  8
0
 10
211.385757
 20
707.284476
 42
-0.072705
  0
VERTEX
  8
0
 10
217.402718
 20
716.295804
 42
-0.069059
  0
VERTEX
  8
0
 10
225.842926
 20
723.390737
 42
-0.053324
  0
VERTEX
  8
0
 10
232.959916
 20
726.868860
 42
-0.033149
  0
VERTEX
  8
0
 10
241.895705
 20
729.455343
 42
-0.033403
  0
VERTEX
  8
0
 10
250.818494
 20
730.791991
 42
-0.069941
  0
SEQEND
  0
ENDSEC
  0
EOF
