  0
SECTION
  2
HEADER
  9
$ACADVER
  1
AC1006
  9
$EXTMIN
 10
0.000000
 20
0.000000
 30
0.000000
  9
$EXTMAX
 10
2480.000000
 20
3508.000000
 30
0.000000
  0
ENDSEC
  0
SECTION
  2
ENTITIES
  0
POLYLINE
  8
0
 66
1
 70
1
  0
VERTEX
  8
0
 10
1184.500000
 20
3299.478462
 42
0.019092
  0
VERTEX
  8
0
 10
1175.569898
 20
3297.493587
 42
0.015019
  0
VERTEX
  8
0
 10
1166.062853
 20
3294.688363
 42
0.015055
  0
VERTEX
  8
0
 10
1156.773117
 20
3291.328169
 42
0.019590
  0
VERTEX
  8
0
 10
1148.500000
 20
3287.669757
 42
0.027765
  0
VERTEX
  8
0
 10
1133.814360
 20
3279.435100
 42
0.017768
  0
VERTEX
  8
0
 10
1117.690629
 20
3268.354730
 42
0.017176
  0
VERTEX
  8
0
 10
1101.615769
 20
3255.567735
 42
0.019096
  0
VERTEX
  8
0
 10
1087.034895
 20
3242.133134
 42
0.013036
  0
VERTEX
  8
0
 10
1078.323168
 20
3233.004495
 42
0.022813
  0
VERTEX
  8
0
 10
1071.670381
 20
3224.949463
 42
0.024320
  0
VERTEX
  8
0
 10
1066.070530
 20
3216.695232
 42
0.017566
  0
VERTEX
  8
0
 10
1060.617632
 20
3207.000000
 42
0.046311
  0
VERTEX
  8
0
 10
1050.825721
 20
3182.811481
 42
0.048760
  0
VERTEX
  8
0
 10
1045.864815
 20
3157.648212
 42
0.042095
  0
VERTEX
  8
0
 10
1045.490185
 20
3128.986711
 42
0.022910
  0
VERTEX
  8
0
 10
1049.598187
 20
3094.000000
 42
0.012818
  0
VERTEX
  8
0
 10
1051.225509
 20
3085.461412
 42
0.002821
  0
VERTEX
  8
0
 10
1054.476669
 20
3070.895359
 42
0.002933
  0
VERTEX
  8
0
 10
1058.430251
 20
3054.094047
 42
0.002817
  0
VERTEX
  8
0
 10
1062.633060
 20
3037.111859
 42
-0.002103
  0
VERTEX
  8
0
 10
1066.596839
 20
3021.192976
 42
-0.003448
  0
VERTEX
  8
0
 10
1069.803604
 20
3007.676027
 42
-0.000535
  0
VERTEX
  8
0
 10
1072.540109
 20
2995.717982
 42
-0.277715
  0
VERTEX
  8
0
 10
1072.311859
 20
2995.024290
 42
-0.003082
  0
VERTEX
  8
0
 10
1071.674361
 20
2994.481887
 42
-0.000016
  0
VERTEX
  8
0
 10
1065.374760
 20
2989.188927
 42
-0.000072
  0
VERTEX
  8
0
 10
1058.198992
 20
2983.161958
 42
-0.000046
  0
VERTEX
  8
0
 10
1049.836260
 20
2976.141399
 42
0.009504
  0
VERTEX
  8
0
 10
1033.541891
 20
2961.928198
 42
0.010586
  0
VERTEX
  8
0
 10
1018.386715
 20
2947.596925
 42
0.008534
  0
VERTEX
  8
0
 10
1005.927643
 20
2934.878402
 42
0.078903
  0
VERTEX
  8
0
 10
1001.585504
 20
2928.538943
 42
0.052982
  0
VERTEX
  8
0
 10
1000.684450
 20
2925.968843
 42
0.075557
  0
VERTEX
  8
0
 10
1000.490286
 20
2923.562333
 42
0.080686
  0
VERTEX
  8
0
 10
1001.017093
 20
2921.325921
 42
0.070694
  0
VERTEX
  8
0
 10
1002.239304
 20
2919.256663
 42
0.149157
  0
VERTEX
  8
0
 10
1005.787476
 20
2916.829251
 42
0.001616
  0
VERTEX
  8
0
 10
1034.230158
 20
2908.011143
 42
0.005646
  0
VERTEX
  8
0
 10
1063.171237
 20
2899.497213
 42
0.008114
  0
VERTEX
  8
0
 10
1089.000000
 20
2892.665164
 42
0.000124
  0
VERTEX
  8
0
 10
1096.797851
 20
2890.739410
 42
0.000032
  0
VERTEX
  8
0
 10
1109.406771
 20
2887.629696
 42
0.000032
  0
VERTEX
  8
0
 10
1123.794879
 20
2884.083150
 42
0.000033
  0
VERTEX
  8
0
 10
1138.108158
 20
2880.557037
 42
-0.005494
  0
VERTEX
  8
0
 10
1165.509663
 20
2873.488301
 42
-0.004314
  0
VERTEX
  8
0
 10
1195.060612
 20
2865.243625
 42
-0.001800
  0
VERTEX
  8
0
 10
1222.965569
 20
2857.089152
 42
-0.072308
  0
VERTEX
  8
0
 10
1228.734123
 20
2854.427705
 42
-0.115711
  0
VERTEX
  8
0
 10
1230.951943
 20
2852.111791
 42
-0.151254
  0
VERTEX
  8
0
 10
1231.625585
 20
2849.274861
 42
-0.081817
  0
VERTEX
  8
0
 10
1230.677642
 20
2845.232940
 42
-0.017568
  0
VERTEX
  8
0
 10
1227.674886
 20
2838.664216
 42
-0.037307
  0
VERTEX
  8
0
 10
1219.680548
 20
2825.281508
 42
-0.029765
  0
VERTEX
  8
0
 10
1209.205040
 20
2812.128671
 42
-0.030362
  0
VERTEX
  8
0
 10
1197.580277
 20
2800.674445
 42
-0.046961
  0
VERTEX
  8
0
 10
1186.143093
 20
2792.449613
 42
-0.050016
  0
VERTEX
  8
0
 10
1171.433245
 20
2785.709595
 42
-0.032736
  0
VERTEX
  8
0
 10
1153.413292
 20
2780.833743
 42
-0.018063
  0
VERTEX
  8
0
 10
1126.277247
 20
2776.379852
 42
-0.003510
  0
VERTEX
  8
0
 10
1077.000000
 20
2770.461112
 42
0.010881
  0
VERTEX
  8
0
 10
998.336671
 20
2759.834339
 42
0.012378
  0
VERTEX
  8
0
 10
923.540155
 20
2746.162171
 42
0.012759
  0
VERTEX
  8
0
 10
851.634406
 20
2729.244924
 42
0.013280
  0
VERTEX
  8
0
 10
781.647794
 20
2708.881540
 42
0.014828
  0
VERTEX
  8
0
 10
743.395177
 20
2695.377847
 42
0.013969
  0
VERTEX
  8
0
 10
705.231051
 20
2679.379464
 42
0.013418
  0
VERTEX
  8
0
 10
666.552576
 20
2660.613613
 42
0.011407
  0
VERTEX
  8
0
 10
626.753289
 20
2638.800579
 42
0.036089
  0
VERTEX
  8
0
 10
601.515515
 20
2621.670300
 42
0.047770
  0
VERTEX
  8
0
 10
581.471048
 20
2602.468140
 42
0.049733
  0
VERTEX
  8
0
 10
566.037948
 20
2580.480847
 42
0.044445
  0
VERTEX
  8
0
 10
554.566177
 20
2555.051804
 42
0.008261
  0
VERTEX
  8
0
 10
550.566889
 20
2542.920211
 42
0.004840
  0
VERTEX
  8
0
 10
546.160760
 20
2528.274752
 42
0.004701
  0
VERTEX
  8
0
 10
541.820538
 20
2512.782763
 42
0.005500
  0
VERTEX
  8
0
 10
538.002494
 20
2498.000000
 42
-0.004570
  0
VERTEX
  8
0
 10
534.706100
 20
2485.138142
 42
-0.023920
  0
VERTEX
  8
0
 10
532.492614
 20
2478.176894
 42
-0.032488
  0
VERTEX
  8
0
 10
529.927483
 20
2472.442815
 42
-0.013281
  0
VERTEX
  8
0
 10
525.743153
 20
2465.000000
 42
-0.012999
  0
VERTEX
  8
0
 10
513.312803
 20
2445.379528
 42
-0.008365
  0
VERTEX
  8
0
 10
497.940469
 20
2423.264849
 42
-0.007875
  0
VERTEX
  8
0
 10
480.589321
 20
2399.956606
 42
-0.007369
  0
VERTEX
  8
0
 10
462.132044
 20
2376.678983
 42
0.009682
  0
VERTEX
  8
0
 10
424.002065
 20
2328.131355
 42
0.021593
  0
VERTEX
  8
0
 10
397.364113
 20
2289.464255
 42
0.027265
  0
VERTEX
  8
0
 10
378.354196
 20
2255.120783
 42
0.031503
  0
VERTEX
  8
0
 10
364.202341
 20
2220.500000
 42
0.026895
  0
VERTEX
  8
0
 10
355.847084
 20
2190.459707
 42
0.022126
  0
VERTEX
  8
0
 10
350.109170
 20
2157.673677
 42
0.019504
  0
VERTEX
  8
0
 10
346.762733
 20
2120.595417
 42
0.012604
  0
VERTEX
  8
0
 10
345.650607
 20
2077.500000
 42
0.020034
  0
VERTEX
  8
0
 10
347.807788
 20
2022.871950
 42
0.030155
  0
VERTEX
  8
0
 10
354.448689
 20
1975.686123
 42
0.033287
  0
VERTEX
  8
0
 10
366.007749
 20
1933.371186
 42
0.034532
  0
VERTEX
  8
0
 10
382.970751
 20
1893.500000
 42
0.023877
  0
VERTEX
  8
0
 10
399.310711
 20
1864.897288
 42
0.021035
  0
VERTEX
  8
0
 10
418.964799
 20
1836.706875
 42
0.017305
  0
VERTEX
  8
0
 10
444.352835
 20
1805.663026
 42
0.008584
  0
VERTEX
  8
0
 10
478.555191
 20
1768.000000
 42
-0.003671
  0
VERTEX
  8
0
 10
496.947110
 20
1748.142657
 42
-0.007329
  0
VERTEX
  8
0
 10
511.147059
 20
1732.118116
 42
-0.007202
  0
VERTEX
  8
0
 10
521.609401
 20
1719.596523
 42
-0.056717
  0
VERTEX
  8
0
 10
525.678447
 20
1713.224795
 42
-0.070014
  0
VERTEX
  8
0
 10
528.272513
 20
1705.269675
 42
-0.054816
  0
VERTEX
  8
0
 10
528.871040
 20
1696.199602
 42
-0.051759
  0
VERTEX
  8
0
 10
527.462416
 20
1686.689888
 42
-0.048276
  0
VERTEX
  8
0
 10
524.115982
 20
1677.435009
 42
-0.044822
  0
VERTEX
  8
0
 10
520.423073
 20
1671.175648
 42
-0.004356
  0
VERTEX
  8
0
 10
510.028808
 20
1656.959028
 42
-0.004789
  0
VERTEX
  8
0
 10
495.997490
 20
1638.486667
 42
-0.002287
  0
VERTEX
  8
0
 10
477.627498
 20
1615.000000
 42
0.000089
  0
VERTEX
  8
0
 10
472.063266
 20
1607.950039
 42
0.000073
  0
VERTEX
  8
0
 10
466.115691
 20
1600.409375
 42
0.000073
  0
VERTEX
  8
0
 10
460.647076
 20
1593.471803
 42
0.000193
  0
VERTEX
  8
0
 10
456.732295
 20
1588.500000
 42
0.042534
  0
VERTEX
  8
0
 10
414.261522
 20
1523.902355
 42
0.024143
  0
VERTEX
  8
0
 10
373.674877
 20
1439.518306
 42
0.023031
  0
VERTEX
  8
0
 10
338.823838
 20
1345.210663
 42
0.024494
  0
VERTEX
  8
0
 10
313.602882
 20
1250.000000
 42
0.005008
  0
VERTEX
  8
0
 10
309.580819
 20
1230.153990
 42
0.004889
  0
VERTEX
  8
0
 10
305.923102
 20
1210.071779
 42
0.003520
  0
VERTEX
  8
0
 10
301.771037
 20
1184.879219
 42
0.001136
  0
VERTEX
  8
0
 10
295.967454
 20
1147.500000
 42
-0.001002
  0
VERTEX
  8
0
 10
292.810752
 20
1127.132540
 42
-0.001636
  0
VERTEX
  8
0
 10
290.042847
 20
1109.875773
 42
-0.000178
  0
VERTEX
  8
0
 10
287.516555
 20
1094.482784
 42
-0.161455
  0
VERTEX
  8
0
 10
287.180922
 20
1093.843057
 42
-0.085179
  0
VERTEX
  8
0
 10
286.568399
 20
1093.426224
 42
-0.000214
  0
VERTEX
  8
0
 10
277.006271
 20
1089.073716
 42
-0.001350
  0
VERTEX
  8
0
 10
266.200052
 20
1084.195663
 42
-0.000840
  0
VERTEX
  8
0
 10
253.500000
 20
1078.529520
 42
0.002670
  0
VERTEX
  8
0
 10
240.011815
 20
1072.452457
 42
0.002781
  0
VERTEX
  8
0
 10
226.772316
 20
1066.312942
 42
0.002674
  0
VERTEX
  8
0
 10
215.384100
 20
1060.880175
 42
0.012171
  0
VERTEX
  8
0
 10
208.852566
 20
1057.522766
 42
0.013732
  0
VERTEX
  8
0
 10
187.184908
 20
1044.925775
 42
0.021194
  0
VERTEX
  8
0
 10
169.262488
 20
1032.757492
 42
0.024260
  0
VERTEX
  8
0
 10
154.467028
 20
1020.612158
 42
0.031947
  0
VERTEX
  8
0
 10
142.302405
 20
1008.093789
 42
0.050365
  0
VERTEX
  8
0
 10
123.894307
 20
981.561321
 42
0.050410
  0
VERTEX
  8
0
 10
111.169015
 20
951.891754
 42
0.044266
  0
VERTEX
  8
0
 10
103.508211
 20
916.971987
 42
0.026367
  0
VERTEX
  8
0
 10
100.326795
 20
874.500000
 42
0.009874
  0
VERTEX
  8
0
 10
100.284246
 20
855.978677
 42
0.013931
  0
VERTEX
  8
0
 10
101.031848
 20
839.490879
 42
0.015153
  0
VERTEX
  8
0
 10
102.614725
 20
824.248465
 42
0.016303
  0
VERTEX
  8
0
 10
105.091500
 20
809.500000
 42
0.026313
  0
VERTEX
  8
0
 10
109.333561
 20
792.996750
 42
0.022855
  0
VERTEX
  8
0
 10
115.456686
 20
776.217794
 42
0.022859
  0
VERTEX
  8
0
 10
123.084449
 20
760.070904
 42
0.026349
  0
VERTEX
  8
0
 10
131.835867
 20
745.461990
 42
0.026532
  0
VERTEX
  8
0
 10
143.203899
 20
730.366153
 42
0.015935
  0
VERTEX
  8
0
 10
158.174349
 20
713.650459
 42
0.015451
  0
VERTEX
  8
0
 10
174.981967
 20
697.101180
 42
0.017895
  0
VERTEX
  8
0
 10
192.000000
 20
682.445022
 42
0.012595
  0
VERTEX
  8
0
 10
207.002690
 20
671.040067
 42
0.054825
  0
VERTEX
  8
0
 10
216.703087
 20
665.546830
 42
0.087818
  0
VERTEX
  8
0
 10
224.934442
 20
663.614844
 42
0.069475
  0
VERTEX
  8
0
 10
234.060813
 20
664.377530
 42
0.030955
  0
VERTEX
  8
0
 10
240.725692
 20
666.322888
 42
0.041679
  0
VERTEX
  8
0
 10
246.438677
 20
668.937395
 42
0.026274
  0
VERTEX
  8
0
 10
253.330590
 20
673.306790
 42
0.005380
  0
VERTEX
  8
0
 10
265.000000
 20
681.785362
 42
0.006406
  0
VERTEX
  8
0
 10
291.934953
 20
702.342424
 42
0.013065
  0
VERTEX
  8
0
 10
312.437137
 20
719.292680
 42
0.014508
  0
VERTEX
  8
0
 10
327.195834
 20
732.931575
 42
0.078249
  0
VERTEX
  8
0
 10
333.696700
 20
741.669893
 42
0.063923
  0
VERTEX
  8
0
 10
337.402629
 20
751.643429
 42
0.051883
  0
VERTEX
  8
0
 10
338.819396
 20
762.971655
 42
0.028107
  0
VERTEX
  8
0
 10
338.230507
 20
779.575241
 42
0.005206
  0
VERTEX
  8
0
 10
335.114454
 20
810.000000
 42
-0.000670
  0
VERTEX
  8
0
 10
332.208684
 20
836.038795
 42
-0.010159
  0
VERTEX
  8
0
 10
331.396471
 20
845.091893
 42
-0.029829
  0
VERTEX
  8
0
 10
331.345253
 20
850.472540
 42
-0.038662
  0
VERTEX
  8
0
 10
331.971994
 20
855.365097
 42
-0.047312
  0
VERTEX
  8
0
 10
333.449474
 20
860.154186
 42
-0.076921
  0
VERTEX
  8
0
 10
335.659985
 20
863.781259
 42
-0.073196
  0
VERTEX
  8
0
 10
338.949523
 20
866.688537
 42
-0.038976
  0
VERTEX
  8
0
 10
343.727892
 20
869.297398
 42
-0.055492
  0
VERTEX
  8
0
 10
358.714468
 20
874.113918
 42
-0.035192
  0
VERTEX
  8
0
 10
376.922075
 20
876.489438
 42
-0.035163
  0
VERTEX
  8
0
 10
395.312269
 20
876.288677
 42
-0.054783
  0
VERTEX
  8
0
 10
410.857413
 20
873.288243
 42
-0.069867
  0
VERTEX
  8
0
 10
416.656737
 20
870.560633
 42
-0.049891
  0
VERTEX
  8
0
 10
422.247298
 20
866.050490
 42
-0.050300
  0
VERTEX
  8
0
 10
426.778838
 20
860.579401
 42
-0.075783
  0
VERTEX
  8
0
 10
429.411102
 20
854.987397
 42
-0.069131
  0
VERTEX
  8
0
 10
431.089252
 20
843.930891
 42
-0.035460
  0
VERTEX
  8
0
 10
430.270698
 20
829.907423
 42
-0.025210
  0
VERTEX
  8
0
 10
426.920725
 20
811.456497
 42
-0.009481
  0
VERTEX
  8
0
 10
420.448353
 20
786.000000
 42
0.009408
  0
VERTEX
  8
0
 10
416.401412
 20
770.092695
 42
0.046162
  0
VERTEX
  8
0
 10
415.126892
 20
760.918935
 42
0.072925
  0
VERTEX
  8
0
 10
415.843206
 20
753.765602
 42
0.048459
  0
VERTEX
  8
0
 10
418.614887
 20
745.985602
 42
0.057472
  0
VERTEX
  8
0
 10
425.247069
 20
735.262243
 42
0.031067
  0
VERTEX
  8
0
 10
435.620711
 20
723.689830
 42
0.016966
  0
VERTEX
  8
0
 10
452.874654
 20
707.810849
 42
0.003275
  0
VERTEX
  8
0
 10
485.237415
 20
680.360958
 42
0.000000
  0
VERTEX
  8
0
 10
517.974830
 20
652.959951
 42
0.000000
  0
VERTEX
  8
0
 10
540.359428
 20
668.921725
 42
0.007827
  0
VERTEX
  8
0
 10
556.404723
 20
680.746329
 42
0.017376
  0
VERTEX
  8
0
 10
568.160660
 20
690.360311
 42
0.019038
  0
VERTEX
  8
0
 10
578.548331
 20
700.200096
 42
0.011500
  0
VERTEX
  8
0
 10
590.122490
 20
712.589107
 42
0.024026
  0
VERTEX
  8
0
 10
615.172914
 20
743.543624
 42
0.032568
  0
VERTEX
  8
0
 10
634.492816
 20
773.871295
 42
0.035305
  0
VERTEX
  8
0
 10
648.498633
 20
804.288618
 42
0.038564
  0
VERTEX
  8
0
 10
657.603240
 20
835.498825
 42
0.024658
  0
VERTEX
  8
0
 10
659.581802
 20
847.961534
 42
0.015910
  0
VERTEX
  8
0
 10
660.696597
 20
862.540001
 42
0.015907
  0
VERTEX
  8
0
 10
660.882222
 20
877.165838
 42
0.024574
  0
VERTEX
  8
0
 10
660.020235
 20
889.774288
 42
0.016873
  0
VERTEX
  8
0
 10
658.487208
 20
899.839894
 42
0.011593
  0
VERTEX
  8
0
 10
656.101907
 20
911.137875
 42
0.011531
  0
VERTEX
  8
0
 10
653.170118
 20
922.416397
 42
0.015685
  0
VERTEX
  8
0
 10
649.975639
 20
932.432231
 42
0.035566
  0
VERTEX
  8
0
 10
639.177020
 20
957.195511
 42
0.025396
  0
VERTEX
  8
0
 10
623.804118
 20
983.247664
 42
0.022362
  0
VERTEX
  8
0
 10
603.705508
 20
1010.895183
 42
0.015286
  0
VERTEX
  8
0
 10
578.572946
 20
1040.500000
 42
-0.005786
  0
VERTEX
  8
0
 10
568.444056
 20
1051.981907
 42
-0.025102
  0
VERTEX
  8
0
 10
562.869000
 20
1059.148923
 42
-0.042329
  0
VERTEX
  8
0
 10
559.645624
 20
1064.697272
 42
-0.058803
  0
VERTEX
  8
0
 10
557.816066
 20
1070.141012
 42
-0.020108
  0
VERTEX
  8
0
 10
557.249174
 20
1073.513330
 42
-0.052873
  0
VERTEX
  8
0
 10
557.198521
 20
1075.961659
 42
-0.045603
  0
VERTEX
  8
0
 10
557.662022
 20
1078.566350
 42
-0.011999
  0
VERTEX
  8
0
 10
558.879522
 20
1082.627809
 42
-0.034612
  0
VERTEX
  8
0
 10
564.276432
 20
1095.967742
 42
-0.009760
  0
VERTEX
  8
0
 10
574.505831
 20
1115.949332
 42
-0.010137
  0
VERTEX
  8
0
 10
586.464456
 20
1137.181386
 42
-0.014092
  0
VERTEX
  8
0
 10
598.082613
 20
1155.655043
 42
-0.008587
  0
VERTEX
  8
0
 10
607.555233
 20
1169.302308
 42
-0.009940
  0
VERTEX
  8
0
 10
617.051946
 20
1181.956412
 42
-0.008076
  0
VERTEX
  8
0
 10
625.486619
 20
1192.390199
 42
-0.074343
  0
VERTEX
  8
0
 10
629.825178
 20
1196.244735
 42
-0.063136
  0
VERTEX
  8
0
 10
632.262411
 20
1197.427684
 42
-0.068150
  0
VERTEX
  8
0
 10
634.855088
 20
1197.925439
 42
-0.074252
  0
VERTEX
  8
0
 10
637.283587
 20
1197.694909
 42
-0.103417
  0
VERTEX
  8
0
 10
639.244820
 20
1196.750000
 42
-0.085397
  0
VERTEX
  8
0
 10
642.909443
 20
1192.779338
 42
-0.009034
  0
VERTEX
  8
0
 10
649.594745
 20
1182.042004
 42
-0.011394
  0
VERTEX
  8
0
 10
656.832665
 20
1169.283584
 42
-0.010848
  0
VERTEX
  8
0
 10
663.606215
 20
1156.000000
 42
0.007012
  0
VERTEX
  8
0
 10
678.706744
 20
1125.816524
 42
0.011687
  0
VERTEX
  8
0
 10
692.363249
 20
1100.894106
 42
0.013335
  0
VERTEX
  8
0
 10
705.690834
 20
1079.220304
 42
0.014708
  0
VERTEX
  8
0
 10
719.744985
 20
1059.000000
 42
-0.008616
  0
VERTEX
  8
0
 10
732.995375
 20
1040.423157
 42
-0.015528
  0
VERTEX
  8
0
 10
743.108407
 20
1024.690305
 42
-0.016446
  0
VERTEX
  8
0
 10
751.833220
 20
1008.995072
 42
-0.011207
  0
VERTEX
  8
0
 10
760.753729
 20
990.624565
 42
-0.007319
  0
VERTEX
  8
0
 10
767.526079
 20
975.253495
 42
-0.009971
  0
VERTEX
  8
0
 10
773.150058
 20
961.190172
 42
-0.009774
  0
VERTEX
  8
0
 10
778.292357
 20
946.696270
 42
-0.006624
  0
VERTEX
  8
0
 10
783.606438
 20
930.000000
 42
0.007117
  0
VERTEX
  8
0
 10
793.927612
 20
897.682286
 42
0.011280
  0
VERTEX
  8
0
 10
803.781348
 20
870.342148
 42
0.011820
  0
VERTEX
  8
0
 10
814.501128
 20
844.419878
 42
0.008965
  0
VERTEX
  8
0
 10
827.430655
 20
816.500000
 42
0.012945
  0
VERTEX
  8
0
 10
843.978441
 20
784.520301
 42
0.020854
  0
VERTEX
  8
0
 10
859.881215
 20
758.294597
 42
0.023107
  0
VERTEX
  8
0
 10
876.583796
 20
735.530670
 42
0.022320
  0
VERTEX
  8
0
 10
895.500000
 20
714.129723
 42
0.028619
  0
VERTEX
  8
0
 10
922.284750
 20
689.421420
 42
0.028915
  0
VERTEX
  8
0
 10
951.627368
 20
668.024570
 42
0.028723
  0
VERTEX
  8
0
 10
983.436025
 20
650.030406
 42
0.027415
  0
VERTEX
  8
0
 10
1017.587933
 20
635.487589
 42
0.038590
  0
VERTEX
  8
0
 10
1063.754682
 20
622.680024
 42
0.020973
  0
VERTEX
  8
0
 10
1121.981544
 20
613.788544
 42
0.019902
  0
VERTEX
  8
0
 10
1185.706688
 20
609.333638
 42
0.020457
  0
VERTEX
  8
0
 10
1249.000000
 20
610.024333
 42
0.008238
  0
VERTEX
  8
0
 10
1303.857668
 20
613.776685
 42
0.027200
  0
VERTEX
  8
0
 10
1339.732654
 20
618.801430
 42
0.034673
  0
VERTEX
  8
0
 10
1370.012083
 20
626.949275
 42
0.021129
  0
VERTEX
  8
0
 10
1404.500000
 20
640.502003
 42
0.027393
  0
VERTEX
  8
0
 10
1461.802605
 20
669.714784
 42
0.041319
  0
VERTEX
  8
0
 10
1507.746399
 20
701.744978
 42
0.044927
  0
VERTEX
  8
0
 10
1544.940364
 20
738.628014
 42
0.042040
  0
VERTEX
  8
0
 10
1575.876604
 20
782.351354
 42
0.021928
  0
VERTEX
  8
0
 10
1587.806807
 20
804.832178
 42
0.011658
  0
VERTEX
  8
0
 10
1600.679068
 20
833.600500
 42
0.011134
  0
VERTEX
  8
0
 10
1613.166354
 20
865.310641
 42
0.011733
  0
VERTEX
  8
0
 10
1624.000000
 20
897.000000
 42
-0.014739
  0
VERTEX
  8
0
 10
1638.242022
 20
937.855165
 42
-0.014204
  0
VERTEX
  8
0
 10
1655.029276
 20
978.313508
 42
-0.014921
  0
VERTEX
  8
0
 10
1672.654347
 20
1014.655922
 42
-0.028071
  0
VERTEX
  8
0
 10
1689.350763
 20
1042.667147
 42
0.008198
  0
VERTEX
  8
0
 10
1704.974837
 20
1066.658294
 42
0.007031
  0
VERTEX
  8
0
 10
1720.643573
 20
1092.399714
 42
0.006756
  0
VERTEX
  8
0
 10
1736.224297
 20
1119.661532
 42
0.006133
  0
VERTEX
  8
0
 10
1751.584222
 20
1148.221507
 42
-0.007927
  0
VERTEX
  8
0
 10
1763.505891
 20
1170.199160
 42
-0.010285
  0
VERTEX
  8
0
 10
1775.159822
 20
1189.932987
 42
-0.005696
  0
VERTEX
  8
0
 10
1785.667835
 20
1206.493883
 42
-0.158198
  0
VERTEX
  8
0
 10
1789.604128
 20
1209.678331
 42
-0.078961
  0
VERTEX
  8
0
 10
1790.387564
 20
1209.844343
 42
-0.019717
  0
VERTEX
  8
0
 10
1791.699949
 20
1209.859816
 42
-0.019653
  0
VERTEX
  8
0
 10
1793.221259
 20
1209.757824
 42
-0.018628
  0
VERTEX
  8
0
 10
1794.757530
 20
1209.535852
 42
-0.148753
  0
VERTEX
  8
0
 10
1801.294984
 20
1206.164830
 42
-0.010912
  0
VERTEX
  8
0
 10
1815.627574
 20
1191.605381
 42
-0.015245
  0
VERTEX
  8
0
 10
1831.363843
 20
1173.851872
 42
-0.014064
  0
VERTEX
  8
0
 10
1846.432859
 20
1154.698880
 42
-0.011221
  0
VERTEX
  8
0
 10
1858.618835
 20
1137.486316
 42
-0.017838
  0
VERTEX
  8
0
 10
1868.173274
 20
1122.176836
 42
-0.020477
  0
VERTEX
  8
0
 10
1875.557951
 20
1108.037844
 42
-0.025964
  0
VERTEX
  8
0
 10
1881.138297
 20
1094.402380
 42
-0.014584
  0
VERTEX
  8
0
 10
1882.807324
 20
1089.144524
 42
-0.028074
  0
VERTEX
  8
0
 10
1883.780477
 20
1084.834697
 42
-0.023931
  0
VERTEX
  8
0
 10
1884.352077
 20
1080.016775
 42
-0.007898
  0
VERTEX
  8
0
 10
1884.740062
 20
1072.896908
 42
-0.017031
  0
VERTEX
  8
0
 10
1884.783218
 20
1063.485887
 42
-0.040310
  0
VERTEX
  8
0
 10
1884.013953
 20
1056.523945
 42
-0.044822
  0
VERTEX
  8
0
 10
1882.202821
 20
1050.230523
 42
-0.026052
  0
VERTEX
  8
0
 10
1878.980964
 20
1043.052280
 42
-0.036349
  0
VERTEX
  8
0
 10
1874.672537
 20
1035.971827
 42
-0.036690
  0
VERTEX
  8
0
 10
1869.396329
 20
1029.613513
 42
-0.030844
  0
VERTEX
  8
0
 10
1862.458195
 20
1023.238516
 42
-0.015567
  0
VERTEX
  8
0
 10
1853.000000
 20
1016.043520
 42
0.025651
  0
VERTEX
  8
0
 10
1841.109823
 20
1006.614127
 42
0.023652
  0
VERTEX
  8
0
 10
1829.905849
 20
995.770194
 42
0.022891
  0
VERTEX
  8
0
 10
1819.430808
 20
983.550056
 42
0.020614
  0
VERTEX
  8
0
 10
1809.723336
 20
970.000000
 42
0.022072
  0
VERTEX
  8
0
 10
1804.361391
 20
960.979388
 42
0.010562
  0
VERTEX
  8
0
 10
1798.242735
 20
948.964947
 42
0.010574
  0
VERTEX
  8
0
 10
1792.561895
 20
936.537876
 42
0.019351
  0
VERTEX
  8
0
 10
1788.544766
 20
926.147763
 42
0.014853
  0
VERTEX
  8
0
 10
1784.418652
 20
912.833999
 42
0.029149
  0
VERTEX
  8
0
 10
1782.079539
 20
901.994811
 42
0.027332
  0
VERTEX
  8
0
 10
1780.932203
 20
890.514686
 42
0.011500
  0
VERTEX
  8
0
 10
1780.591449
 20
875.000000
 42
0.012514
  0
VERTEX
  8
0
 10
1781.017284
 20
858.666978
 42
0.029728
  0
VERTEX
  8
0
 10
1782.357310
 20
846.592837
 42
0.028241
  0
VERTEX
  8
0
 10
1785.166000
 20
834.401679
 42
0.010318
  0
VERTEX
  8
0
 10
1790.459894
 20
817.500000
 42
0.032810
  0
VERTEX
  8
0
 10
1805.975812
 20
779.728674
 42
0.032578
  0
VERTEX
  8
0
 10
1826.331500
 20
744.217862
 42
0.032871
  0
VERTEX
  8
0
 10
1850.926567
 20
711.955095
 42
0.034880
  0
VERTEX
  8
0
 10
1879.088155
 20
683.872306
 42
0.000964
  0
VERTEX
  8
0
 10
1897.337746
 20
668.111928
 42
0.001767
  0
VERTEX
  8
0
 10
1912.277389
 20
655.351809
 42
0.000206
  0
VERTEX
  8
0
 10
1925.339283
 20
644.284366
 42
0.176382
  0
VERTEX
  8
0
 10
1926.103471
 20
644.002517
 42
0.178013
  0
VERTEX
  8
0
 10
1927.089751
 20
644.360487
 42
0.000081
  0
VERTEX
  8
0
 10
1954.040800
 20
667.091563
 42
0.001272
  0
VERTEX
  8
0
 10
1977.934973
 20
687.355351
 42
0.004814
  0
VERTEX
  8
0
 10
1992.728178
 20
700.213763
 42
0.009260
  0
VERTEX
  8
0
 10
2003.819591
 20
710.416505
 42
0.020260
  0
VERTEX
  8
0
 10
2011.837814
 20
718.717495
 42
0.026181
  0
VERTEX
  8
0
 10
2017.635515
 20
725.957701
 42
0.041025
  0
VERTEX
  8
0
 10
2021.740318
 20
732.792328
 42
0.000000
  0
VERTEX
  8
0
 10
2025.500000
 20
740.402778
 42
0.000000
  0
VERTEX
  8
0
 10
2025.427614
 20
753.451389
 42
0.011467
  0
VERTEX
  8
0
 10
2025.213458
 20
760.968882
 42
0.015257
  0
VERTEX
  8
0
 10
2024.654104
 20
767.781214
 42
0.012585
  0
VERTEX
  8
0
 10
2023.588247
 20
775.478012
 42
0.004981
  0
VERTEX
  8
0
 10
2021.752424
 20
786.000000
 42
-0.002834
  0
VERTEX
  8
0
 10
2017.456981
 20
810.009761
 42
-0.011922
  0
VERTEX
  8
0
 10
2015.304558
 20
824.494536
 42
-0.019356
  0
VERTEX
  8
0
 10
2014.477258
 20
834.207553
 42
-0.056966
  0
VERTEX
  8
0
 10
2014.929221
 20
840.888518
 42
-0.027286
  0
VERTEX
  8
0
 10
2016.241017
 20
846.345450
 42
-0.042488
  0
VERTEX
  8
0
 10
2018.013453
 20
850.843037
 42
-0.050066
  0
VERTEX
  8
0
 10
2020.227977
 20
854.372360
 42
-0.073030
  0
VERTEX
  8
0
 10
2022.873387
 20
856.909844
 42
-0.077396
  0
VERTEX
  8
0
 10
2026.566283
 20
858.759264
 42
-0.016017
  0
VERTEX
  8
0
 10
2033.576122
 20
860.758103
 42
-0.016084
  0
VERTEX
  8
0
 10
2042.125920
 20
862.612455
 42
-0.012937
  0
VERTEX
  8
0
 10
2051.421001
 20
864.070004
 42
-0.028343
  0
VERTEX
  8
0
 10
2063.219167
 20
864.932775
 42
-0.011315
  0
VERTEX
  8
0
 10
2079.434755
 20
864.830578
 42
-0.008189
  0
VERTEX
  8
0
 10
2095.238454
 20
864.114044
 42
-0.086428
  0
VERTEX
  8
0
 10
2101.500000
 20
862.620745
 42
-0.049390
  0
VERTEX
  8
0
 10
2105.205080
 20
860.571357
 42
-0.039102
  0
VERTEX
  8
0
 10
2108.760272
 20
857.684004
 42
-0.038623
  0
VERTEX
  8
0
 10
2111.869590
 20
854.232704
 42
-0.044648
  0
VERTEX
  8
0
 10
2114.245715
 20
850.500000
 42
-0.102482
  0
VERTEX
  8
0
 10
2116.545718
 20
842.297676
 42
-0.039676
  0
VERTEX
  8
0
 10
2116.425041
 20
830.436413
 42
-0.028766
  0
VERTEX
  8
0
 10
2114.063960
 20
814.490490
 42
-0.011538
  0
VERTEX
  8
0
 10
2109.086657
 20
793.000000
 42
0.007247
  0
VERTEX
  8
0
 10
2104.252919
 20
772.915021
 42
0.036935
  0
VERTEX
  8
0
 10
2102.561197
 20
761.555708
 42
0.064264
  0
VERTEX
  8
0
 10
2103.011787
 20
753.272874
 42
0.060514
  0
VERTEX
  8
0
 10
2105.542368
 20
745.194690
 42
0.079852
  0
VERTEX
  8
0
 10
2110.885124
 20
737.107538
 42
0.020603
  0
VERTEX
  8
0
 10
2121.965542
 20
726.004758
 42
0.013582
  0
VERTEX
  8
0
 10
2139.692073
 20
710.518633
 42
0.003506
  0
VERTEX
  8
0
 10
2169.122908
 20
686.530066
 42
0.012506
  0
VERTEX
  8
0
 10
2186.450465
 20
673.306965
 42
0.039467
  0
VERTEX
  8
0
 10
2198.913183
 20
665.701203
 42
0.059488
  0
VERTEX
  8
0
 10
2209.162814
 20
661.957300
 42
0.080626
  0
VERTEX
  8
0
 10
2218.978907
 20
661.264371
 42
0.113357
  0
VERTEX
  8
0
 10
2234.565309
 20
666.363554
 42
0.025373
  0
VERTEX
  8
0
 10
2257.916501
 20
682.088819
 42
0.026607
  0
VERTEX
  8
0
 10
2282.051262
 20
702.277511
 42
0.033561
  0
VERTEX
  8
0
 10
2301.976963
 20
723.500000
 42
0.022915
  0
VERTEX
  8
0
 10
2311.023067
 20
735.625199
 42
0.024065
  0
VERTEX
  8
0
 10
2318.764230
 20
748.335921
 42
0.023672
  0
VERTEX
  8
0
 10
2325.356354
 20
761.928023
 42
0.020720
  0
VERTEX
  8
0
 10
2330.961567
 20
776.693837
 42
0.024259
  0
VERTEX
  8
0
 10
2336.074733
 20
794.965404
 42
0.022636
  0
VERTEX
  8
0
 10
2339.533605
 20
814.072083
 42
0.019037
  0
VERTEX
  8
0
 10
2341.661234
 20
836.223786
 42
0.009873
  0
VERTEX
  8
0
 10
2342.715541
 20
864.000000
 42
0.020263
  0
VERTEX
  8
0
 10
2341.690437
 20
909.905409
 42
0.046731
  0
VERTEX
  8
0
 10
2336.324353
 20
943.970324
 42
0.058936
  0
VERTEX
  8
0
 10
2325.818669
 20
971.269075
 42
0.056506
  0
VERTEX
  8
0
 10
2309.115554
 20
995.789105
 42
0.043126
  0
VERTEX
  8
0
 10
2295.325478
 20
1009.260416
 42
0.021455
  0
VERTEX
  8
0
 10
2275.784301
 20
1023.949940
 42
0.016652
  0
VERTEX
  8
0
 10
2249.549223
 20
1040.706522
 42
0.007755
  0
VERTEX
  8
0
 10
2214.500000
 20
1060.755167
 42
-0.003645
  0
VERTEX
  8
0
 10
2191.523365
 20
1073.648642
 42
-0.014314
  0
VERTEX
  8
0
 10
2177.648599
 20
1082.103541
 42
-0.023094
  0
VERTEX
  8
0
 10
2168.311147
 20
1088.799115
 42
-0.039474
  0
VERTEX
  8
0
 10
2161.278344
 20
1095.313859
 42
-0.045914
  0
VERTEX
  8
0
 10
2155.403996
 20
1102.994060
 42
-0.063482
  0
VERTEX
  8
0
 10
2151.756650
 20
1110.855591
 42
-0.049245
  0
VERTEX
  8
0
 10
2149.643881
 20
1120.807687
 42
-0.016945
  0
VERTEX
  8
0
 10
2148.511943
 20
1135.500000
 42
0.010965
  0
VERTEX
  8
0
 10
2147.592270
 20
1149.643309
 42
0.008709
  0
VERTEX
  8
0
 10
2145.998895
 20
1164.867554
 42
0.008788
  0
VERTEX
  8
0
 10
2143.902138
 20
1179.825094
 42
0.012163
  0
VERTEX
  8
0
 10
2141.461237
 20
1193.150028
 42
0.010586
  0
VERTEX
  8
0
 10
2127.763105
 20
1252.543245
 42
0.008608
  0
VERTEX
  8
0
 10
2110.653851
 20
1315.573527
 42
0.008814
  0
VERTEX
  8
0
 10
2092.197266
 20
1375.259644
 42
0.015193
  0
VERTEX
  8
0
 10
2074.469253
 20
1424.142476
 42
0.015756
  0
VERTEX
  8
0
 10
2057.708514
 20
1462.726128
 42
0.013863
  0
VERTEX
  8
0
 10
2037.862854
 20
1501.888122
 42
0.012904
  0
VERTEX
  8
0
 10
2014.431444
 20
1542.569092
 42
0.009946
  0
VERTEX
  8
0
 10
1986.868475
 20
1585.735488
 42
0.005136
  0
VERTEX
  8
0
 10
1976.667467
 20
1600.696511
 42
0.007014
  0
VERTEX
  8
0
 10
1967.151137
 20
1613.949664
 42
0.006692
  0
VERTEX
  8
0
 10
1956.924853
 20
1627.397667
 42
0.004093
  0
VERTEX
  8
0
 10
1944.520264
 20
1643.000000
 42
-0.003382
  0
VERTEX
  8
0
 10
1932.293394
 20
1658.333982
 42
-0.004924
  0
VERTEX
  8
0
 10
1921.738830
 20
1672.031388
 42
-0.005618
  0
VERTEX
  8
0
 10
1913.025842
 20
1683.845878
 42
-0.011636
  0
VERTEX
  8
0
 10
1906.544496
 20
1693.300661
 42
-0.026383
  0
VERTEX
  8
0
 10
1897.622233
 20
1708.707797
 42
-0.045878
  0
VERTEX
  8
0
 10
1892.139623
 20
1722.415964
 42
-0.059689
  0
VERTEX
  8
0
 10
1890.290781
 20
1733.216555
 42
-0.227688
  0
VERTEX
  8
0
 10
1892.864777
 20
1739.348278
 42
-0.092520
  0
VERTEX
  8
0
 10
1893.905934
 20
1739.973929
 42
-0.017391
  0
VERTEX
  8
0
 10
1896.022998
 20
1740.679739
 42
-0.018064
  0
VERTEX
  8
0
 10
1898.589023
 20
1741.337413
 42
-0.015675
  0
VERTEX
  8
0
 10
1901.319896
 20
1741.844024
 42
0.050537
  0
VERTEX
  8
0
 10
1909.216973
 20
1743.886302
 42
0.070858
  0
VERTEX
  8
0
 10
1915.616300
 20
1747.345262
 42
0.034624
  0
VERTEX
  8
0
 10
1923.537405
 20
1754.101997
 42
0.004162
  0
VERTEX
  8
0
 10
1939.815553
 20
1770.327526
 42
0.005199
  0
VERTEX
  8
0
 10
1973.748641
 20
1805.441678
 42
0.006772
  0
VERTEX
  8
0
 10
2004.034804
 20
1838.322040
 42
0.007529
  0
VERTEX
  8
0
 10
2029.563649
 20
1867.679849
 42
0.014971
  0
VERTEX
  8
0
 10
2048.718880
 20
1891.820700
 42
0.026241
  0
VERTEX
  8
0
 10
2063.225909
 20
1913.565269
 42
0.015410
  0
VERTEX
  8
0
 10
2078.360409
 20
1940.939088
 42
0.014878
  0
VERTEX
  8
0
 10
2092.595050
 20
1970.827001
 42
0.016771
  0
VERTEX
  8
0
 10
2104.428011
 20
2000.350894
 42
0.011720
  0
VERTEX
  8
0
 10
2111.558074
 20
2021.566963
 42
0.009870
  0
VERTEX
  8
0
 10
2118.132131
 20
2044.340477
 42
0.009937
  0
VERTEX
  8
0
 10
2123.750209
 20
2067.157787
 42
0.012506
  0
VERTEX
  8
0
 10
2127.999521
 20
2088.500000
 42
0.020193
  0
VERTEX
  8
0
 10
2132.673487
 20
2123.935788
 42
0.016828
  0
VERTEX
  8
0
 10
2134.841725
 20
2161.861044
 42
0.016869
  0
VERTEX
  8
0
 10
2134.452453
 20
2199.731635
 42
0.020650
  0
VERTEX
  8
0
 10
2131.436462
 20
2235.000000
 42
0.057576
  0
VERTEX
  8
0
 10
2104.544959
 20
2344.119269
 42
0.058268
  0
VERTEX
  8
0
 10
2053.547863
 20
2443.758904
 42
0.058173
  0
VERTEX
  8
0
 10
1980.848434
 20
2529.083438
 42
0.057040
  0
VERTEX
  8
0
 10
1890.000000
 20
2596.013843
 42
0.011371
  0
VERTEX
  8
0
 10
1862.413222
 20
2611.022066
 42
0.006396
  0
VERTEX
  8
0
 10
1828.289285
 20
2628.044497
 42
0.006272
  0
VERTEX
  8
0
 10
1792.268672
 20
2644.887361
 42
0.008031
  0
VERTEX
  8
0
 10
1758.674443
 20
2659.439725
 42
0.012864
  0
VERTEX
  8
0
 10
1680.832934
 20
2689.362380
 42
0.013257
  0
VERTEX
  8
0
 10
1602.328007
 20
2714.921497
 42
0.011874
  0
VERTEX
  8
0
 10
1515.251867
 20
2738.504824
 42
0.007154
  0
VERTEX
  8
0
 10
1411.000000
 20
2762.523066
 42
-0.003048
  0
VERTEX
  8
0
 10
1372.247577
 20
2771.116627
 42
-0.003746
  0
VERTEX
  8
0
 10
1336.183062
 20
2779.629876
 42
-0.000758
  0
VERTEX
  8
0
 10
1303.016886
 20
2787.774993
 42
-0.172843
  0
VERTEX
  8
0
 10
1300.399334
 20
2789.507334
 42
-0.203160
  0
VERTEX
  8
0
 10
1299.476369
 20
2793.230644
 42
-0.016000
  0
VERTEX
  8
0
 10
1301.443801
 20
2803.467760
 42
-0.016529
  0
VERTEX
  8
0
 10
1305.091703
 20
2817.466314
 42
-0.006503
  0
VERTEX
  8
0
 10
1311.000000
 20
2836.500000
 42
0.006693
  0
VERTEX
  8
0
 10
1317.899847
 20
2858.757809
 42
0.036461
  0
VERTEX
  8
0
 10
1320.581643
 20
2871.078293
 42
0.069417
  0
VERTEX
  8
0
 10
1320.605690
 20
2879.593858
 42
0.086622
  0
VERTEX
  8
0
 10
1318.207262
 20
2887.117529
 42
0.092290
  0
VERTEX
  8
0
 10
1312.889172
 20
2893.892979
 42
0.083950
  0
VERTEX
  8
0
 10
1305.321764
 20
2898.571854
 42
0.047874
  0
VERTEX
  8
0
 10
1293.257535
 20
2902.179594
 42
0.010612
  0
VERTEX
  8
0
 10
1272.000000
 20
2905.909226
 42
0.000108
  0
VERTEX
  8
0
 10
1264.853872
 20
2907.005654
 42
0.000030
  0
VERTEX
  8
0
 10
1253.653125
 20
2908.721014
 42
0.000030
  0
VERTEX
  8
0
 10
1240.975762
 20
2910.660947
 42
0.000032
  0
VERTEX
  8
0
 10
1228.500000
 20
2912.568443
 42
-0.003987
  0
VERTEX
  8
0
 10
1193.361823
 20
2918.225707
 42
-0.007713
  0
VERTEX
  8
0
 10
1165.373663
 20
2923.406367
 42
-0.008819
  0
VERTEX
  8
0
 10
1140.202513
 20
2928.931965
 42
-0.007638
  0
VERTEX
  8
0
 10
1114.000000
 20
2935.594832
 42
-0.002394
  0
VERTEX
  8
0
 10
1098.647665
 20
2939.828357
 42
-0.025555
  0
VERTEX
  8
0
 10
1092.515626
 20
2941.894246
 42
-0.068105
  0
VERTEX
  8
0
 10
1089.200854
 20
2943.757349
 42
-0.103348
  0
VERTEX
  8
0
 10
1087.036327
 20
2946.241371
 42
-0.095416
  0
VERTEX
  8
0
 10
1086.149457
 20
2948.912635
 42
-0.212891
  0
VERTEX
  8
0
 10
1086.747278
 20
2950.921679
 42
-0.141477
  0
VERTEX
  8
0
 10
1088.950337
 20
2952.368105
 42
-0.037189
  0
VERTEX
  8
0
 10
1093.106580
 20
2953.321710
 42
-0.035725
  0
VERTEX
  8
0
 10
1105.147014
 20
2954.284239
 42
-0.007004
  0
VERTEX
  8
0
 10
1126.879991
 20
2954.161296
 42
-0.007539
  0
VERTEX
  8
0
 10
1151.800602
 20
2953.295119
 42
-0.007708
  0
VERTEX
  8
0
 10
1176.500000
 20
2951.681515
 42
0.001383
  0
VERTEX
  8
0
 10
1212.834892
 20
2948.845756
 42
0.007124
  0
VERTEX
  8
0
 10
1232.983596
 20
2947.617704
 42
0.012837
  0
VERTEX
  8
0
 10
1246.411209
 20
2947.336295
 42
0.024690
  0
VERTEX
  8
0
 10
1257.156448
 20
2947.918047
 42
0.006845
  0
VERTEX
  8
0
 10
1261.939380
 20
2948.480936
 42
0.005965
  0
VERTEX
  8
0
 10
1266.930332
 20
2949.198368
 42
0.006009
  0
VERTEX
  8
0
 10
1271.428977
 20
2949.955390
 42
0.017615
  0
VERTEX
  8
0
 10
1274.500000
 20
2950.622679
 42
0.043323
  0
VERTEX
  8
0
 10
1284.436090
 20
2954.090317
 42
0.017557
  0
VERTEX
  8
0
 10
1297.314914
 20
2960.430756
 42
0.017122
  0
VERTEX
  8
0
 10
1310.862920
 20
2968.311191
 42
0.019955
  0
VERTEX
  8
0
 10
1323.145445
 20
2976.731701
 42
0.022872
  0
VERTEX
  8
0
 10
1330.461915
 20
2982.728727
 42
0.009845
  0
VERTEX
  8
0
 10
1339.678402
 20
2991.349971
 42
0.009894
  0
VERTEX
  8
0
 10
1348.656652
 20
3000.438755
 42
0.020047
  0
VERTEX
  8
0
 10
1355.280422
 20
3008.000000
 42
0.030055
  0
VERTEX
  8
0
 10
1369.655694
 20
3028.169036
 42
0.026495
  0
VERTEX
  8
0
 10
1382.180484
 20
3050.763843
 42
0.026815
  0
VERTEX
  8
0
 10
1392.089259
 20
3074.229110
 42
0.033300
  0
VERTEX
  8
0
 10
1398.621537
 20
3097.000000
 42
0.018287
  0
VERTEX
  8
0
 10
1399.474263
 20
3101.788695
 42
0.015862
  0
VERTEX
  8
0
 10
1400.023718
 20
3106.859628
 42
0.013334
  0
VERTEX
  8
0
 10
1400.314753
 20
3112.729000
 42
0.007104
  0
VERTEX
  8
0
 10
1400.377802
 20
3120.000000
 42
0.006924
  0
VERTEX
  8
0
 10
1400.207975
 20
3128.760099
 42
0.024267
  0
VERTEX
  8
0
 10
1399.747077
 20
3134.385046
 42
0.024563
  0
VERTEX
  8
0
 10
1398.746142
 20
3139.904542
 42
0.007225
  0
VERTEX
  8
0
 10
1396.675104
 20
3148.260269
 42
0.031099
  0
VERTEX
  8
0
 10
1388.397302
 20
3173.273739
 42
0.032503
  0
VERTEX
  8
0
 10
1377.181060
 20
3196.687165
 42
0.032556
  0
VERTEX
  8
0
 10
1363.044273
 20
3218.414950
 42
0.031419
  0
VERTEX
  8
0
 10
1346.050715
 20
3238.397999
 42
0.034012
  0
VERTEX
  8
0
 10
1322.071771
 20
3260.085156
 42
0.039522
  0
VERTEX
  8
0
 10
1296.494626
 20
3277.145878
 42
0.040200
  0
VERTEX
  8
0
 10
1268.946788
 20
3289.743079
 42
0.037496
  0
VERTEX
  8
0
 10
1239.093331
 20
3298.120522
 42
0.029698
  0
VERTEX
  8
0
 10
1226.944479
 20
3299.823240
 42
0.013751
  0
VERTEX
  8
0
 10
1211.017762
 20
3300.658066
 42
0.013517
  0
VERTEX
  8
0
 10
1195.386092
 20
3300.624238
 42
0.037852
  0
SEQEND
  0
POLYLINE
  8
0
 66
1
 70
1
  0
VERTEX
  8
0
 10
1238.216136
 20
3295.102455
 42
-0.024978
  0
VERTEX
  8
0
 10
1260.309905
 20
3289.440410
 42
-0.030655
  0
VERTEX
  8
0
 10
1280.225607
 20
3281.896035
 42
-0.030393
  0
VERTEX
  8
0
 10
1299.207666
 20
3271.912956
 42
-0.023857
  0
VERTEX
  8
0
 10
1318.500000
 20
3258.921750
 42
-0.042198
  0
VERTEX
  8
0
 10
1344.235449
 20
3236.135502
 42
-0.042502
  0
VERTEX
  8
0
 10
1365.712067
 20
3209.403072
 42
-0.042505
  0
VERTEX
  8
0
 10
1382.357802
 20
3179.426360
 42
-0.042220
  0
VERTEX
  8
0
 10
1393.738706
 20
3147.000000
 42
-0.007603
  0
VERTEX
  8
0
 10
1395.670688
 20
3139.034470
 42
-0.022536
  0
VERTEX
  8
0
 10
1396.664516
 20
3133.500000
 42
-0.022976
  0
VERTEX
  8
0
 10
1397.146161
 20
3127.956548
 42
-0.008160
  0
VERTEX
  8
0
 10
1397.340375
 20
3120.000000
 42
-0.017545
  0
VERTEX
  8
0
 10
1397.048234
 20
3109.182784
 42
-0.028021
  0
VERTEX
  8
0
 10
1395.958970
 20
3100.003621
 42
-0.024871
  0
VERTEX
  8
0
 10
1393.741638
 20
3090.265248
 42
-0.010667
  0
VERTEX
  8
0
 10
1389.863579
 20
3077.500000
 42
-0.022305
  0
VERTEX
  8
0
 10
1383.947862
 20
3061.825099
 42
-0.019863
  0
VERTEX
  8
0
 10
1376.448040
 20
3046.106979
 42
-0.019519
  0
VERTEX
  8
0
 10
1367.573598
 20
3030.748434
 42
-0.019597
  0
VERTEX
  8
0
 10
1357.539663
 20
3016.149990
 42
-0.028778
  0
VERTEX
  8
0
 10
1343.056830
 20
2998.916992
 42
-0.031047
  0
VERTEX
  8
0
 10
1327.032821
 20
2983.920683
 42
-0.030990
  0
VERTEX
  8
0
 10
1309.247030
 20
2971.000476
 42
-0.028459
  0
VERTEX
  8
0
 10
1289.500000
 20
2959.970717
 42
-0.016804
  0
VERTEX
  8
0
 10
1281.202667
 20
2956.276514
 42
-0.029818
  0
VERTEX
  8
0
 10
1274.113279
 20
2953.882597
 42
-0.028160
  0
VERTEX
  8
0
 10
1266.518446
 20
2952.265964
 42
-0.013257
  0
VERTEX
  8
0
 10
1256.563554
 20
2950.995737
 42
-0.023638
  0
VERTEX
  8
0
 10
1246.496570
 20
2950.460341
 42
-0.012839
  0
VERTEX
  8
0
 10
1234.106627
 20
2950.705813
 42
-0.006775
  0
VERTEX
  8
0
 10
1215.214784
 20
2951.822385
 42
-0.001172
  0
VERTEX
  8
0
 10
1179.500000
 20
2954.503420
 42
0.002710
  0
VERTEX
  8
0
 10
1150.319348
 20
2956.603712
 42
0.008388
  0
VERTEX
  8
0
 10
1130.590952
 20
2957.584163
 42
0.012099
  0
VERTEX
  8
0
 10
1115.509791
 20
2957.715142
 42
0.016747
  0
VERTEX
  8
0
 10
1102.000000
 20
2957.052605
 42
0.004201
  0
VERTEX
  8
0
 10
1093.963180
 20
2956.320076
 42
0.023812
  0
VERTEX
  8
0
 10
1089.711159
 20
2955.690869
 42
0.046454
  0
VERTEX
  8
0
 10
1087.076324
 20
2954.912148
 42
0.093017
  0
VERTEX
  8
0
 10
1085.250000
 20
2953.752556
 42
0.080651
  0
VERTEX
  8
0
 10
1083.793883
 20
2951.871063
 42
0.095038
  0
VERTEX
  8
0
 10
1083.111686
 20
2949.727906
 42
0.085007
  0
VERTEX
  8
0
 10
1083.235700
 20
2947.295501
 42
0.051791
  0
VERTEX
  8
0
 10
1084.154126
 20
2944.561076
 42
0.089408
  0
VERTEX
  8
0
 10
1085.849416
 20
2942.114017
 42
0.075279
  0
VERTEX
  8
0
 10
1088.388536
 20
2940.238046
 42
0.042131
  0
VERTEX
  8
0
 10
1092.560264
 20
2938.465279
 42
0.008955
  0
VERTEX
  8
0
 10
1100.105985
 20
2936.133548
 42
0.011156
  0
VERTEX
  8
0
 10
1132.056467
 20
2927.651652
 42
0.010126
  0
VERTEX
  8
0
 10
1165.398816
 20
2920.303372
 42
0.008394
  0
VERTEX
  8
0
 10
1204.340618
 20
2913.221913
 42
0.004176
  0
VERTEX
  8
0
 10
1253.894281
 20
2905.492105
 42
-0.002964
  0
VERTEX
  8
0
 10
1270.890794
 20
2902.883049
 42
-0.006029
  0
VERTEX
  8
0
 10
1284.208598
 20
2900.592807
 42
-0.007558
  0
VERTEX
  8
0
 10
1294.658039
 20
2898.502032
 42
-0.016945
  0
VERTEX
  8
0
 10
1302.504696
 20
2896.527854
 42
-0.086783
  0
VERTEX
  8
0
 10
1308.548170
 20
2893.582410
 42
-0.076266
  0
VERTEX
  8
0
 10
1313.548532
 20
2888.646929
 42
-0.075878
  0
VERTEX
  8
0
 10
1316.859235
 20
2882.413378
 42
-0.084389
  0
VERTEX
  8
0
 10
1318.000000
 20
2875.702576
 42
-0.056726
  0
VERTEX
  8
0
 10
1317.382426
 20
2870.276619
 42
-0.008505
  0
VERTEX
  8
0
 10
1314.732235
 20
2859.616645
 42
-0.008480
  0
VERTEX
  8
0
 10
1310.852167
 20
2846.002512
 42
-0.004686
  0
VERTEX
  8
0
 10
1305.675405
 20
2829.500000
 42
0.005437
  0
VERTEX
  8
0
 10
1302.432210
 20
2819.106684
 42
0.010387
  0
VERTEX
  8
0
 10
1300.092503
 20
2810.679774
 42
0.011455
  0
VERTEX
  8
0
 10
1298.256208
 20
2802.735016
 42
0.008566
  0
VERTEX
  8
0
 10
1296.584609
 20
2793.905402
 42
0.096276
  0
VERTEX
  8
0
 10
1296.664619
 20
2790.267638
 42
0.141143
  0
VERTEX
  8
0
 10
1298.174098
 20
2787.467296
 42
0.102215
  0
VERTEX
  8
0
 10
1301.388736
 20
2785.304397
 42
0.035523
  0
VERTEX
  8
0
 10
1306.721275
 20
2783.551933
 42
0.003664
  0
VERTEX
  8
0
 10
1329.073414
 20
2778.101574
 42
0.001274
  0
VERTEX
  8
0
 10
1361.361330
 20
2770.565469
 42
0.001268
  0
VERTEX
  8
0
 10
1396.876689
 20
2762.466214
 42
0.001499
  0
VERTEX
  8
0
 10
1430.500000
 20
2754.993938
 42
-0.006943
  0
VERTEX
  8
0
 10
1519.245187
 20
2734.255304
 42
-0.010486
  0
VERTEX
  8
0
 10
1595.848669
 20
2713.513819
 42
-0.011449
  0
VERTEX
  8
0
 10
1666.109841
 20
2691.139466
 42
-0.011340
  0
VERTEX
  8
0
 10
1735.500000
 20
2665.505490
 42
-0.010439
  0
VERTEX
  8
0
 10
1786.639215
 20
2644.039313
 42
-0.010323
  0
VERTEX
  8
0
 10
1837.030315
 20
2620.381009
 42
-0.010878
  0
VERTEX
  8
0
 10
1882.205883
 20
2596.784729
 42
-0.021131
  0
VERTEX
  8
0
 10
1917.000000
 20
2575.673844
 42
-0.053523
  0
VERTEX
  8
0
 10
1996.502453
 20
2509.446062
 42
-0.053845
  0
VERTEX
  8
0
 10
2059.955207
 20
2427.976071
 42
-0.053822
  0
VERTEX
  8
0
 10
2104.571368
 20
2334.802540
 42
-0.053388
  0
VERTEX
  8
0
 10
2128.425878
 20
2234.000000
 42
-0.020266
  0
VERTEX
  8
0
 10
2131.414168
 20
2198.998852
 42
-0.017090
  0
VERTEX
  8
0
 10
2131.803450
 20
2161.813690
 42
-0.017054
  0
VERTEX
  8
0
 10
2129.649458
 20
2124.597141
 42
-0.019904
  0
VERTEX
  8
0
 10
2124.999521
 20
2089.500000
 42
-0.027057
  0
VERTEX
  8
0
 10
2113.029413
 20
2037.350017
 42
-0.025204
  0
VERTEX
  8
0
 10
2095.268720
 20
1985.518391
 42
-0.025804
  0
VERTEX
  8
0
 10
2072.942627
 20
1937.107953
 42
-0.032987
  0
VERTEX
  8
0
 10
2047.292883
 20
1895.240342
 42
-0.021912
  0
VERTEX
  8
0
 10
2030.041469
 20
1872.985853
 42
-0.006739
  0
VERTEX
  8
0
 10
2002.130181
 20
1840.951211
 42
-0.006596
  0
VERTEX
  8
0
 10
1969.245154
 20
1805.180485
 42
-0.006353
  0
VERTEX
  8
0
 10
1935.019272
 20
1769.833774
 42
-0.001826
  0
VERTEX
  8
0
 10
1921.690835
 20
1756.511974
 42
-0.017887
  0
VERTEX
  8
0
 10
1915.848072
 20
1751.115330
 42
-0.043849
  0
VERTEX
  8
0
 10
1911.905824
 20
1748.287123
 42
-0.064852
  0
VERTEX
  8
0
 10
1908.000000
 20
1746.611999
 42
-0.010251
  0
VERTEX
  8
0
 10
1905.554358
 20
1745.974150
 42
-0.006959
  0
VERTEX
  8
0
 10
1902.746262
 20
1745.344119
 42
-0.007014
  0
VERTEX
  8
0
 10
1900.016738
 20
1744.811355
 42
-0.013937
  0
VERTEX
  8
0
 10
1897.838338
 20
1744.480199
 42
0.216799
  0
VERTEX
  8
0
 10
1889.965509
 20
1739.653532
 42
0.169735
  0
VERTEX
  8
0
 10
1887.383986
 20
1729.853145
 42
0.086801
  0
VERTEX
  8
0
 10
1891.289222
 20
1714.677665
 42
0.031613
  0
VERTEX
  8
0
 10
1901.740771
 20
1695.000000
 42
0.016698
  0
VERTEX
  8
0
 10
1907.968763
 20
1685.593768
 42
0.006221
  0
VERTEX
  8
0
 10
1917.317370
 20
1672.790138
 42
0.005277
  0
VERTEX
  8
0
 10
1929.318657
 20
1657.122954
 42
0.003040
  0
VERTEX
  8
0
 10
1944.082031
 20
1638.500000
 42
-0.008221
  0
VERTEX
  8
0
 10
1962.399528
 20
1614.895443
 42
-0.009714
  0
VERTEX
  8
0
 10
1978.912882
 20
1591.962700
 42
-0.009174
  0
VERTEX
  8
0
 10
1995.276745
 20
1567.326099
 42
-0.006090
  0
VERTEX
  8
0
 10
2013.179976
 20
1538.500000
 42
-0.011416
  0
VERTEX
  8
0
 10
2037.623938
 20
1495.883239
 42
-0.016924
  0
VERTEX
  8
0
 10
2056.893910
 20
1457.385809
 42
-0.016783
  0
VERTEX
  8
0
 10
2073.629596
 20
1417.433063
 42
-0.010970
  0
VERTEX
  8
0
 10
2090.347419
 20
1370.349085
 42
-0.006592
  0
VERTEX
  8
0
 10
2103.262096
 20
1329.477825
 42
-0.006201
  0
VERTEX
  8
0
 10
2115.371584
 20
1287.440330
 42
-0.006287
  0
VERTEX
  8
0
 10
2126.256541
 20
1245.768172
 42
-0.007380
  0
VERTEX
  8
0
 10
2135.490947
 20
1206.000000
 42
-0.006142
  0
VERTEX
  8
0
 10
2139.428481
 20
1186.686457
 42
-0.011503
  0
VERTEX
  8
0
 10
2142.060255
 20
1170.961839
 42
-0.012546
  0
VERTEX
  8
0
 10
2143.820211
 20
1156.082412
 42
-0.009190
  0
VERTEX
  8
0
 10
2145.053947
 20
1139.500000
 42
0.003407
  0
VERTEX
  8
0
 10
2145.534658
 20
1131.842963
 42
0.003927
  0
VERTEX
  8
0
 10
2146.100173
 20
1124.548029
 42
0.003528
  0
VERTEX
  8
0
 10
2146.671340
 20
1118.375999
 42
0.022778
  0
VERTEX
  8
0
 10
2147.122985
 20
1115.280524
 42
0.043829
  0
VERTEX
  8
0
 10
2148.849102
 20
1109.232998
 42
0.037709
  0
VERTEX
  8
0
 10
2151.672568
 20
1103.251367
 42
0.036108
  0
VERTEX
  8
0
 10
2155.504137
 20
1097.511236
 42
0.032820
  0
VERTEX
  8
0
 10
2160.236777
 20
1092.184258
 42
0.026702
  0
VERTEX
  8
0
 10
2168.311870
 20
1085.024273
 42
0.025432
  0
VERTEX
  8
0
 10
2177.232145
 20
1078.640365
 42
0.013551
  0
VERTEX
  8
0
 10
2190.717245
 20
1070.498105
 42
0.002180
  0
VERTEX
  8
0
 10
2217.500000
 20
1055.455505
 42
-0.006280
  0
VERTEX
  8
0
 10
2243.001285
 20
1040.856319
 42
-0.009558
  0
VERTEX
  8
0
 10
2264.737239
 20
1027.481383
 42
-0.010954
  0
VERTEX
  8
0
 10
2282.272605
 20
1015.673220
 42
-0.027177
  0
VERTEX
  8
0
 10
2294.413848
 20
1006.076174
 42
-0.034751
  0
VERTEX
  8
0
 10
2307.514574
 20
992.782615
 42
-0.035944
  0
VERTEX
  8
0
 10
2318.487391
 20
977.944899
 42
-0.036746
  0
VERTEX
  8
0
 10
2327.009323
 20
962.023377
 42
-0.040283
  0
VERTEX
  8
0
 10
2332.807147
 20
945.500000
 42
-0.039905
  0
VERTEX
  8
0
 10
2337.758422
 20
917.847224
 42
-0.019352
  0
VERTEX
  8
0
 10
2339.867205
 20
881.967987
 42
-0.018916
  0
VERTEX
  8
0
 10
2339.187364
 20
843.824499
 42
-0.023992
  0
VERTEX
  8
0
 10
2335.542847
 20
808.780025
 42
-0.029364
  0
VERTEX
  8
0
 10
2330.834287
 20
786.722528
 42
-0.031200
  0
VERTEX
  8
0
 10
2323.643052
 20
765.823378
 42
-0.031857
  0
VERTEX
  8
0
 10
2314.075572
 20
746.389374
 42
-0.033685
  0
VERTEX
  8
0
 10
2302.273209
 20
728.705268
 42
-0.038969
  0
VERTEX
  8
0
 10
2283.619893
 20
708.018398
 42
-0.025141
  0
VERTEX
  8
0
 10
2259.112282
 20
687.001374
 42
-0.023059
  0
VERTEX
  8
0
 10
2234.810009
 20
669.925778
 42
-0.112596
  0
VERTEX
  8
0
 10
2219.077328
 20
664.322752
 42
-0.058816
  0
VERTEX
  8
0
 10
2214.497005
 20
664.320972
 42
-0.034051
  0
VERTEX
  8
0
 10
2209.077755
 20
665.336159
 42
-0.030302
  0
VERTEX
  8
0
 10
2203.108628
 20
667.273573
 42
-0.023266
  0
VERTEX
  8
0
 10
2196.850728
 20
670.075353
 42
-0.049801
  0
VERTEX
  8
0
 10
2186.996653
 20
676.349860
 42
-0.003237
  0
VERTEX
  8
0
 10
2160.456905
 20
697.505648
 42
-0.004940
  0
VERTEX
  8
0
 10
2134.511592
 20
718.890721
 42
-0.018543
  0
VERTEX
  8
0
 10
2118.878629
 20
733.059513
 42
-0.019520
  0
VERTEX
  8
0
 10
2113.555733
 20
738.678195
 42
-0.040892
  0
VERTEX
  8
0
 10
2109.974767
 20
743.512013
 42
-0.047688
  0
VERTEX
  8
0
 10
2107.574854
 20
748.349188
 42
-0.038516
  0
VERTEX
  8
0
 10
2105.925592
 20
753.911349
 42
-0.064751
  0
VERTEX
  8
0
 10
2105.499755
 20
759.096670
 42
-0.027682
  0
VERTEX
  8
0
 10
2106.214441
 20
766.028996
 42
-0.017173
  0
VERTEX
  8
0
 10
2108.160953
 20
776.019577
 42
-0.004422
  0
VERTEX
  8
0
 10
2111.997360
 20
792.000000
 42
0.007779
  0
VERTEX
  8
0
 10
2117.281971
 20
814.682689
 42
0.026489
  0
VERTEX
  8
0
 10
2119.703848
 20
829.654381
 42
0.041225
  0
VERTEX
  8
0
 10
2119.974213
 20
840.463972
 42
0.077096
  0
VERTEX
  8
0
 10
2118.143359
 20
849.000000
 42
0.038144
  0
VERTEX
  8
0
 10
2115.722671
 20
854.122925
 42
0.049731
  0
VERTEX
  8
0
 10
2112.723916
 20
858.349657
 42
0.052130
  0
VERTEX
  8
0
 10
2109.077388
 20
861.748070
 42
0.048843
  0
VERTEX
  8
0
 10
2104.729590
 20
864.404276
 42
0.086104
  0
VERTEX
  8
0
 10
2093.896424
 20
867.507977
 42
0.024604
  0
VERTEX
  8
0
 10
2076.381303
 20
868.525775
 42
0.024586
  0
VERTEX
  8
0
 10
2056.678876
 20
867.731019
 42
0.027896
  0
VERTEX
  8
0
 10
2037.974696
 20
864.994843
 42
0.006669
  0
VERTEX
  8
0
 10
2030.010014
 20
863.260791
 42
0.032056
  0
VERTEX
  8
0
 10
2025.565956
 20
861.925913
 42
0.053118
  0
VERTEX
  8
0
 10
2022.481874
 20
860.390125
 42
0.047328
  0
VERTEX
  8
0
 10
2019.658417
 20
858.186382
 42
0.050352
  0
VERTEX
  8
0
 10
2016.898472
 20
854.993813
 42
0.045404
  0
VERTEX
  8
0
 10
2014.721782
 20
851.205160
 42
0.039949
  0
VERTEX
  8
0
 10
2013.051600
 20
846.642105
 42
0.025303
  0
VERTEX
  8
0
 10
2011.812408
 20
841.111615
 42
0.052443
  0
VERTEX
  8
0
 10
2011.354115
 20
834.075046
 42
0.020815
  0
VERTEX
  8
0
 10
2012.142201
 20
824.412115
 42
0.012169
  0
VERTEX
  8
0
 10
2014.294850
 20
809.907862
 42
0.002645
  0
VERTEX
  8
0
 10
2018.749285
 20
785.000000
 42
-0.005089
  0
VERTEX
  8
0
 10
2020.516301
 20
774.832847
 42
-0.011462
  0
VERTEX
  8
0
 10
2021.600015
 20
767.085414
 42
-0.014027
  0
VERTEX
  8
0
 10
2022.193442
 20
760.359655
 42
-0.013355
  0
VERTEX
  8
0
 10
2022.421567
 20
753.500000
 42
-0.005853
  0
VERTEX
  8
0
 10
2022.384125
 20
746.257357
 42
-0.033272
  0
VERTEX
  8
0
 10
2022.063279
 20
742.418939
 42
-0.049240
  0
VERTEX
  8
0
 10
2021.284483
 20
739.347315
 42
-0.022809
  0
VERTEX
  8
0
 10
2019.708580
 20
735.538683
 42
-0.034674
  0
VERTEX
  8
0
 10
2016.077366
 20
729.004843
 42
-0.031441
  0
VERTEX
  8
0
 10
2011.468162
 20
722.806845
 42
-0.023882
  0
VERTEX
  8
0
 10
2005.036130
 20
715.903181
 42
-0.009374
  0
VERTEX
  8
0
 10
1995.552904
 20
706.993102
 42
-0.006579
  0
VERTEX
  8
0
 10
1978.965703
 20
692.376122
 42
-0.002215
  0
VERTEX
  8
0
 10
1954.402921
 20
671.486766
 42
-0.000172
  0
VERTEX
  8
0
 10
1927.059529
 20
648.456736
 42
-0.266706
  0
VERTEX
  8
0
 10
1925.841089
 20
648.237086
 42
-0.094583
  0
VERTEX
  8
0
 10
1922.513692
 20
650.193499
 42
-0.000613
  0
VERTEX
  8
0
 10
1896.824593
 20
672.786405
 42
-0.002231
  0
VERTEX
  8
0
 10
1873.401264
 20
693.624154
 42
-0.017143
  0
VERTEX
  8
0
 10
1862.803442
 20
703.814379
 42
-0.033530
  0
VERTEX
  8
0
 10
1838.454701
 20
732.506936
 42
-0.029964
  0
VERTEX
  8
0
 10
1817.147763
 20
765.260638
 42
-0.030245
  0
VERTEX
  8
0
 10
1800.108901
 20
799.968541
 42
-0.036152
  0
VERTEX
  8
0
 10
1788.526860
 20
834.500000
 42
-0.041743
  0
VERTEX
  8
0
 10
1783.573552
 20
863.722852
 42
-0.049389
  0
VERTEX
  8
0
 10
1783.972131
 20
891.730932
 42
-0.048312
  0
VERTEX
  8
0
 10
1789.901403
 20
919.620776
 42
-0.037297
  0
VERTEX
  8
0
 10
1801.455715
 20
948.500000
 42
-0.027901
  0
VERTEX
  8
0
 10
1812.453117
 20
968.117887
 42
-0.030672
  0
VERTEX
  8
0
 10
1825.255503
 20
985.749108
 42
-0.031955
  0
VERTEX
  8
0
 10
1839.567419
 20
1001.011962
 42
-0.036870
  0
VERTEX
  8
0
 10
1855.076372
 20
1013.552074
 42
0.029205
  0
VERTEX
  8
0
 10
1865.678798
 20
1021.859680
 42
0.037887
  0
VERTEX
  8
0
 10
1874.289561
 20
1030.703796
 42
0.041145
  0
VERTEX
  8
0
 10
1880.886391
 20
1040.061522
 42
0.048192
  0
VERTEX
  8
0
 10
1885.466611
 20
1049.905365
 42
0.066698
  0
VERTEX
  8
0
 10
1888.314086
 20
1063.532919
 42
0.052249
  0
VERTEX
  8
0
 10
1887.836150
 20
1078.644925
 42
0.046234
  0
VERTEX
  8
0
 10
1884.018612
 20
1095.065933
 42
0.032767
  0
VERTEX
  8
0
 10
1876.885914
 20
1112.600643
 42
0.025457
  0
VERTEX
  8
0
 10
1869.134156
 20
1126.698004
 42
0.011604
  0
VERTEX
  8
0
 10
1857.664910
 20
1144.324488
 42
0.011462
  0
VERTEX
  8
0
 10
1844.703517
 20
1162.365847
 42
0.015552
  0
VERTEX
  8
0
 10
1832.137846
 20
1178.000000
 42
0.012148
  0
VERTEX
  8
0
 10
1823.160139
 20
1187.983369
 42
0.008108
  0
VERTEX
  8
0
 10
1812.423854
 20
1198.990993
 42
0.004653
  0
VERTEX
  8
0
 10
1802.038500
 20
1209.108906
 42
0.088637
  0
VERTEX
  8
0
 10
1798.282119
 20
1211.603599
 42
0.048486
  0
VERTEX
  8
0
 10
1795.010547
 20
1212.660711
 42
0.066895
  0
VERTEX
  8
0
 10
1791.937486
 20
1212.913402
 42
0.074102
  0
VERTEX
  8
0
 10
1789.155382
 20
1212.350944
 42
0.079945
  0
VERTEX
  8
0
 10
1786.737236
 20
1211.007950
 42
0.077878
  0
VERTEX
  8
0
 10
1781.159157
 20
1205.006316
 42
0.010224
  0
VERTEX
  8
0
 10
1771.693943
 20
1190.334643
 42
0.010942
  0
VERTEX
  8
0
 10
1760.587004
 20
1171.404909
 42
0.006868
  0
VERTEX
  8
0
 10
1748.394762
 20
1148.819311
 42
-0.006477
  0
VERTEX
  8
0
 10
1733.188424
 20
1120.597459
 42
-0.006701
  0
VERTEX
  8
0
 10
1717.423442
 20
1093.099770
 42
-0.006902
  0
VERTEX
  8
0
 10
1701.428238
 20
1066.880273
 42
-0.008109
  0
VERTEX
  8
0
 10
1685.531701
 20
1042.500000
 42
0.027444
  0
VERTEX
  8
0
 10
1669.621044
 20
1015.905156
 42
0.015873
  0
VERTEX
  8
0
 10
1653.320938
 20
982.377491
 42
0.014217
  0
VERTEX
  8
0
 10
1637.130495
 20
943.251207
 42
0.010782
  0
VERTEX
  8
0
 10
1621.538336
 20
899.500000
 42
-0.009410
  0
VERTEX
  8
0
 10
1605.411794
 20
853.853645
 42
-0.017223
  0
VERTEX
  8
0
 10
1590.301643
 20
817.391906
 42
-0.020640
  0
VERTEX
  8
0
 10
1575.030430
 20
787.222750
 42
-0.026720
  0
VERTEX
  8
0
 10
1558.469780
 20
761.000000
 42
-0.033865
  0
VERTEX
  8
0
 10
1532.696335
 20
729.414753
 42
-0.034784
  0
VERTEX
  8
0
 10
1503.110055
 20
701.900154
 42
-0.032576
  0
VERTEX
  8
0
 10
1468.222421
 20
677.283913
 42
-0.023571
  0
VERTEX
  8
0
 10
1426.505593
 20
654.374346
 42
-0.015333
  0
VERTEX
  8
0
 10
1385.684889
 20
635.928650
 42
-0.035027
  0
VERTEX
  8
0
 10
1353.668615
 20
625.186456
 42
-0.033596
  0
VERTEX
  8
0
 10
1319.663113
 20
618.768887
 42
-0.013084
  0
VERTEX
  8
0
 10
1272.000000
 20
614.314059
 42
-0.010748
  0
VERTEX
  8
0
 10
1245.131558
 20
613.089849
 42
-0.004922
  0
VERTEX
  8
0
 10
1210.043527
 20
612.591845
 42
-0.004665
  0
VERTEX
  8
0
 10
1176.050501
 20
612.761222
 42
-0.017001
  0
VERTEX
  8
0
 10
1154.500000
 20
613.803191
 42
-0.007694
  0
VERTEX
  8
0
 10
1121.912289
 20
616.997168
 42
-0.009849
  0
VERTEX
  8
0
 10
1092.027116
 20
620.988958
 42
-0.010834
  0
VERTEX
  8
0
 10
1065.237303
 20
625.702133
 42
-0.016124
  0
VERTEX
  8
0
 10
1042.049029
 20
631.084119
 42
-0.045984
  0
VERTEX
  8
0
 10
990.332005
 20
650.091867
 42
-0.043412
  0
VERTEX
  8
0
 10
941.889875
 20
678.532322
 42
-0.043407
  0
VERTEX
  8
0
 10
899.081142
 20
714.913688
 42
-0.045950
  0
VERTEX
  8
0
 10
864.091098
 20
757.500000
 42
-0.026874
  0
VERTEX
  8
0
 10
842.478883
 20
793.373728
 42
-0.017408
  0
VERTEX
  8
0
 10
821.239105
 20
836.934055
 42
-0.016643
  0
VERTEX
  8
0
 10
801.891173
 20
884.601196
 42
-0.017127
  0
VERTEX
  8
0
 10
785.957154
 20
933.000000
 42
0.021847
  0
VERTEX
  8
0
 10
774.764487
 20
965.947092
 42
0.020191
  0
VERTEX
  8
0
 10
760.473600
 20
998.688909
 42
0.020905
  0
VERTEX
  8
0
 10
744.302255
 20
1028.736832
 42
0.030837
  0
VERTEX
  8
0
 10
727.462979
 20
1053.500000
 42
-0.018884
  0
VERTEX
  8
0
 10
713.472521
 20
1073.052451
 42
-0.010976
  0
VERTEX
  8
0
 10
698.105129
 20
1097.489901
 42
-0.010897
  0
VERTEX
  8
0
 10
683.546335
 20
1123.058597
 42
-0.016049
  0
VERTEX
  8
0
 10
671.988297
 20
1146.170119
 42
0.011239
  0
VERTEX
  8
0
 10
663.178201
 20
1164.218739
 42
0.013408
  0
VERTEX
  8
0
 10
654.043964
 20
1180.804623
 42
0.011345
  0
VERTEX
  8
0
 10
645.687626
 20
1194.345786
 42
0.096344
  0
VERTEX
  8
0
 10
640.746785
 20
1199.464805
 42
0.098007
  0
VERTEX
  8
0
 10
638.151610
 20
1200.610143
 42
0.062600
  0
VERTEX
  8
0
 10
634.858571
 20
1200.924579
 42
0.059864
  0
VERTEX
  8
0
 10
631.420168
 20
1200.406931
 42
0.069755
  0
VERTEX
  8
0
 10
628.389750
 20
1199.095947
 42
0.077504
  0
VERTEX
  8
0
 10
624.707497
 20
1195.980050
 42
0.007600
  0
VERTEX
  8
0
 10
617.203984
 20
1187.046526
 42
0.009848
  0
VERTEX
  8
0
 10
608.873615
 20
1176.395058
 42
0.009276
  0
VERTEX
  8
0
 10
600.797176
 20
1165.212089
 42
0.013194
  0
VERTEX
  8
0
 10
589.195230
 20
1147.524496
 42
0.009205
  0
VERTEX
  8
0
 10
577.012507
 20
1127.002931
 42
0.009266
  0
VERTEX
  8
0
 10
566.138569
 20
1107.041390
 42
0.020685
  0
VERTEX
  8
0
 10
558.793557
 20
1091.395106
 42
0.009183
  0
VERTEX
  8
0
 10
556.577170
 20
1085.832656
 42
0.029546
  0
VERTEX
  8
0
 10
555.393463
 20
1082.029424
 42
0.037220
  0
VERTEX
  8
0
 10
554.812322
 20
1078.608116
 42
0.022493
  0
VERTEX
  8
0
 10
554.611397
 20
1074.500000
 42
0.070161
  0
VERTEX
  8
0
 10
555.700538
 20
1066.552948
 42
0.073938
  0
VERTEX
  8
0
 10
558.941719
 20
1059.370460
 42
0.035982
  0
VERTEX
  8
0
 10
565.946540
 20
1050.029579
 42
0.005040
  0
VERTEX
  8
0
 10
581.966056
 20
1031.964500
 42
-0.018567
  0
VERTEX
  8
0
 10
603.604837
 20
1006.190764
 42
-0.021779
  0
VERTEX
  8
0
 10
622.084070
 20
980.181302
 42
-0.023578
  0
VERTEX
  8
0
 10
636.773486
 20
954.938791
 42
-0.035077
  0
VERTEX
  8
0
 10
646.953918
 20
931.500000
 42
-0.045299
  0
VERTEX
  8
0
 10
655.870169
 20
896.448614
 42
-0.052069
  0
VERTEX
  8
0
 10
657.750616
 20
861.986836
 42
-0.051129
  0
VERTEX
  8
0
 10
652.456545
 20
827.356873
 42
-0.041215
  0
VERTEX
  8
0
 10
640.028609
 20
791.800270
 42
-0.028590
  0
VERTEX
  8
0
 10
628.466011
 20
769.360974
 42
-0.022459
  0
VERTEX
  8
0
 10
613.516596
 20
746.437197
 42
-0.021126
  0
VERTEX
  8
0
 10
595.525691
 20
723.495401
 42
-0.018327
  0
VERTEX
  8
0
 10
574.822850
 20
701.000000
 42
-0.010810
  0
VERTEX
  8
0
 10
567.457426
 20
693.877944
 42
-0.015078
  0
VERTEX
  8
0
 10
560.547827
 20
687.856431
 42
-0.012227
  0
VERTEX
  8
0
 10
552.272358
 20
681.404299
 42
-0.004474
  0
VERTEX
  8
0
 10
540.268389
 20
672.673683
 42
0.000000
  0
VERTEX
  8
0
 10
518.093943
 20
656.847367
 42
0.000000
  0
VERTEX
  8
0
 10
487.840882
 20
682.173683
 42
-0.003467
  0
VERTEX
  8
0
 10
455.979145
 20
709.224661
 42
-0.016543
  0
VERTEX
  8
0
 10
438.413996
 20
725.390472
 42
-0.029197
  0
VERTEX
  8
0
 10
427.778179
 20
737.146803
 42
-0.061685
  0
VERTEX
  8
0
 10
421.322836
 20
747.586312
 42
-0.048410
  0
VERTEX
  8
0
 10
418.865097
 20
754.672558
 42
-0.072949
  0
VERTEX
  8
0
 10
418.269037
 20
761.171062
 42
-0.044858
  0
VERTEX
  8
0
 10
419.488868
 20
769.593604
 42
-0.008558
  0
VERTEX
  8
0
 10
423.329848
 20
784.598418
 42
0.005534
  0
VERTEX
  8
0
 10
428.496805
 20
804.286730
 42
0.014105
  0
VERTEX
  8
0
 10
431.680169
 20
818.699921
 42
0.019074
  0
VERTEX
  8
0
 10
433.426112
 20
830.172564
 42
0.028228
  0
VERTEX
  8
0
 10
434.000000
 20
840.329783
 42
0.019557
  0
VERTEX
  8
0
 10
433.687189
 20
848.324090
 42
0.042244
  0
VERTEX
  8
0
 10
432.691067
 20
854.394102
 42
0.049602
  0
VERTEX
  8
0
 10
430.823723
 20
859.570464
 42
0.039333
  0
VERTEX
  8
0
 10
427.847253
 20
864.721540
 42
0.070895
  0
VERTEX
  8
0
 10
422.566489
 20
870.457079
 42
0.068112
  0
VERTEX
  8
0
 10
415.825393
 20
874.581639
 42
0.053736
  0
VERTEX
  8
0
 10
406.871805
 20
877.407387
 42
0.024652
  0
VERTEX
  8
0
 10
394.750792
 20
879.227447
 42
0.029181
  0
VERTEX
  8
0
 10
379.929794
 20
879.841447
 42
0.032685
  0
VERTEX
  8
0
 10
365.696587
 20
878.667556
 42
0.034649
  0
VERTEX
  8
0
 10
352.556833
 20
875.771893
 42
0.044109
  0
VERTEX
  8
0
 10
341.008564
 20
871.234991
 42
0.012296
  0
VERTEX
  8
0
 10
336.732366
 20
868.970068
 42
0.051262
  0
VERTEX
  8
0
 10
334.352530
 20
867.292129
 42
0.066488
  0
VERTEX
  8
0
 10
332.678174
 20
865.388722
 42
0.030420
  0
VERTEX
  8
0
 10
331.008564
 20
862.525136
 42
0.028414
  0
VERTEX
  8
0
 10
329.659543
 20
859.423230
 42
0.048342
  0
VERTEX
  8
0
 10
328.941783
 20
856.689973
 42
0.034213
  0
VERTEX
  8
0
 10
328.627824
 20
853.279381
 42
0.007965
  0
VERTEX
  8
0
 10
328.584867
 20
847.525136
 42
0.016615
  0
VERTEX
  8
0
 10
328.818744
 20
841.918877
 42
0.003434
  0
VERTEX
  8
0
 10
329.625829
 20
832.073009
 42
0.003606
  0
VERTEX
  8
0
 10
330.724671
 20
820.646406
 42
0.003391
  0
VERTEX
  8
0
 10
332.009391
 20
809.000000
 42
-0.006588
  0
VERTEX
  8
0
 10
334.529659
 20
784.730315
 42
-0.017724
  0
VERTEX
  8
0
 10
335.480807
 20
767.408141
 42
-0.023539
  0
VERTEX
  8
0
 10
335.137283
 20
754.990921
 42
-0.089203
  0
VERTEX
  8
0
 10
333.203288
 20
747.500000
 42
-0.027077
  0
VERTEX
  8
0
 10
330.233591
 20
741.861107
 42
-0.038332
  0
VERTEX
  8
0
 10
326.959577
 20
737.231168
 42
-0.029616
  0
VERTEX
  8
0
 10
322.413630
 20
732.364536
 42
-0.009592
  0
VERTEX
  8
0
 10
315.141124
 20
725.709983
 42
-0.011553
  0
VERTEX
  8
0
 10
296.910255
 20
710.392708
 42
-0.006315
  0
VERTEX
  8
0
 10
273.896173
 20
692.419272
 42
-0.004318
  0
VERTEX
  8
0
 10
251.619304
 20
675.771915
 42
-0.050684
  0
VERTEX
  8
0
 10
242.293523
 20
670.284603
 42
-0.047252
  0
VERTEX
  8
0
 10
235.170571
 20
667.795915
 42
-0.052355
  0
VERTEX
  8
0
 10
227.949458
 20
666.799774
 42
-0.055911
  0
VERTEX
  8
0
 10
221.127906
 20
667.341427
 42
-0.071699
  0
VERTEX
  8
0
 10
215.185428
 20
669.404111
 42
-0.043065
  0
VERTEX
  8
0
 10
206.675320
 20
674.779029
 42
-0.009885
  0
VERTEX
  8
0
 10
193.332476
 20
685.331952
 42
-0.010569
  0
VERTEX
  8
0
 10
179.070210
 20
697.592696
 42
-0.013536
  0
VERTEX
  8
0
 10
166.499066
 20
709.500000
 42
-0.037252
  0
VERTEX
  8
0
 10
137.493051
 20
743.180246
 42
-0.058956
  0
VERTEX
  8
0
 10
118.627482
 20
776.227382
 42
-0.058068
  0
VERTEX
  8
0
 10
107.817394
 20
813.133035
 42
-0.034931
  0
VERTEX
  8
0
 10
103.297647
 20
858.591460
 42
-0.022108
  0
VERTEX
  8
0
 10
103.747417
 20
888.688202
 42
-0.023183
  0
VERTEX
  8
0
 10
106.867529
 20
918.149968
 42
-0.024712
  0
VERTEX
  8
0
 10
112.321433
 20
944.878693
 42
-0.040987
  0
VERTEX
  8
0
 10
119.830259
 20
966.614276
 42
-0.039829
  0
VERTEX
  8
0
 10
131.555962
 20
988.378604
 42
-0.040833
  0
VERTEX
  8
0
 10
146.498390
 20
1007.815365
 42
-0.038716
  0
VERTEX
  8
0
 10
165.157034
 20
1025.421193
 42
-0.029633
  0
VERTEX
  8
0
 10
188.000000
 20
1041.719770
 42
-0.011096
  0
VERTEX
  8
0
 10
201.666633
 20
1049.880283
 42
-0.011592
  0
VERTEX
  8
0
 10
215.486289
 20
1057.303418
 42
-0.009106
  0
VERTEX
  8
0
 10
232.230949
 20
1065.423494
 42
-0.003615
  0
VERTEX
  8
0
 10
255.500000
 20
1075.985011
 42
0.000000
  0
VERTEX
  8
0
 10
290.500000
 20
1091.566880
 42
0.000000
  0
VERTEX
  8
0
 10
297.168888
 20
1135.033440
 42
-0.000446
  0
VERTEX
  8
0
 10
303.886739
 20
1178.559816
 42
-0.002816
  0
VERTEX
  8
0
 10
307.455824
 20
1200.724396
 42
-0.004857
  0
VERTEX
  8
0
 10
310.388691
 20
1217.312009
 42
-0.003372
  0
VERTEX
  8
0
 10
314.011065
 20
1236.000000
 42
-0.018151
  0
VERTEX
  8
0
 10
331.159743
 20
1307.782502
 42
-0.017044
  0
VERTEX
  8
0
 10
353.784391
 20
1379.675582
 42
-0.017332
  0
VERTEX
  8
0
 10
380.776373
 20
1448.524201
 42
-0.020821
  0
VERTEX
  8
0
 10
411.025824
 20
1511.156449
 42
-0.009166
  0
VERTEX
  8
0
 10
425.362617
 20
1536.793332
 42
-0.015958
  0
VERTEX
  8
0
 10
438.307439
 20
1557.434060
 42
-0.013873
  0
VERTEX
  8
0
 10
453.738393
 20
1579.057840
 42
-0.005214
  0
VERTEX
  8
0
 10
476.493218
 20
1608.500000
 42
0.002222
  0
VERTEX
  8
0
 10
496.649355
 20
1634.259639
 42
0.004804
  0
VERTEX
  8
0
 10
511.873002
 20
1654.289134
 42
0.004470
  0
VERTEX
  8
0
 10
523.064191
 20
1669.594314
 42
0.044423
  0
VERTEX
  8
0
 10
527.105727
 20
1676.435009
 42
0.051435
  0
VERTEX
  8
0
 10
530.508271
 20
1685.991021
 42
0.049493
  0
VERTEX
  8
0
 10
531.946085
 20
1696.165732
 42
0.051833
  0
VERTEX
  8
0
 10
531.339412
 20
1705.923213
 42
0.072463
  0
VERTEX
  8
0
 10
528.674423
 20
1714.233020
 42
0.053009
  0
VERTEX
  8
0
 10
523.996975
 20
1721.678222
 42
0.011228
  0
VERTEX
  8
0
 10
514.234974
 20
1733.522825
 42
0.008122
  0
VERTEX
  8
0
 10
499.216924
 20
1750.371723
 42
0.002325
  0
VERTEX
  8
0
 10
475.394216
 20
1776.000000
 42
-0.026387
  0
VERTEX
  8
0
 10
415.937806
 20
1846.476198
 42
-0.055124
  0
VERTEX
  8
0
 10
379.205902
 20
1908.048535
 42
-0.059574
  0
VERTEX
  8
0
 10
358.498953
 20
1972.972007
 42
-0.036039
  0
VERTEX
  8
0
 10
349.011475
 20
2053.213339
 42
-0.016073
  0
VERTEX
  8
0
 10
348.556206
 20
2086.930388
 42
-0.012425
  0
VERTEX
  8
0
 10
350.153981
 20
2123.646717
 42
-0.012670
  0
VERTEX
  8
0
 10
353.445260
 20
2158.678287
 42
-0.023120
  0
VERTEX
  8
0
 10
358.168430
 20
2187.000000
 42
-0.020773
  0
VERTEX
  8
0
 10
363.919460
 20
2209.242482
 42
-0.018504
  0
VERTEX
  8
0
 10
371.692437
 20
2231.820512
 42
-0.018412
  0
VERTEX
  8
0
 10
381.161159
 20
2253.884064
 42
-0.019976
  0
VERTEX
  8
0
 10
391.995171
 20
2274.585338
 42
-0.016645
  0
VERTEX
  8
0
 10
404.178482
 20
2294.218714
 42
-0.008564
  0
VERTEX
  8
0
 10
420.657333
 20
2318.008441
 42
-0.008132
  0
VERTEX
  8
0
 10
439.507907
 20
2343.369366
 42
-0.008232
  0
VERTEX
  8
0
 10
459.098782
 20
2368.000000
 42
0.006247
  0
VERTEX
  8
0
 10
480.511197
 20
2394.702568
 42
0.008912
  0
VERTEX
  8
0
 10
498.793948
 20
2418.974753
 42
0.009834
  0
VERTEX
  8
0
 10
514.662488
 20
2441.772335
 42
0.011553
  0
VERTEX
  8
0
 10
528.762961
 20
2464.000000
 42
0.014366
  0
VERTEX
  8
0
 10
532.954821
 20
2471.433354
 42
0.033917
  0
VERTEX
  8
0
 10
535.529773
 20
2477.247188
 42
0.022941
  0
VERTEX
  8
0
 10
537.819596
 20
2484.565134
 42
0.003725
  0
VERTEX
  8
0
 10
541.504351
 20
2499.000000
 42
-0.009826
  0
VERTEX
  8
0
 10
550.366374
 20
2532.029799
 42
-0.021125
  0
VERTEX
  8
0
 10
558.756341
 20
2557.010148
 42
-0.027074
  0
VERTEX
  8
0
 10
567.480003
 20
2576.523632
 42
-0.040547
  0
VERTEX
  8
0
 10
577.321039
 20
2592.375259
 42
-0.024033
  0
VERTEX
  8
0
 10
584.229613
 20
2600.836913
 42
-0.016239
  0
VERTEX
  8
0
 10
592.860624
 20
2609.823336
 42
-0.016222
  0
VERTEX
  8
0
 10
602.074471
 20
2618.247450
 42
-0.023654
  0
VERTEX
  8
0
 10
610.758638
 20
2625.000000
 42
-0.025473
  0
VERTEX
  8
0
 10
629.348382
 20
2636.724340
 42
-0.006810
  0
VERTEX
  8
0
 10
660.079673
 20
2653.438132
 42
-0.007227
  0
VERTEX
  8
0
 10
693.068349
 20
2670.197302
 42
-0.012531
  0
VERTEX
  8
0
 10
721.000000
 20
2683.025408
 42
-0.019678
  0
VERTEX
  8
0
 10
767.811070
 20
2700.973232
 42
-0.012464
  0
VERTEX
  8
0
 10
823.619727
 20
2718.349829
 42
-0.011562
  0
VERTEX
  8
0
 10
885.545158
 20
2734.412619
 42
-0.010098
  0
VERTEX
  8
0
 10
951.000000
 20
2748.396473
 42
-0.004046
  0
VERTEX
  8
0
 10
983.362858
 20
2754.358785
 42
-0.006453
  0
VERTEX
  8
0
 10
1011.128023
 20
2758.873495
 42
-0.005910
  0
VERTEX
  8
0
 10
1040.675110
 20
2762.930923
 42
-0.002769
  0
VERTEX
  8
0
 10
1079.000000
 20
2767.517521
 42
0.002914
  0
VERTEX
  8
0
 10
1121.469299
 20
2772.612648
 42
0.012340
  0
VERTEX
  8
0
 10
1146.797481
 20
2776.438269
 42
0.020494
  0
VERTEX
  8
0
 10
1164.284970
 20
2780.267565
 42
0.034495
  0
VERTEX
  8
0
 10
1178.513855
 20
2785.070145
 42
0.057829
  0
VERTEX
  8
0
 10
1193.121693
 20
2793.241322
 42
0.040271
  0
VERTEX
  8
0
 10
1207.513117
 20
2805.512279
 42
0.038709
  0
VERTEX
  8
0
 10
1220.383089
 20
2820.580331
 42
0.041367
  0
VERTEX
  8
0
 10
1230.460133
 20
2837.134476
 42
0.016418
  0
VERTEX
  8
0
 10
1233.625724
 20
2844.013363
 42
0.072160
  0
VERTEX
  8
0
 10
1234.747410
 20
2848.327135
 42
0.118166
  0
VERTEX
  8
0
 10
1234.329237
 20
2851.657240
 42
0.085041
  0
VERTEX
  8
0
 10
1232.428338
 20
2854.902796
 42
0.068475
  0
VERTEX
  8
0
 10
1230.486622
 20
2856.656458
 42
0.042286
  0
VERTEX
  8
0
 10
1227.802141
 20
2858.169680
 42
0.025074
  0
VERTEX
  8
0
 10
1223.687589
 20
2859.806577
 42
0.005964
  0
VERTEX
  8
0
 10
1216.678338
 20
2862.102716
 42
0.005593
  0
VERTEX
  8
0
 10
1196.246144
 20
2868.276941
 42
0.004236
  0
VERTEX
  8
0
 10
1173.696123
 20
2874.610156
 42
0.003957
  0
VERTEX
  8
0
 10
1149.351003
 20
2881.019061
 42
0.003343
  0
VERTEX
  8
0
 10
1123.500000
 20
2887.422325
 42
-0.001472
  0
VERTEX
  8
0
 10
1097.851490
 20
2893.673660
 42
-0.002989
  0
VERTEX
  8
0
 10
1077.726418
 20
2898.769388
 42
-0.003745
  0
VERTEX
  8
0
 10
1061.357082
 20
2903.149551
 42
-0.006049
  0
VERTEX
  8
0
 10
1047.500000
 20
2907.149898
 42
-0.003609
  0
VERTEX
  8
0
 10
1033.678654
 20
2911.430802
 42
-0.003610
  0
VERTEX
  8
0
 10
1019.921222
 20
2915.910579
 42
-0.001169
  0
VERTEX
  8
0
 10
1007.158885
 20
2920.201664
 42
-0.087126
  0
VERTEX
  8
0
 10
1005.250000
 20
2921.245751
 42
-0.198987
  0
VERTEX
  8
0
 10
1004.026416
 20
2923.466298
 42
-0.130022
  0
VERTEX
  8
0
 10
1004.462971
 20
2926.398354
 42
-0.062587
  0
VERTEX
  8
0
 10
1006.871664
 20
2930.496082
 42
-0.015443
  0
VERTEX
  8
0
 10
1011.831275
 20
2936.538384
 42
-0.012129
  0
VERTEX
  8
0
 10
1019.320858
 20
2944.700679
 42
-0.014287
  0
VERTEX
  8
0
 10
1026.810074
 20
2952.043424
 42
-0.009320
  0
VERTEX
  8
0
 10
1036.927315
 20
2961.066807
 42
-0.002165
  0
VERTEX
  8
0
 10
1054.274190
 20
2975.837012
 42
0.003683
  0
VERTEX
  8
0
 10
1062.602330
 20
2982.971824
 42
0.005839
  0
VERTEX
  8
0
 10
1069.618043
 20
2989.217805
 42
0.001775
  0
VERTEX
  8
0
 10
1075.588867
 20
2994.698781
 42
0.209120
  0
VERTEX
  8
0
 10
1076.000000
 20
2995.638800
 42
0.059777
  0
VERTEX
  8
0
 10
1075.863998
 20
2996.772309
 42
0.000258
  0
VERTEX
  8
0
 10
1072.935060
 20
3008.775273
 42
0.001256
  0
VERTEX
  8
0
 10
1069.565801
 20
3022.403449
 42
0.000791
  0
VERTEX
  8
0
 10
1065.566160
 20
3038.301788
 42
-0.010952
  0
VERTEX
  8
0
 10
1053.921737
 20
3088.912738
 42
-0.030143
  0
VERTEX
  8
0
 10
1048.669524
 20
3125.141163
 42
-0.041419
  0
VERTEX
  8
0
 10
1048.642930
 20
3154.270761
 42
-0.048279
  0
VERTEX
  8
0
 10
1053.551761
 20
3181.500000
 42
-0.029628
  0
VERTEX
  8
0
 10
1056.915464
 20
3191.191038
 42
-0.016141
  0
VERTEX
  8
0
 10
1062.116817
 20
3202.665242
 42
-0.016135
  0
VERTEX
  8
0
 10
1068.065104
 20
3213.813152
 42
-0.028826
  0
VERTEX
  8
0
 10
1073.757097
 20
3222.500000
 42
-0.040095
  0
VERTEX
  8
0
 10
1088.095850
 20
3238.920045
 42
-0.021355
  0
VERTEX
  8
0
 10
1108.206731
 20
3256.921544
 42
-0.021322
  0
VERTEX
  8
0
 10
1129.971735
 20
3273.288373
 42
-0.036975
  0
VERTEX
  8
0
 10
1149.500000
 20
3284.683487
 42
-0.019439
  0
VERTEX
  8
0
 10
1157.771751
 20
3288.332117
 42
-0.014923
  0
VERTEX
  8
0
 10
1167.060785
 20
3291.688274
 42
-0.014883
  0
VERTEX
  8
0
 10
1176.568119
 20
3294.495405
 42
-0.018902
  0
VERTEX
  8
0
 10
1185.500000
 20
3296.488415
 42
-0.038834
  0
VERTEX
  8
0
 10
1195.890143
 20
3297.574046
 42
-0.013192
  0
VERTEX
  8
0
 10
1211.086555
 20
3297.575531
 42
-0.013473
  0
VERTEX
  8
0
 10
1226.565327
 20
3296.750843
 42
-0.030198
  0
SEQEND
  0
POLYLINE
  8
0
 66
1
 70
1
  0
VERTEX
  8
0
 10
1076.000000
 20
438.970104
 42
0.007072
  0
VERTEX
  8
0
 10
1032.794641
 20
436.351880
 42
0.006048
  0
VERTEX
  8
0
 10
987.361447
 20
432.399926
 42
0.006227
  0
VERTEX
  8
0
 10
944.291644
 20
427.585684
 42
0.010649
  0
VERTEX
  8
0
 10
908.500000
 20
422.356720
 42
0.018647
  0
VERTEX
  8
0
 10
880.863883
 20
416.649342
 42
0.024548
  0
VERTEX
  8
0
 10
856.201018
 20
409.288799
 42
0.024662
  0
VERTEX
  8
0
 10
836.771309
 20
401.337756
 42
0.135841
  0
VERTEX
  8
0
 10
828.255363
 20
394.050966
 42
0.110468
  0
VERTEX
  8
0
 10
826.189383
 20
388.770641
 42
0.087846
  0
VERTEX
  8
0
 10
826.326447
 20
382.635417
 42
0.065274
  0
VERTEX
  8
0
 10
828.788621
 20
375.398544
 42
0.030400
  0
VERTEX
  8
0
 10
833.715786
 20
366.774779
 42
0.048595
  0
VERTEX
  8
0
 10
840.238757
 20
358.658364
 42
0.043789
  0
VERTEX
  8
0
 10
848.422197
 20
351.636085
 42
0.043660
  0
VERTEX
  8
0
 10
857.730110
 20
346.127305
 42
0.047605
  0
VERTEX
  8
0
 10
867.592201
 20
342.505060
 42
0.049854
  0
VERTEX
  8
0
 10
882.637371
 20
340.119828
 42
0.001268
  0
VERTEX
  8
0
 10
951.429377
 20
336.327735
 42
0.002650
  0
VERTEX
  8
0
 10
1033.296574
 20
332.457992
 42
0.001692
  0
VERTEX
  8
0
 10
1128.500000
 20
328.786174
 42
0.007617
  0
VERTEX
  8
0
 10
1197.594575
 20
327.408914
 42
0.002980
  0
VERTEX
  8
0
 10
1292.989431
 20
327.529460
 42
0.002807
  0
VERTEX
  8
0
 10
1386.289538
 20
328.727257
 42
0.011166
  0
VERTEX
  8
0
 10
1443.500000
 20
331.061684
 42
0.018871
  0
VERTEX
  8
0
 10
1485.037193
 20
335.264975
 42
0.018739
  0
VERTEX
  8
0
 10
1526.237911
 20
342.594721
 42
0.018785
  0
VERTEX
  8
0
 10
1566.672421
 20
352.966771
 42
0.019201
  0
VERTEX
  8
0
 10
1605.915294
 20
366.279866
 42
0.029592
  0
VERTEX
  8
0
 10
1612.662108
 20
369.330350
 42
0.052468
  0
VERTEX
  8
0
 10
1617.733391
 20
372.715844
 42
0.068787
  0
VERTEX
  8
0
 10
1620.935038
 20
376.222482
 42
0.151802
  0
VERTEX
  8
0
 10
1622.000000
 20
379.649383
 42
0.106801
  0
VERTEX
  8
0
 10
1621.255565
 20
383.094776
 42
0.039849
  0
VERTEX
  8
0
 10
1618.846550
 20
387.449965
 42
0.038776
  0
VERTEX
  8
0
 10
1615.507257
 20
391.731185
 42
0.050112
  0
VERTEX
  8
0
 10
1611.798098
 20
395.055419
 42
0.043279
  0
VERTEX
  8
0
 10
1599.245600
 20
402.649552
 42
0.018055
  0
VERTEX
  8
0
 10
1581.174923
 20
410.751308
 42
0.017242
  0
VERTEX
  8
0
 10
1560.490849
 20
418.322300
 42
0.017666
  0
VERTEX
  8
0
 10
1539.500000
 20
424.382773
 42
0.025233
  0
VERTEX
  8
0
 10
1514.288953
 20
429.369904
 42
0.018891
  0
VERTEX
  8
0
 10
1486.135784
 20
432.395590
 42
0.008413
  0
VERTEX
  8
0
 10
1441.760036
 20
434.725596
 42
0.000970
  0
VERTEX
  8
0
 10
1342.000000
 20
438.088098
 42
0.006226
  0
VERTEX
  8
0
 10
1296.260261
 20
438.971068
 42
0.000884
  0
VERTEX
  8
0
 10
1202.249504
 20
439.448949
 42
0.000612
  0
VERTEX
  8
0
 10
1105.894057
 20
439.650510
 42
0.011813
  0
SEQEND
  0
POLYLINE
  8
0
 66
1
 70
1
  0
VERTEX
  8
0
 10
1337.500000
 20
435.072865
 42
-0.000641
  0
VERTEX
  8
0
 10
1397.552945
 20
433.145195
 42
-0.001520
  0
VERTEX
  8
0
 10
1442.238293
 20
431.517424
 42
-0.001722
  0
VERTEX
  8
0
 10
1475.115330
 20
430.106283
 42
-0.009906
  0
VERTEX
  8
0
 10
1492.500000
 20
428.954599
 42
-0.022356
  0
VERTEX
  8
0
 10
1519.985743
 20
425.342549
 42
-0.023416
  0
VERTEX
  8
0
 10
1546.611027
 20
419.327215
 42
-0.023806
  0
VERTEX
  8
0
 10
1572.133229
 20
410.964988
 42
-0.025005
  0
VERTEX
  8
0
 10
1596.318885
 20
400.331441
 42
-0.027056
  0
VERTEX
  8
0
 10
1606.334774
 20
394.619008
 42
-0.050040
  0
VERTEX
  8
0
 10
1613.655819
 20
388.789999
 42
-0.067666
  0
VERTEX
  8
0
 10
1617.949959
 20
383.294069
 42
-0.195960
  0
VERTEX
  8
0
 10
1618.615937
 20
378.605906
 42
-0.141141
  0
VERTEX
  8
0
 10
1617.169604
 20
376.116536
 42
-0.057358
  0
VERTEX
  8
0
 10
1614.018508
 20
373.723829
 42
-0.033015
  0
VERTEX
  8
0
 10
1608.646463
 20
371.002795
 42
-0.008177
  0
VERTEX
  8
0
 10
1599.500000
 20
367.280580
 42
-0.020408
  0
VERTEX
  8
0
 10
1567.840350
 20
356.460250
 42
-0.016004
  0
VERTEX
  8
0
 10
1532.736546
 20
347.253014
 42
-0.015694
  0
VERTEX
  8
0
 10
1496.270761
 20
340.121982
 42
-0.017163
  0
VERTEX
  8
0
 10
1460.500000
 20
335.539677
 42
-0.015521
  0
VERTEX
  8
0
 10
1411.675898
 20
332.506527
 42
-0.003853
  0
VERTEX
  8
0
 10
1331.587785
 20
330.640354
 42
-0.004119
  0
VERTEX
  8
0
 10
1244.997854
 20
330.003635
 42
-0.006078
  0
VERTEX
  8
0
 10
1169.000000
 20
330.994663
 42
-0.003029
  0
VERTEX
  8
0
 10
1074.984932
 20
333.933866
 42
-0.002729
  0
VERTEX
  8
0
 10
977.685243
 20
338.097885
 42
-0.001069
  0
VERTEX
  8
0
 10
886.865745
 20
342.675956
 42
-0.050619
  0
VERTEX
  8
0
 10
868.705150
 20
345.488581
 42
-0.059637
  0
VERTEX
  8
0
 10
857.819238
 20
349.760225
 42
-0.047753
  0
VERTEX
  8
0
 10
847.335712
 20
356.756862
 42
-0.047996
  0
VERTEX
  8
0
 10
838.426846
 20
365.567559
 42
-0.062171
  0
VERTEX
  8
0
 10
832.222757
 20
375.228960
 42
-0.054270
  0
VERTEX
  8
0
 10
829.279457
 20
383.596830
 42
-0.151833
  0
VERTEX
  8
0
 10
829.719160
 20
389.729459
 42
-0.140370
  0
VERTEX
  8
0
 10
833.613160
 20
394.832054
 42
-0.043870
  0
VERTEX
  8
0
 10
841.887803
 20
399.931927
 42
-0.032736
  0
VERTEX
  8
0
 10
858.050883
 20
406.750445
 42
-0.020681
  0
VERTEX
  8
0
 10
877.657458
 20
412.652632
 42
-0.017447
  0
VERTEX
  8
0
 10
901.209240
 20
417.824291
 42
-0.010447
  0
VERTEX
  8
0
 10
929.500000
 20
422.400678
 42
-0.006858
  0
VERTEX
  8
0
 10
967.648449
 20
427.223868
 42
-0.006455
  0
VERTEX
  8
0
 10
1006.693598
 20
431.107521
 42
-0.006149
  0
VERTEX
  8
0
 10
1047.637132
 20
434.140090
 42
-0.005024
  0
VERTEX
  8
0
 10
1091.500000
 20
436.404774
 42
-0.011416
  0
VERTEX
  8
0
 10
1113.701694
 20
436.820121
 42
-0.000322
  0
VERTEX
  8
0
 10
1209.103170
 20
436.365069
 42
-0.000519
  0
VERTEX
  8
0
 10
1300.986356
 20
435.772152
 42
-0.005829
  0
SEQEND
  0
POLYLINE
  8
0
 66
1
 70
1
  0
VERTEX
  8
0
 10
1204.500000
 20
3240.441909
 42
0.049042
  0
VERTEX
  8
0
 10
1179.205799
 20
3233.104771
 42
0.047185
  0
VERTEX
  8
0
 10
1155.474442
 20
3220.911496
 42
0.047486
  0
VERTEX
  8
0
 10
1134.589600
 20
3204.574052
 42
0.051118
  0
VERTEX
  8
0
 10
1117.730279
 20
3184.956071
 42
0.045445
  0
VERTEX
  8
0
 10
1108.192501
 20
3168.179158
 42
0.043100
  0
VERTEX
  8
0
 10
1101.641896
 20
3149.658873
 42
0.043917
  0
VERTEX
  8
0
 10
1098.457580
 20
3130.657634
 42
0.051935
  0
VERTEX
  8
0
 10
1098.922121
 20
3112.453641
 42
0.047288
  0
VERTEX
  8
0
 10
1105.314815
 20
3084.367252
 42
0.046270
  0
VERTEX
  8
0
 10
1116.901452
 20
3057.765143
 42
0.049207
  0
VERTEX
  8
0
 10
1132.188035
 20
3035.496615
 42
0.078528
  0
VERTEX
  8
0
 10
1149.595810
 20
3020.408318
 42
0.079263
  0
VERTEX
  8
0
 10
1179.100292
 20
3007.961461
 42
0.067524
  0
VERTEX
  8
0
 10
1212.724370
 20
3004.378096
 42
0.065360
  0
VERTEX
  8
0
 10
1247.127847
 20
3009.902157
 42
0.065576
  0
VERTEX
  8
0
 10
1278.898243
 20
3024.116867
 42
0.032463
  0
VERTEX
  8
0
 10
1286.901283
 20
3029.789018
 42
0.018117
  0
VERTEX
  8
0
 10
1295.901663
 20
3037.646532
 42
0.017987
  0
VERTEX
  8
0
 10
1304.488186
 20
3046.310852
 42
0.027141
  0
VERTEX
  8
0
 10
1311.255922
 20
3054.500000
 42
0.027234
  0
VERTEX
  8
0
 10
1317.090781
 20
3063.368618
 42
0.019215
  0
VERTEX
  8
0
 10
1322.696900
 20
3073.903263
 42
0.019313
  0
VERTEX
  8
0
 10
1327.430948
 20
3084.736150
 42
0.029374
  0
VERTEX
  8
0
 10
1330.608638
 20
3094.500000
 42
0.039785
  0
VERTEX
  8
0
 10
1333.390286
 20
3110.106693
 42
0.034625
  0
VERTEX
  8
0
 10
1333.849125
 20
3126.708460
 42
0.034174
  0
VERTEX
  8
0
 10
1332.001969
 20
3143.446483
 42
0.036121
  0
VERTEX
  8
0
 10
1327.905255
 20
3159.460898
 42
0.043654
  0
VERTEX
  8
0
 10
1320.285268
 20
3176.997464
 42
0.033289
  0
VERTEX
  8
0
 10
1309.094775
 20
3194.700232
 42
0.033038
  0
VERTEX
  8
0
 10
1295.532978
 20
3210.922269
 42
0.040692
  0
VERTEX
  8
0
 10
1280.802140
 20
3224.028160
 42
0.016215
  0
VERTEX
  8
0
 10
1273.872426
 20
3228.905837
 42
0.025032
  0
VERTEX
  8
0
 10
1267.556690
 20
3232.613501
 42
0.025112
  0
VERTEX
  8
0
 10
1260.917144
 20
3235.663178
 42
0.016462
  0
VERTEX
  8
0
 10
1253.000000
 20
3238.530241
 42
0.017116
  0
VERTEX
  8
0
 10
1247.715265
 20
3240.051565
 42
0.030218
  0
VERTEX
  8
0
 10
1243.254703
 20
3240.889292
 42
0.021484
  0
VERTEX
  8
0
 10
1237.802365
 20
3241.338838
 42
0.004842
  0
VERTEX
  8
0
 10
1228.500000
 20
3241.614426
 42
0.006189
  0
VERTEX
  8
0
 10
1220.770518
 20
3241.672811
 42
0.010998
  0
VERTEX
  8
0
 10
1214.405910
 20
3241.502067
 42
0.013229
  0
VERTEX
  8
0
 10
1209.064754
 20
3241.099264
 42
0.020650
  0
SEQEND
  0
POLYLINE
  8
0
 66
1
 70
1
  0
VERTEX
  8
0
 10
1244.792158
 20
3237.415883
 42
-0.039160
  0
VERTEX
  8
0
 10
1257.036173
 20
3233.882103
 42
-0.040084
  0
VERTEX
  8
0
 10
1268.479628
 20
3228.503370
 42
-0.037576
  0
VERTEX
  8
0
 10
1279.538485
 20
3221.024525
 42
-0.027492
  0
VERTEX
  8
0
 10
1290.639103
 20
3211.195556
 42
-0.017943
  0
VERTEX
  8
0
 10
1298.493611
 20
3202.852223
 42
-0.017503
  0
VERTEX
  8
0
 10
1305.797739
 20
3193.899686
 42
-0.018071
  0
VERTEX
  8
0
 10
1312.204555
 20
3184.795208
 42
-0.023513
  0
VERTEX
  8
0
 10
1317.358412
 20
3176.000000
 42
-0.074727
  0
VERTEX
  8
0
 10
1329.061688
 20
3142.257548
 42
-0.081241
  0
VERTEX
  8
0
 10
1329.844642
 20
3107.553394
 42
-0.080754
  0
VERTEX
  8
0
 10
1319.512677
 20
3074.238760
 42
-0.072671
  0
VERTEX
  8
0
 10
1298.891100
 20
3044.542740
 42
-0.063197
  0
VERTEX
  8
0
 10
1278.441940
 20
3027.578816
 42
-0.054375
  0
VERTEX
  8
0
 10
1253.365807
 20
3015.228442
 42
-0.053749
  0
VERTEX
  8
0
 10
1225.909658
 20
3008.462777
 42
-0.058511
  0
VERTEX
  8
0
 10
1198.433606
 20
3007.986827
 42
-0.026112
  0
VERTEX
  8
0
 10
1184.639055
 20
3010.096793
 42
-0.029366
  0
VERTEX
  8
0
 10
1171.681777
 20
3013.581316
 42
-0.030745
  0
VERTEX
  8
0
 10
1159.784589
 20
3018.373175
 42
-0.035601
  0
VERTEX
  8
0
 10
1149.160384
 20
3024.393377
 42
-0.077754
  0
VERTEX
  8
0
 10
1132.661298
 20
3039.516238
 42
-0.048122
  0
VERTEX
  8
0
 10
1118.273713
 20
3061.595297
 42
-0.045476
  0
VERTEX
  8
0
 10
1107.538679
 20
3087.676377
 42
-0.047841
  0
VERTEX
  8
0
 10
1101.922125
 20
3114.829567
 42
-0.050013
  0
VERTEX
  8
0
 10
1101.778282
 20
3131.914187
 42
-0.042070
  0
VERTEX
  8
0
 10
1104.941925
 20
3149.743398
 42
-0.041202
  0
VERTEX
  8
0
 10
1111.149121
 20
3167.176560
 42
-0.043060
  0
VERTEX
  8
0
 10
1120.057989
 20
3183.085393
 42
-0.029005
  0
VERTEX
  8
0
 10
1125.505174
 20
3190.183592
 42
-0.015572
  0
VERTEX
  8
0
 10
1132.982179
 20
3198.311959
 42
-0.015426
  0
VERTEX
  8
0
 10
1141.181353
 20
3206.185211
 42
-0.022582
  0
VERTEX
  8
0
 10
1148.901711
 20
3212.545649
 42
-0.030586
  0
VERTEX
  8
0
 10
1161.599566
 20
3220.915920
 42
-0.026119
  0
VERTEX
  8
0
 10
1175.898598
 20
3228.169049
 42
-0.026664
  0
VERTEX
  8
0
 10
1190.477608
 20
3233.721419
 42
-0.037546
  0
VERTEX
  8
0
 10
1204.000000
 20
3236.966357
 42
0.000610
  0
VERTEX
  8
0
 10
1206.981764
 20
3237.452689
 42
0.000772
  0
VERTEX
  8
0
 10
1209.737500
 20
3237.909980
 42
0.000608
  0
VERTEX
  8
0
 10
1212.048046
 20
3238.299953
 42
0.006263
  0
VERTEX
  8
0
 10
1213.000000
 20
3238.474111
 42
-0.048136
  0
VERTEX
  8
0
 10
1218.303917
 20
3238.991688
 42
-0.008588
  0
VERTEX
  8
0
 10
1228.271567
 20
3238.831219
 42
-0.009471
  0
VERTEX
  8
0
 10
1238.338904
 20
3238.305073
 42
-0.032897
  0
SEQEND
  0
POLYLINE
  8
0
 66
1
 70
1
  0
VERTEX
  8
0
 10
1110.500000
 20
2719.404609
 42
0.009789
  0
VERTEX
  8
0
 10
1056.643646
 20
2715.075255
 42
0.017681
  0
VERTEX
  8
0
 10
1012.797061
 20
2709.112988
 42
0.016735
  0
VERTEX
  8
0
 10
967.901393
 20
2699.826146
 42
0.007785
  0
VERTEX
  8
0
 10
910.307715
 20
2684.935021
 42
0.006417
  0
VERTEX
  8
0
 10
865.556109
 20
2671.997757
 42
0.003880
  0
VERTEX
  8
0
 10
812.875683
 20
2655.585624
 42
0.003741
  0
VERTEX
  8
0
 10
763.269185
 20
2639.297656
 42
0.012110
  0
VERTEX
  8
0
 10
730.692148
 20
2627.444682
 42
0.014709
  0
VERTEX
  8
0
 10
714.382364
 20
2620.499163
 42
0.009002
  0
VERTEX
  8
0
 10
695.553295
 20
2611.403446
 42
0.008610
  0
VERTEX
  8
0
 10
678.137281
 20
2602.220328
 42
0.029829
  0
VERTEX
  8
0
 10
667.360735
 20
2595.432547
 42
0.028760
  0
VERTEX
  8
0
 10
658.797028
 20
2588.518252
 42
0.011250
  0
VERTEX
  8
0
 10
647.771836
 20
2578.055378
 42
0.011311
  0
VERTEX
  8
0
 10
636.674961
 20
2566.529629
 42
0.017286
  0
VERTEX
  8
0
 10
627.638101
 20
2556.000000
 42
0.013861
  0
VERTEX
  8
0
 10
620.581372
 20
2546.658612
 42
0.007813
  0
VERTEX
  8
0
 10
612.517772
 20
2534.963160
 42
0.007754
  0
VERTEX
  8
0
 10
605.042323
 20
2523.364023
 42
0.018724
  0
VERTEX
  8
0
 10
599.976852
 20
2514.507461
 42
0.009464
  0
VERTEX
  8
0
 10
597.733558
 20
2510.015456
 42
0.038581
  0
VERTEX
  8
0
 10
596.638912
 20
2507.168870
 42
0.057438
  0
VERTEX
  8
0
 10
596.218681
 20
2504.795448
 42
0.043210
  0
VERTEX
  8
0
 10
596.287324
 20
2502.143225
 42
0.053415
  0
VERTEX
  8
0
 10
597.063503
 20
2498.655372
 42
0.059828
  0
VERTEX
  8
0
 10
598.544589
 20
2495.551439
 42
0.063355
  0
VERTEX
  8
0
 10
600.626566
 20
2493.035357
 42
0.074243
  0
VERTEX
  8
0
 10
603.172488
 20
2491.275689
 42
0.128774
  0
VERTEX
  8
0
 10
608.813119
 20
2490.129791
 42
0.007650
  0
VERTEX
  8
0
 10
626.324977
 20
2491.375486
 42
0.009487
  0
VERTEX
  8
0
 10
649.700391
 20
2493.845766
 42
0.004003
  0
VERTEX
  8
0
 10
681.000000
 20
2498.010009
 42
-0.004245
  0
VERTEX
  8
0
 10
704.603388
 20
2501.138681
 42
-0.011031
  0
VERTEX
  8
0
 10
721.661297
 20
2502.871420
 42
-0.012575
  0
VERTEX
  8
0
 10
737.443795
 20
2503.724867
 42
-0.007219
  0
VERTEX
  8
0
 10
756.500000
 20
2504.000000
 42
-0.006398
  0
VERTEX
  8
0
 10
773.845502
 20
2503.778035
 42
-0.009946
  0
VERTEX
  8
0
 10
788.788815
 20
2503.097907
 42
-0.010368
  0
VERTEX
  8
0
 10
803.227412
 20
2501.851546
 42
-0.007870
  0
VERTEX
  8
0
 10
819.000000
 20
2499.908366
 42
-0.026485
  0
VERTEX
  8
0
 10
873.492187
 20
2489.356177
 42
-0.028376
  0
VERTEX
  8
0
 10
925.293562
 20
2473.276877
 42
-0.028771
  0
VERTEX
  8
0
 10
974.278807
 20
2451.680670
 42
-0.028949
  0
VERTEX
  8
0
 10
1020.356182
 20
2424.643179
 42
-0.008657
  0
VERTEX
  8
0
 10
1036.259706
 20
2413.626063
 42
-0.014914
  0
VERTEX
  8
0
 10
1049.052302
 20
2403.840759
 42
-0.015427
  0
VERTEX
  8
0
 10
1060.939534
 20
2393.547483
 42
-0.010108
  0
VERTEX
  8
0
 10
1074.015962
 20
2381.000843
 42
-0.012651
  0
VERTEX
  8
0
 10
1088.025865
 20
2366.276996
 42
-0.018448
  0
VERTEX
  8
0
 10
1099.540707
 20
2352.560637
 42
-0.014800
  0
VERTEX
  8
0
 10
1111.694061
 20
2335.957485
 42
-0.005112
  0
VERTEX
  8
0
 10
1128.284923
 20
2311.288317
 42
0.001528
  0
VERTEX
  8
0
 10
1135.703046
 20
2300.085626
 42
0.002502
  0
VERTEX
  8
0
 10
1142.063517
 20
2290.646311
 42
0.000314
  0
VERTEX
  8
0
 10
1147.764134
 20
2282.288197
 42
0.233489
  0
VERTEX
  8
0
 10
1148.207901
 20
2282.038317
 42
0.294913
  0
VERTEX
  8
0
 10
1148.626805
 20
2282.277884
 42
0.000139
  0
VERTEX
  8
0
 10
1156.201955
 20
2296.919068
 42
0.001774
  0
VERTEX
  8
0
 10
1164.594677
 20
2313.293584
 42
0.001071
  0
VERTEX
  8
0
 10
1174.427629
 20
2332.750000
 42
-0.002195
  0
VERTEX
  8
0
 10
1192.569921
 20
2368.448621
 42
-0.005671
  0
VERTEX
  8
0
 10
1206.065636
 20
2394.000871
 42
-0.007369
  0
VERTEX
  8
0
 10
1217.799751
 20
2414.880512
 42
-0.007578
  0
VERTEX
  8
0
 10
1230.037868
 20
2435.209353
 42
-0.021569
  0
VERTEX
  8
0
 10
1263.269708
 20
2483.765311
 42
-0.026178
  0
VERTEX
  8
0
 10
1298.613891
 20
2526.099224
 42
-0.027582
  0
VERTEX
  8
0
 10
1336.413530
 20
2562.579962
 42
-0.029994
  0
VERTEX
  8
0
 10
1377.000000
 20
2593.595928
 42
-0.013965
  0
VERTEX
  8
0
 10
1400.625649
 20
2608.560725
 42
-0.022020
  0
VERTEX
  8
0
 10
1421.768134
 20
2619.910364
 42
-0.020337
  0
VERTEX
  8
0
 10
1445.004338
 20
2629.953373
 42
-0.009900
  0
VERTEX
  8
0
 10
1475.398581
 20
2640.962019
 42
0.001142
  0
VERTEX
  8
0
 10
1500.275336
 20
2649.482419
 42
0.009574
  0
VERTEX
  8
0
 10
1511.428905
 20
2653.571661
 42
0.019316
  0
VERTEX
  8
0
 10
1517.727012
 20
2656.302939
 42
0.099354
  0
VERTEX
  8
0
 10
1520.750000
 20
2658.581409
 42
0.142704
  0
VERTEX
  8
0
 10
1522.814808
 20
2662.929245
 42
0.101848
  0
VERTEX
  8
0
 10
1522.581184
 20
2668.343892
 42
0.094739
  0
VERTEX
  8
0
 10
1520.158049
 20
2673.558019
 42
0.104129
  0
VERTEX
  8
0
 10
1516.045712
 20
2677.307979
 42
0.066270
  0
VERTEX
  8
0
 10
1509.660402
 20
2680.003766
 42
0.001870
  0
VERTEX
  8
0
 10
1480.843679
 20
2687.774607
 42
0.004303
  0
VERTEX
  8
0
 10
1452.202994
 20
2695.119912
 42
0.009898
  0
VERTEX
  8
0
 10
1430.504703
 20
2700.032524
 42
0.015855
  0
VERTEX
  8
0
 10
1397.154938
 20
2705.796689
 42
0.009634
  0
VERTEX
  8
0
 10
1357.422148
 20
2710.594635
 42
0.008041
  0
VERTEX
  8
0
 10
1309.912954
 20
2714.634214
 42
0.004611
  0
VERTEX
  8
0
 10
1252.500000
 20
2718.055455
 42
0.009195
  0
VERTEX
  8
0
 10
1230.043979
 20
2718.772261
 42
0.001005
  0
VERTEX
  8
0
 10
1178.389722
 20
2719.366862
 42
0.000680
  0
VERTEX
  8
0
 10
1125.180082
 20
2719.800018
 42
0.016856
  0
SEQEND
  0
POLYLINE
  8
0
 66
1
 70
1
  0
VERTEX
  8
0
 10
1219.500000
 20
2716.000935
 42
-0.003347
  0
VERTEX
  8
0
 10
1256.076235
 20
2714.613331
 42
-0.004398
  0
VERTEX
  8
0
 10
1289.435790
 20
2712.829926
 42
-0.004511
  0
VERTEX
  8
0
 10
1322.064512
 20
2710.501937
 42
-0.003851
  0
VERTEX
  8
0
 10
1356.415924
 20
2707.472934
 42
-0.006779
  0
VERTEX
  8
0
 10
1386.653872
 20
2704.157531
 42
-0.012024
  0
VERTEX
  8
0
 10
1411.454852
 20
2700.490060
 42
-0.012387
  0
VERTEX
  8
0
 10
1435.543991
 20
2695.716397
 42
-0.007748
  0
VERTEX
  8
0
 10
1463.500000
 20
2688.996443
 42
-0.001797
  0
VERTEX
  8
0
 10
1491.335234
 20
2681.740804
 42
-0.011670
  0
VERTEX
  8
0
 10
1505.246498
 20
2677.711586
 42
-0.020784
  0
VERTEX
  8
0
 10
1513.422477
 20
2674.756516
 42
-0.113787
  0
VERTEX
  8
0
 10
1517.233870
 20
2672.064284
 42
-0.074474
  0
VERTEX
  8
0
 10
1519.226193
 20
2669.026918
 42
-0.097327
  0
VERTEX
  8
0
 10
1520.007001
 20
2665.805884
 42
-0.107843
  0
VERTEX
  8
0
 10
1519.484222
 20
2662.779946
 42
-0.110960
  0
VERTEX
  8
0
 10
1517.750000
 20
2660.282460
 42
-0.080722
  0
VERTEX
  8
0
 10
1514.809223
 20
2658.348438
 42
-0.015100
  0
VERTEX
  8
0
 10
1508.824113
 20
2655.885105
 42
-0.007527
  0
VERTEX
  8
0
 10
1498.273329
 20
2652.091126
 42
-0.000873
  0
VERTEX
  8
0
 10
1474.500000
 20
2643.990799
 42
0.007535
  0
VERTEX
  8
0
 10
1449.240224
 20
2635.006658
 42
0.015293
  0
VERTEX
  8
0
 10
1429.718275
 20
2627.042004
 42
0.017316
  0
VERTEX
  8
0
 10
1412.353924
 20
2618.598689
 42
0.013326
  0
VERTEX
  8
0
 10
1394.000000
 20
2608.239028
 42
0.031411
  0
VERTEX
  8
0
 10
1350.221748
 20
2578.075412
 42
0.029572
  0
VERTEX
  8
0
 10
1309.626702
 20
2542.092774
 42
0.028210
  0
VERTEX
  8
0
 10
1271.843499
 20
2499.875120
 42
0.023423
  0
VERTEX
  8
0
 10
1236.479922
 20
2451.043662
 42
0.007976
  0
VERTEX
  8
0
 10
1221.121878
 20
2426.763044
 42
0.010421
  0
VERTEX
  8
0
 10
1207.903182
 20
2404.056664
 42
0.007838
  0
VERTEX
  8
0
 10
1193.086234
 20
2376.323183
 42
0.002445
  0
VERTEX
  8
0
 10
1171.712361
 20
2334.257768
 42
-0.000823
  0
VERTEX
  8
0
 10
1162.775966
 20
2316.528094
 42
-0.001365
  0
VERTEX
  8
0
 10
1155.171756
 20
2301.604285
 42
-0.000083
  0
VERTEX
  8
0
 10
1148.296390
 20
2288.206899
 42
-0.290577
  0
VERTEX
  8
0
 10
1148.000000
 20
2288.032876
 42
-0.238796
  0
VERTEX
  8
0
 10
1147.684140
 20
2288.206861
 42
-0.000166
  0
VERTEX
  8
0
 10
1142.066885
 20
2296.449835
 42
-0.001828
  0
VERTEX
  8
0
 10
1135.823579
 20
2305.690445
 42
-0.001110
  0
VERTEX
  8
0
 10
1128.504290
 20
2316.662001
 42
0.003713
  0
VERTEX
  8
0
 10
1120.489814
 20
2328.541198
 42
0.003469
  0
VERTEX
  8
0
 10
1112.117605
 20
2340.574173
 42
0.003455
  0
VERTEX
  8
0
 10
1104.534761
 20
2351.156990
 42
0.011809
  0
VERTEX
  8
0
 10
1099.394656
 20
2357.886892
 42
0.062946
  0
VERTEX
  8
0
 10
1042.392436
 20
2413.071377
 42
0.048147
  0
VERTEX
  8
0
 10
968.223372
 20
2458.264769
 42
0.046106
  0
VERTEX
  8
0
 10
883.140805
 20
2490.181915
 42
0.046179
  0
VERTEX
  8
0
 10
793.695532
 20
2505.945669
 42
0.015389
  0
VERTEX
  8
0
 10
778.551617
 20
2506.724438
 42
0.005130
  0
VERTEX
  8
0
 10
756.352179
 20
2506.954080
 42
0.005087
  0
VERTEX
  8
0
 10
734.228478
 20
2506.730879
 42
0.016288
  0
VERTEX
  8
0
 10
719.500000
 20
2505.951985
 42
0.007833
  0
VERTEX
  8
0
 10
713.094811
 20
2505.302378
 42
0.002070
  0
VERTEX
  8
0
 10
702.879027
 20
2504.061452
 42
0.002100
  0
VERTEX
  8
0
 10
691.266038
 20
2502.552430
 42
0.002157
  0
VERTEX
  8
0
 10
679.769028
 20
2500.958833
 42
-0.003797
  0
VERTEX
  8
0
 10
661.715337
 20
2498.516758
 42
-0.004652
  0
VERTEX
  8
0
 10
644.808090
 20
2496.520040
 42
-0.004842
  0
VERTEX
  8
0
 10
628.475736
 20
2494.904971
 42
-0.004877
  0
VERTEX
  8
0
 10
612.154380
 20
2493.610761
 42
-0.008469
  0
VERTEX
  8
0
 10
607.779996
 20
2493.381169
 42
-0.055567
  0
VERTEX
  8
0
 10
605.593312
 20
2493.546626
 42
-0.096804
  0
VERTEX
  8
0
 10
604.054194
 20
2494.160565
 42
-0.053261
  0
VERTEX
  8
0
 10
602.470653
 20
2495.438438
 42
-0.052462
  0
VERTEX
  8
0
 10
601.522539
 20
2496.609518
 42
-0.028860
  0
VERTEX
  8
0
 10
600.608649
 20
2498.212941
 42
-0.028453
  0
VERTEX
  8
0
 10
599.860724
 20
2499.965096
 42
-0.040299
  0
VERTEX
  8
0
 10
599.415214
 20
2501.600258
 42
-0.108245
  0
VERTEX
  8
0
 10
599.530616
 20
2505.419777
 42
-0.046214
  0
VERTEX
  8
0
 10
601.235651
 20
2510.267328
 42
-0.027083
  0
VERTEX
  8
0
 10
604.829381
 20
2517.091221
 42
-0.006547
  0
VERTEX
  8
0
 10
611.523023
 20
2527.960512
 42
-0.020545
  0
VERTEX
  8
0
 10
625.101332
 20
2547.548007
 42
-0.020596
  0
VERTEX
  8
0
 10
640.230922
 20
2565.938331
 42
-0.021727
  0
VERTEX
  8
0
 10
655.724233
 20
2581.818787
 42
-0.035014
  0
VERTEX
  8
0
 10
670.362280
 20
2593.760249
 42
-0.028166
  0
VERTEX
  8
0
 10
680.315009
 20
2599.972063
 42
-0.008187
  0
VERTEX
  8
0
 10
696.314108
 20
2608.409104
 42
-0.008566
  0
VERTEX
  8
0
 10
713.490347
 20
2616.743849
 42
-0.014713
  0
VERTEX
  8
0
 10
728.112150
 20
2623.016021
 42
-0.013877
  0
VERTEX
  8
0
 10
777.364367
 20
2640.885383
 42
-0.005667
  0
VERTEX
  8
0
 10
845.205470
 20
2662.538766
 42
-0.005718
  0
VERTEX
  8
0
 10
914.808758
 20
2683.020586
 42
-0.011308
  0
VERTEX
  8
0
 10
970.569020
 20
2697.385511
 42
-0.012246
  0
VERTEX
  8
0
 10
1003.105825
 20
2704.151655
 42
-0.010948
  0
VERTEX
  8
0
 10
1037.171038
 20
2709.601760
 42
-0.010908
  0
VERTEX
  8
0
 10
1071.580909
 20
2713.574170
 42
-0.011894
  0
VERTEX
  8
0
 10
1105.153063
 20
2715.905553
 42
-0.007931
  0
VERTEX
  8
0
 10
1127.797009
 20
2716.577911
 42
-0.003247
  0
VERTEX
  8
0
 10
1158.558674
 20
2716.803338
 42
-0.003249
  0
VERTEX
  8
0
 10
1190.985282
 20
2716.619649
 42
-0.004766
  0
SEQEND
  0
POLYLINE
  8
0
 66
1
 70
1
  0
VERTEX
  8
0
 10
1611.000000
 20
2508.414835
 42
-0.001993
  0
VERTEX
  8
0
 10
1608.996568
 20
2508.196541
 42
-0.000366
  0
VERTEX
  8
0
 10
1605.296875
 20
2507.811081
 42
-0.000394
  0
VERTEX
  8
0
 10
1600.968020
 20
2507.366721
 42
-0.000358
  0
VERTEX
  8
0
 10
1596.500000
 20
2506.914863
 42
0.036940
  0
VERTEX
  8
0
 10
1553.515019
 20
2499.362675
 42
0.036098
  0
VERTEX
  8
0
 10
1511.765212
 20
2485.530493
 42
0.035711
  0
VERTEX
  8
0
 10
1472.017718
 20
2465.664726
 42
0.034462
  0
VERTEX
  8
0
 10
1435.000000
 20
2440.133759
 42
0.019974
  0
VERTEX
  8
0
 10
1424.511628
 20
2431.070863
 42
0.008210
  0
VERTEX
  8
0
 10
1411.002134
 20
2417.997866
 42
0.008210
  0
VERTEX
  8
0
 10
1397.929137
 20
2404.488372
 42
0.019974
  0
VERTEX
  8
0
 10
1388.866241
 20
2394.000000
 42
0.014781
  0
VERTEX
  8
0
 10
1376.800250
 20
2377.899037
 42
0.015237
  0
VERTEX
  8
0
 10
1365.833771
 20
2361.272631
 42
0.015247
  0
VERTEX
  8
0
 10
1355.906808
 20
2344.019662
 42
0.014845
  0
VERTEX
  8
0
 10
1346.955899
 20
2326.041107
 42
0.033835
  0
VERTEX
  8
0
 10
1327.150130
 20
2274.148953
 42
0.034167
  0
VERTEX
  8
0
 10
1314.601329
 20
2220.227612
 42
0.033817
  0
VERTEX
  8
0
 10
1309.424880
 20
2164.570217
 42
0.031713
  0
VERTEX
  8
0
 10
1311.610177
 20
2107.500000
 42
0.027897
  0
VERTEX
  8
0
 10
1317.092985
 20
2072.967247
 42
0.030630
  0
VERTEX
  8
0
 10
1326.278574
 20
2040.346314
 42
0.031297
  0
VERTEX
  8
0
 10
1339.159424
 20
2009.734614
 42
0.031989
  0
VERTEX
  8
0
 10
1355.678916
 20
1981.202606
 42
0.010964
  0
VERTEX
  8
0
 10
1364.580640
 20
1968.485251
 42
0.015112
  0
VERTEX
  8
0
 10
1373.160192
 20
1957.495474
 42
0.014469
  0
VERTEX
  8
0
 10
1382.676050
 20
1946.689737
 42
0.008895
  0
VERTEX
  8
0
 10
1394.466179
 20
1934.500000
 42
0.040466
  0
VERTEX
  8
0
 10
1436.789193
 20
1898.606261
 42
0.038391
  0
VERTEX
  8
0
 10
1485.066226
 20
1869.288751
 42
0.038468
  0
VERTEX
  8
0
 10
1537.155495
 20
1847.748626
 42
0.041032
  0
VERTEX
  8
0
 10
1590.824218
 20
1835.001537
 42
0.018501
  0
VERTEX
  8
0
 10
1613.978675
 20
1832.346244
 42
0.015347
  0
VERTEX
  8
0
 10
1638.759874
 20
1831.193323
 42
0.015548
  0
VERTEX
  8
0
 10
1663.123953
 20
1831.565983
 42
0.021204
  0
VERTEX
  8
0
 10
1685.000000
 20
1833.513458
 42
0.030974
  0
VERTEX
  8
0
 10
1727.459624
 20
1841.816704
 42
0.031887
  0
VERTEX
  8
0
 10
1768.146422
 20
1855.245763
 42
0.032231
  0
VERTEX
  8
0
 10
1806.384039
 20
1873.575041
 42
0.033244
  0
VERTEX
  8
0
 10
1841.536091
 20
1896.500000
 42
0.040880
  0
VERTEX
  8
0
 10
1883.580325
 20
1933.829867
 42
0.042725
  0
VERTEX
  8
0
 10
1918.311658
 20
1976.989493
 42
0.041800
  0
VERTEX
  8
0
 10
1945.814616
 20
2026.313064
 42
0.036048
  0
VERTEX
  8
0
 10
1966.334247
 20
2082.000000
 42
0.013649
  0
VERTEX
  8
0
 10
1973.986917
 20
2111.516485
 42
0.020618
  0
VERTEX
  8
0
 10
1978.874597
 20
2137.611838
 42
0.022271
  0
VERTEX
  8
0
 10
1981.348816
 20
2162.423536
 42
0.020633
  0
VERTEX
  8
0
 10
1981.696581
 20
2188.000000
 42
0.014375
  0
VERTEX
  8
0
 10
1980.612083
 20
2207.204246
 42
0.017352
  0
VERTEX
  8
0
 10
1978.452286
 20
2225.137100
 42
0.017731
  0
VERTEX
  8
0
 10
1975.105005
 20
2242.539900
 42
0.016338
  0
VERTEX
  8
0
 10
1970.455459
 20
2260.148810
 42
0.035444
  0
VERTEX
  8
0
 10
1957.635253
 20
2294.035309
 42
0.028526
  0
VERTEX
  8
0
 10
1939.311942
 20
2328.422767
 42
0.026766
  0
VERTEX
  8
0
 10
1915.858617
 20
2362.694452
 42
0.022789
  0
VERTEX
  8
0
 10
1887.653198
 20
2396.233905
 42
0.012094
  0
VERTEX
  8
0
 10
1875.835787
 20
2408.445854
 42
0.005783
  0
VERTEX
  8
0
 10
1860.099346
 20
2423.585239
 42
0.005747
  0
VERTEX
  8
0
 10
1844.203186
 20
2438.187653
 42
0.013761
  0
VERTEX
  8
0
 10
1832.000000
 20
2448.549764
 42
0.030183
  0
VERTEX
  8
0
 10
1806.466860
 20
2466.629030
 42
0.032831
  0
VERTEX
  8
0
 10
1779.629932
 20
2480.948223
 42
0.031167
  0
VERTEX
  8
0
 10
1749.929976
 20
2492.201483
 42
0.022751
  0
VERTEX
  8
0
 10
1715.769517
 20
2501.083484
 42
0.010947
  0
VERTEX
  8
0
 10
1697.666054
 20
2504.508647
 42
0.015970
  0
VERTEX
  8
0
 10
1681.576334
 20
2506.663886
 42
0.014737
  0
VERTEX
  8
0
 10
1664.452678
 20
2507.894603
 42
0.007624
  0
VERTEX
  8
0
 10
1643.000000
 20
2508.474573
 42
0.001422
  0
VERTEX
  8
0
 10
1631.827302
 20
2508.574423
 42
0.001990
  0
VERTEX
  8
0
 10
1621.843750
 20
2508.595520
 42
0.001185
  0
VERTEX
  8
0
 10
1613.432333
 20
2508.559882
 42
0.026484
  0
SEQEND
  0
POLYLINE
  8
0
 66
1
 70
1
  0
VERTEX
  8
0
 10
1685.701455
 20
2503.062232
 42
-0.023002
  0
VERTEX
  8
0
 10
1724.373495
 20
2496.050804
 42
-0.030078
  0
VERTEX
  8
0
 10
1758.844579
 20
2485.933309
 42
-0.032348
  0
VERTEX
  8
0
 10
1789.694501
 20
2472.513961
 42
-0.035721
  0
VERTEX
  8
0
 10
1817.500000
 20
2455.604233
 42
-0.024191
  0
VERTEX
  8
0
 10
1834.398474
 20
2442.321350
 42
-0.009212
  0
VERTEX
  8
0
 10
1856.672050
 20
2422.269009
 42
-0.009343
  0
VERTEX
  8
0
 10
1878.821083
 20
2400.788565
 42
-0.017560
  0
VERTEX
  8
0
 10
1895.753681
 20
2382.500000
 42
-0.045669
  0
VERTEX
  8
0
 10
1941.306691
 20
2318.763177
 42
-0.063267
  0
VERTEX
  8
0
 10
1968.819172
 20
2254.210261
 42
-0.065993
  0
VERTEX
  8
0
 10
1978.615555
 20
2186.994977
 42
-0.055643
  0
VERTEX
  8
0
 10
1971.558177
 20
2115.387080
 42
-0.042918
  0
VERTEX
  8
0
 10
1949.442490
 20
2042.656668
 42
-0.051956
  0
VERTEX
  8
0
 10
1916.221019
 20
1979.584582
 42
-0.053747
  0
VERTEX
  8
0
 10
1871.809500
 20
1926.427934
 42
-0.051534
  0
VERTEX
  8
0
 10
1816.500000
 20
1883.108555
 42
-0.017739
  0
VERTEX
  8
0
 10
1804.913478
 20
1876.382329
 42
-0.008041
  0
VERTEX
  8
0
 10
1789.306867
 20
1868.367759
 42
-0.008061
  0
VERTEX
  8
0
 10
1773.331265
 20
1860.803501
 42
-0.016390
  0
VERTEX
  8
0
 10
1760.500000
 20
1855.479372
 42
-0.043823
  0
VERTEX
  8
0
 10
1704.650719
 20
1839.845379
 42
-0.043619
  0
VERTEX
  8
0
 10
1646.843309
 20
1834.152007
 42
-0.043425
  0
VERTEX
  8
0
 10
1588.680238
 20
1838.569579
 42
-0.042620
  0
VERTEX
  8
0
 10
1531.775489
 20
1852.965846
 42
-0.044326
  0
VERTEX
  8
0
 10
1472.177154
 20
1879.693367
 42
-0.045571
  0
VERTEX
  8
0
 10
1418.812987
 20
1916.299532
 42
-0.047227
  0
VERTEX
  8
0
 10
1374.702480
 20
1960.525846
 42
-0.056270
  0
VERTEX
  8
0
 10
1342.565795
 20
2009.868808
 42
-0.021834
  0
VERTEX
  8
0
 10
1332.960940
 20
2031.307549
 42
-0.021684
  0
VERTEX
  8
0
 10
1325.237962
 20
2053.551075
 42
-0.021538
  0
VERTEX
  8
0
 10
1319.425724
 20
2076.529203
 42
-0.020864
  0
VERTEX
  8
0
 10
1315.539342
 20
2100.166435
 42
-0.034717
  0
VERTEX
  8
0
 10
1312.425358
 20
2160.190761
 42
-0.035764
  0
VERTEX
  8
0
 10
1317.718967
 20
2219.465243
 42
-0.036063
  0
VERTEX
  8
0
 10
1331.331655
 20
2276.914267
 42
-0.036631
  0
VERTEX
  8
0
 10
1353.006451
 20
2331.500000
 42
-0.042554
  0
VERTEX
  8
0
 10
1380.227326
 20
2377.297638
 42
-0.043059
  0
VERTEX
  8
0
 10
1414.712805
 20
2417.631147
 42
-0.043108
  0
VERTEX
  8
0
 10
1455.557145
 20
2451.422181
 42
-0.042855
  0
VERTEX
  8
0
 10
1501.668413
 20
2477.784237
 42
-0.023409
  0
VERTEX
  8
0
 10
1525.831894
 20
2487.628975
 42
-0.021885
  0
VERTEX
  8
0
 10
1551.353974
 20
2495.420979
 42
-0.021108
  0
VERTEX
  8
0
 10
1578.367380
 20
2501.188344
 42
-0.018472
  0
VERTEX
  8
0
 10
1607.000000
 20
2504.966401
 42
-0.022869
  0
VERTEX
  8
0
 10
1622.334990
 20
2505.711052
 42
-0.006745
  0
VERTEX
  8
0
 10
1645.869670
 20
2505.459224
 42
-0.006864
  0
VERTEX
  8
0
 10
1669.543618
 20
2504.561149
 42
-0.020432
  0
SEQEND
  0
POLYLINE
  8
0
 66
1
 70
1
  0
VERTEX
  8
0
 10
755.000000
 20
2367.049290
 42
0.025183
  0
VERTEX
  8
0
 10
731.443664
 20
2362.200480
 42
0.013556
  0
VERTEX
  8
0
 10
702.946414
 20
2353.991473
 42
0.013433
  0
VERTEX
  8
0
 10
674.124301
 20
2343.975819
 42
0.019656
  0
VERTEX
  8
0
 10
649.395569
 20
2333.502713
 42
0.020675
  0
VERTEX
  8
0
 10
623.091115
 20
2319.765921
 42
0.021505
  0
VERTEX
  8
0
 10
598.364381
 20
2304.069440
 42
0.022141
  0
VERTEX
  8
0
 10
575.793103
 20
2286.807432
 42
0.025569
  0
VERTEX
  8
0
 10
555.946780
 20
2268.381833
 42
0.036868
  0
VERTEX
  8
0
 10
529.568789
 20
2236.916597
 42
0.041601
  0
VERTEX
  8
0
 10
509.268705
 20
2203.113814
 42
0.041148
  0
VERTEX
  8
0
 10
494.676076
 20
2166.086931
 42
0.034704
  0
VERTEX
  8
0
 10
485.324621
 20
2125.000000
 42
0.028844
  0
VERTEX
  8
0
 10
483.843264
 20
2109.734817
 42
0.009774
  0
VERTEX
  8
0
 10
483.407552
 20
2087.415853
 42
0.009922
  0
VERTEX
  8
0
 10
483.855785
 20
2064.862125
 42
0.024978
  0
VERTEX
  8
0
 10
485.326765
 20
2048.500000
 42
0.032100
  0
VERTEX
  8
0
 10
495.277353
 20
2000.348600
 42
0.039714
  0
VERTEX
  8
0
 10
510.861638
 20
1957.300994
 42
0.041083
  0
VERTEX
  8
0
 10
532.526146
 20
1918.465540
 42
0.038807
  0
VERTEX
  8
0
 10
560.622276
 20
1882.896010
 42
0.033847
  0
VERTEX
  8
0
 10
592.285670
 20
1852.981380
 42
0.035052
  0
VERTEX
  8
0
 10
627.343700
 20
1827.992113
 42
0.036286
  0
VERTEX
  8
0
 10
664.268971
 20
1808.925452
 42
0.043208
  0
VERTEX
  8
0
 10
701.500000
 20
1796.680552
 42
0.011920
  0
VERTEX
  8
0
 10
715.729617
 20
1793.684120
 42
0.018664
  0
VERTEX
  8
0
 10
728.103549
 20
1791.859725
 42
0.017746
  0
VERTEX
  8
0
 10
741.019127
 20
1790.907780
 42
0.009525
  0
VERTEX
  8
0
 10
757.000000
 20
1790.603556
 42
0.031432
  0
VERTEX
  8
0
 10
795.397912
 20
1793.020375
 42
0.029163
  0
VERTEX
  8
0
 10
834.182302
 20
1800.238792
 42
0.028721
  0
VERTEX
  8
0
 10
872.453343
 20
1812.066763
 42
0.028287
  0
VERTEX
  8
0
 10
909.317852
 20
1828.253019
 42
0.025174
  0
VERTEX
  8
0
 10
938.040327
 20
1844.722343
 42
0.033727
  0
VERTEX
  8
0
 10
962.144846
 20
1862.609055
 42
0.035393
  0
VERTEX
  8
0
 10
982.709721
 20
1882.814255
 42
0.032764
  0
VERTEX
  8
0
 10
1000.800550
 20
1906.222532
 42
0.051481
  0
VERTEX
  8
0
 10
1021.576001
 20
1945.211799
 42
0.042839
  0
VERTEX
  8
0
 10
1035.512539
 20
1990.092523
 42
0.037481
  0
VERTEX
  8
0
 10
1042.897093
 20
2042.293946
 42
0.024187
  0
VERTEX
  8
0
 10
1043.950274
 20
2103.384095
 42
0.014776
  0
VERTEX
  8
0
 10
1041.982527
 20
2135.774524
 42
0.035515
  0
VERTEX
  8
0
 10
1038.126236
 20
2159.485579
 42
0.038278
  0
VERTEX
  8
0
 10
1031.156318
 20
2181.338778
 42
0.019854
  0
VERTEX
  8
0
 10
1019.339342
 20
2207.451178
 42
0.015609
  0
VERTEX
  8
0
 10
1005.838956
 20
2232.406996
 42
0.022711
  0
VERTEX
  8
0
 10
992.284682
 20
2253.437007
 42
0.023645
  0
VERTEX
  8
0
 10
977.325289
 20
2272.506126
 42
0.019208
  0
VERTEX
  8
0
 10
959.598767
 20
2291.500000
 42
0.036966
  0
VERTEX
  8
0
 10
925.836644
 20
2320.378320
 42
0.042549
  0
VERTEX
  8
0
 10
889.675946
 20
2342.481342
 42
0.042734
  0
VERTEX
  8
0
 10
850.436462
 20
2358.071507
 42
0.037873
  0
VERTEX
  8
0
 10
807.500000
 20
2367.540382
 42
0.024685
  0
VERTEX
  8
0
 10
795.934385
 20
2368.607292
 42
0.012996
  0
VERTEX
  8
0
 10
781.503299
 20
2368.847402
 42
0.012985
  0
VERTEX
  8
0
 10
766.958813
 20
2368.333431
 42
0.022843
  0
SEQEND
  0
POLYLINE
  8
0
 66
1
 70
1
  0
VERTEX
  8
0
 10
806.500000
 20
2364.540382
 42
-0.034243
  0
VERTEX
  8
0
 10
846.077869
 20
2356.112582
 42
-0.039836
  0
VERTEX
  8
0
 10
882.105169
 20
2342.638166
 42
-0.039503
  0
VERTEX
  8
0
 10
915.788918
 20
2323.508622
 42
-0.032711
  0
VERTEX
  8
0
 10
948.366764
 20
2298.179969
 42
-0.023295
  0
VERTEX
  8
0
 10
963.516287
 20
2283.406278
 42
-0.017833
  0
VERTEX
  8
0
 10
978.699743
 20
2265.944239
 42
-0.017630
  0
VERTEX
  8
0
 10
992.815615
 20
2247.173732
 42
-0.020847
  0
VERTEX
  8
0
 10
1004.758950
 20
2228.452040
 42
-0.012713
  0
VERTEX
  8
0
 10
1010.204990
 20
2218.500594
 42
-0.004686
  0
VERTEX
  8
0
 10
1017.394885
 20
2204.202899
 42
-0.004556
  0
VERTEX
  8
0
 10
1024.234117
 20
2189.952280
 42
-0.015517
  0
VERTEX
  8
0
 10
1028.312248
 20
2180.500000
 42
-0.017852
  0
VERTEX
  8
0
 10
1031.362018
 20
2171.894402
 42
-0.013003
  0
VERTEX
  8
0
 10
1034.156671
 20
2162.134487
 42
-0.012405
  0
VERTEX
  8
0
 10
1036.581674
 20
2151.686496
 42
-0.011948
  0
VERTEX
  8
0
 10
1038.519223
 20
2141.000000
 42
-0.030505
  0
VERTEX
  8
0
 10
1039.979286
 20
2125.591106
 42
-0.004371
  0
VERTEX
  8
0
 10
1040.763326
 20
2093.905205
 42
-0.004962
  0
VERTEX
  8
0
 10
1040.956649
 20
2062.077169
 42
-0.020787
  0
VERTEX
  8
0
 10
1040.087751
 20
2042.959025
 42
-0.030467
  0
VERTEX
  8
0
 10
1032.261806
 20
1990.431614
 42
-0.045607
  0
VERTEX
  8
0
 10
1018.563619
 20
1946.143497
 42
-0.050052
  0
VERTEX
  8
0
 10
998.281171
 20
1908.221451
 42
-0.049129
  0
VERTEX
  8
0
 10
970.757289
 20
1874.827439
 42
-0.043555
  0
VERTEX
  8
0
 10
943.965558
 20
1852.433306
 42
-0.032171
  0
VERTEX
  8
0
 10
910.902790
 20
1832.395809
 42
-0.030594
  0
VERTEX
  8
0
 10
873.577151
 20
1815.755708
 42
-0.029362
  0
VERTEX
  8
0
 10
833.989056
 20
1803.531911
 42
-0.027324
  0
VERTEX
  8
0
 10
792.424113
 20
1795.704106
 42
-0.036159
  0
VERTEX
  8
0
 10
753.989727
 20
1793.425106
 42
-0.038245
  0
VERTEX
  8
0
 10
717.430658
 20
1796.706379
 42
-0.037355
  0
VERTEX
  8
0
 10
681.500000
 20
1805.523586
 42
-0.042878
  0
VERTEX
  8
0
 10
648.217480
 20
1819.635194
 42
-0.031393
  0
VERTEX
  8
0
 10
613.983439
 20
1840.600205
 42
-0.030648
  0
VERTEX
  8
0
 10
581.664138
 20
1866.391669
 42
-0.034526
  0
VERTEX
  8
0
 10
554.091754
 20
1895.000000
 42
-0.035095
  0
VERTEX
  8
0
 10
529.610835
 20
1928.733686
 42
-0.038790
  0
VERTEX
  8
0
 10
510.995810
 20
1964.483566
 42
-0.037043
  0
VERTEX
  8
0
 10
497.489565
 20
2004.111808
 42
-0.027431
  0
VERTEX
  8
0
 10
488.309015
 20
2049.500000
 42
-0.026775
  0
VERTEX
  8
0
 10
486.804403
 20
2065.954226
 42
-0.011008
  0
VERTEX
  8
0
 10
486.454015
 20
2088.360919
 42
-0.010975
  0
VERTEX
  8
0
 10
487.086658
 20
2110.688430
 42
-0.027872
  0
VERTEX
  8
0
 10
488.802183
 20
2126.811149
 42
-0.035157
  0
VERTEX
  8
0
 10
498.347145
 20
2167.208811
 42
-0.041144
  0
VERTEX
  8
0
 10
513.119399
 20
2203.711150
 42
-0.041458
  0
VERTEX
  8
0
 10
533.557099
 20
2237.071634
 42
-0.036675
  0
VERTEX
  8
0
 10
560.000000
 20
2268.096127
 42
-0.025011
  0
VERTEX
  8
0
 10
579.090785
 20
2285.584748
 42
-0.021440
  0
VERTEX
  8
0
 10
600.811606
 20
2302.053924
 42
-0.020900
  0
VERTEX
  8
0
 10
624.477504
 20
2317.025904
 42
-0.020666
  0
VERTEX
  8
0
 10
649.398239
 20
2330.030084
 42
-0.019810
  0
VERTEX
  8
0
 10
675.299468
 20
2340.981248
 42
-0.013514
  0
VERTEX
  8
0
 10
705.509995
 20
2351.442940
 42
-0.013608
  0
VERTEX
  8
0
 10
734.933102
 20
2359.875939
 42
-0.029533
  0
VERTEX
  8
0
 10
758.000000
 20
2364.380762
 42
-0.020170
  0
VERTEX
  8
0
 10
769.354279
 20
2365.445287
 42
-0.012465
  0
VERTEX
  8
0
 10
782.757595
 20
2365.823616
 42
-0.012508
  0
VERTEX
  8
0
 10
795.929075
 20
2365.537445
 42
-0.023657
  0
SEQEND
  0
POLYLINE
  8
0
 66
1
 70
1
  0
VERTEX
  8
0
 10
1179.806715
 20
1955.250000
 42
0.054130
  0
VERTEX
  8
0
 10
1177.254141
 20
1951.531258
 42
0.001841
  0
VERTEX
  8
0
 10
1168.905392
 20
1935.868028
 42
0.003296
  0
VERTEX
  8
0
 10
1158.903483
 20
1916.629696
 42
0.001938
  0
VERTEX
  8
0
 10
1147.184369
 20
1893.500000
 42
-0.012496
  0
VERTEX
  8
0
 10
1126.672831
 20
1855.052548
 42
-0.023715
  0
VERTEX
  8
0
 10
1107.965505
 20
1825.378600
 42
-0.025900
  0
VERTEX
  8
0
 10
1087.713851
 20
1799.376214
 42
-0.018656
  0
VERTEX
  8
0
 10
1062.614929
 20
1772.477567
 42
-0.031118
  0
VERTEX
  8
0
 10
1023.800630
 20
1738.402359
 42
-0.032322
  0
VERTEX
  8
0
 10
981.527857
 20
1709.875399
 42
-0.032162
  0
VERTEX
  8
0
 10
935.728165
 20
1686.914775
 42
-0.030170
  0
VERTEX
  8
0
 10
886.385535
 20
1669.455767
 42
-0.022111
  0
VERTEX
  8
0
 10
853.683776
 20
1661.607266
 42
-0.019589
  0
VERTEX
  8
0
 10
819.069263
 20
1656.299315
 42
-0.019539
  0
VERTEX
  8
0
 10
784.046656
 20
1653.705906
 42
-0.021666
  0
VERTEX
  8
0
 10
750.120819
 20
1653.993735
 42
-0.006788
  0
VERTEX
  8
0
 10
732.916293
 20
1655.120268
 42
-0.010611
  0
VERTEX
  8
0
 10
718.151599
 20
1656.604416
 42
-0.008522
  0
VERTEX
  8
0
 10
701.338438
 20
1658.947183
 42
-0.002805
  0
VERTEX
  8
0
 10
676.693344
 20
1662.952305
 42
0.003284
  0
VERTEX
  8
0
 10
651.940216
 20
1666.950654
 42
0.008370
  0
VERTEX
  8
0
 10
633.926957
 20
1669.431075
 42
0.006368
  0
VERTEX
  8
0
 10
620.525357
 20
1670.875470
 42
0.131285
  0
VERTEX
  8
0
 10
616.559937
 20
1670.209263
 42
0.118140
  0
VERTEX
  8
0
 10
614.715822
 20
1668.769992
 42
0.042670
  0
VERTEX
  8
0
 10
612.860429
 20
1665.984490
 42
0.042744
  0
VERTEX
  8
0
 10
611.455739
 20
1662.812444
 42
0.083051
  0
VERTEX
  8
0
 10
611.000000
 20
1660.087634
 42
0.042529
  0
VERTEX
  8
0
 10
611.140912
 20
1658.433972
 42
0.000147
  0
VERTEX
  8
0
 10
614.534790
 20
1638.699109
 42
0.000800
  0
VERTEX
  8
0
 10
618.420420
 20
1616.358216
 42
0.000502
  0
VERTEX
  8
0
 10
623.033327
 20
1590.238763
 42
0.001355
  0
VERTEX
  8
0
 10
645.434798
 20
1466.089853
 42
0.005066
  0
VERTEX
  8
0
 10
660.517303
 20
1388.237646
 42
0.007930
  0
VERTEX
  8
0
 10
672.895139
 20
1332.189150
 42
0.012453
  0
VERTEX
  8
0
 10
685.485375
 20
1284.500000
 42
0.012058
  0
VERTEX
  8
0
 10
699.434461
 20
1240.520705
 42
0.011308
  0
VERTEX
  8
0
 10
715.768941
 20
1196.303739
 42
0.011806
  0
VERTEX
  8
0
 10
732.610928
 20
1156.478925
 42
0.024557
  0
VERTEX
  8
0
 10
747.961053
 20
1126.469075
 42
0.033678
  0
VERTEX
  8
0
 10
773.764571
 20
1087.867638
 42
0.034042
  0
VERTEX
  8
0
 10
804.431703
 20
1053.227178
 42
0.034439
  0
VERTEX
  8
0
 10
839.142813
 20
1023.436973
 42
0.036398
  0
VERTEX
  8
0
 10
877.003217
 20
999.295588
 42
0.021856
  0
VERTEX
  8
0
 10
903.154232
 20
986.625456
 42
0.010826
  0
VERTEX
  8
0
 10
937.327468
 20
972.745295
 42
0.010516
  0
VERTEX
  8
0
 10
974.469184
 20
959.475835
 42
0.012441
  0
VERTEX
  8
0
 10
1010.121935
 20
948.555612
 42
0.019733
  0
VERTEX
  8
0
 10
1058.775367
 20
937.015913
 42
0.019631
  0
VERTEX
  8
0
 10
1108.270881
 20
929.324687
 42
0.017674
  0
VERTEX
  8
0
 10
1162.709756
 20
924.984555
 42
0.011126
  0
VERTEX
  8
0
 10
1226.500000
 20
923.583422
 42
0.009775
  0
VERTEX
  8
0
 10
1283.668196
 20
924.717752
 42
0.020249
  0
VERTEX
  8
0
 10
1328.169379
 20
928.280185
 42
0.022962
  0
VERTEX
  8
0
 10
1368.492674
 20
935.048043
 42
0.017234
  0
VERTEX
  8
0
 10
1412.139860
 20
946.038342
 42
0.027098
  0
VERTEX
  8
0
 10
1469.749883
 20
966.114259
 42
0.022607
  0
VERTEX
  8
0
 10
1528.540512
 20
993.412724
 42
0.023327
  0
VERTEX
  8
0
 10
1581.114581
 20
1023.974367
 42
0.045794
  0
VERTEX
  8
0
 10
1619.168130
 20
1053.797416
 42
0.016073
  0
VERTEX
  8
0
 10
1626.267926
 20
1060.939950
 42
0.009126
  0
VERTEX
  8
0
 10
1634.415133
 20
1070.007209
 42
0.008872
  0
VERTEX
  8
0
 10
1642.648131
 20
1079.861356
 42
0.010540
  0
VERTEX
  8
0
 10
1650.054135
 20
1089.459573
 42
0.036541
  0
VERTEX
  8
0
 10
1672.527905
 20
1125.063625
 42
0.017081
  0
VERTEX
  8
0
 10
1696.547994
 20
1174.055596
 42
0.016104
  0
VERTEX
  8
0
 10
1719.553208
 20
1230.104384
 42
0.015692
  0
VERTEX
  8
0
 10
1739.118829
 20
1288.000000
 42
0.006931
  0
VERTEX
  8
0
 10
1748.139512
 20
1319.293213
 42
0.006711
  0
VERTEX
  8
0
 10
1756.391181
 20
1351.160787
 42
0.006192
  0
VERTEX
  8
0
 10
1764.354730
 20
1385.549294
 42
0.004329
  0
VERTEX
  8
0
 10
1772.515300
 20
1424.500000
 42
0.003752
  0
VERTEX
  8
0
 10
1784.819050
 20
1488.350627
 42
0.005419
  0
VERTEX
  8
0
 10
1794.660028
 20
1544.992881
 42
0.005853
  0
VERTEX
  8
0
 10
1802.676267
 20
1598.220700
 42
0.005837
  0
VERTEX
  8
0
 10
1809.452096
 20
1651.669783
 42
0.002988
  0
VERTEX
  8
0
 10
1811.359429
 20
1669.188307
 42
0.021422
  0
VERTEX
  8
0
 10
1811.866639
 20
1677.683796
 42
0.046484
  0
VERTEX
  8
0
 10
1811.470152
 20
1682.883292
 42
0.094918
  0
VERTEX
  8
0
 10
1810.040484
 20
1686.701451
 42
0.079949
  0
VERTEX
  8
0
 10
1806.890853
 20
1690.387347
 42
0.122622
  0
VERTEX
  8
0
 10
1803.146028
 20
1692.243209
 42
0.063658
  0
VERTEX
  8
0
 10
1797.278406
 20
1692.766432
 42
0.009654
  0
VERTEX
  8
0
 10
1785.500000
 20
1692.088252
 42
0.006198
  0
VERTEX
  8
0
 10
1771.076515
 20
1690.797992
 42
0.004963
  0
VERTEX
  8
0
 10
1755.576875
 20
1689.061938
 42
0.004807
  0
VERTEX
  8
0
 10
1739.545626
 20
1686.948418
 42
0.004772
  0
VERTEX
  8
0
 10
1723.518786
 20
1684.522282
 42
-0.006610
  0
VERTEX
  8
0
 10
1700.778473
 20
1681.165324
 42
-0.011986
  0
VERTEX
  8
0
 10
1682.089068
 20
1679.113024
 42
-0.011657
  0
VERTEX
  8
0
 10
1662.977456
 20
1677.924860
 42
-0.005873
  0
VERTEX
  8
0
 10
1638.828347
 20
1677.271907
 42
-0.003099
  0
VERTEX
  8
0
 10
1623.806844
 20
1677.135392
 42
-0.003892
  0
VERTEX
  8
0
 10
1609.885778
 20
1677.203537
 42
-0.004254
  0
VERTEX
  8
0
 10
1597.902021
 20
1677.457487
 42
-0.010356
  0
VERTEX
  8
0
 10
1589.075709
 20
1677.902786
 42
-0.028011
  0
VERTEX
  8
0
 10
1523.675383
 20
1686.262101
 42
-0.032402
  0
VERTEX
  8
0
 10
1462.798512
 20
1701.671536
 42
-0.034907
  0
VERTEX
  8
0
 10
1408.911882
 20
1723.349876
 42
-0.048333
  0
VERTEX
  8
0
 10
1364.500000
 20
1750.509378
 42
-0.014153
  0
VERTEX
  8
0
 10
1352.053258
 20
1760.446665
 42
-0.008318
  0
VERTEX
  8
0
 10
1337.714533
 20
1772.989628
 42
-0.007805
  0
VERTEX
  8
0
 10
1322.530135
 20
1787.162016
 42
-0.007320
  0
VERTEX
  8
0
 10
1307.462480
 20
1802.103331
 42
-0.009438
  0
VERTEX
  8
0
 10
1284.913380
 20
1826.014318
 42
-0.013018
  0
VERTEX
  8
0
 10
1265.650247
 20
1848.372026
 42
-0.012232
  0
VERTEX
  8
0
 10
1246.699709
 20
1872.754971
 42
-0.007031
  0
VERTEX
  8
0
 10
1225.008597
 20
1903.000000
 42
0.004336
  0
VERTEX
  8
0
 10
1215.049907
 20
1917.045125
 42
0.002549
  0
VERTEX
  8
0
 10
1202.910878
 20
1933.675090
 42
0.001430
  0
VERTEX
  8
0
 10
1191.131314
 20
1949.545768
 42
0.027600
  0
VERTEX
  8
0
 10
1187.196646
 20
1954.250000
 42
0.048430
  0
VERTEX
  8
0
 10
1185.077816
 20
1956.116902
 42
0.123367
  0
VERTEX
  8
0
 10
1183.189127
 20
1956.871260
 42
0.156197
  0
VERTEX
  8
0
 10
1181.454229
 20
1956.563820
 42
0.094232
  0
SEQEND
  0
POLYLINE
  8
0
 66
1
 70
1
  0
VERTEX
  8
0
 10
1196.281355
 20
1937.250000
 42
-0.002606
  0
VERTEX
  8
0
 10
1202.220429
 20
1929.207040
 42
-0.001196
  0
VERTEX
  8
0
 10
1209.882373
 20
1918.664062
 42
-0.001185
  0
VERTEX
  8
0
 10
1217.893142
 20
1907.530006
 42
-0.001638
  0
VERTEX
  8
0
 10
1225.023984
 20
1897.500000
 42
0.003331
  0
VERTEX
  8
0
 10
1238.844098
 20
1878.199779
 42
0.006221
  0
VERTEX
  8
0
 10
1250.329768
 20
1862.790279
 42
0.007157
  0
VERTEX
  8
0
 10
1261.007101
 20
1849.237601
 42
0.006781
  0
VERTEX
  8
0
 10
1272.258638
 20
1835.747226
 42
0.009809
  0
VERTEX
  8
0
 10
1291.970176
 20
1813.647190
 42
0.010113
  0
VERTEX
  8
0
 10
1312.338217
 20
1792.565255
 42
0.010433
  0
VERTEX
  8
0
 10
1332.852306
 20
1773.007831
 42
0.012478
  0
VERTEX
  8
0
 10
1353.000000
 20
1755.489392
 42
0.033991
  0
VERTEX
  8
0
 10
1380.694445
 20
1735.600988
 42
0.027478
  0
VERTEX
  8
0
 10
1412.827930
 20
1718.050698
 42
0.025809
  0
VERTEX
  8
0
 10
1448.834347
 20
1703.108963
 42
0.021999
  0
VERTEX
  8
0
 10
1488.146332
 20
1691.045191
 42
0.015516
  0
VERTEX
  8
0
 10
1522.503632
 20
1683.263708
 42
0.017041
  0
VERTEX
  8
0
 10
1556.222742
 20
1677.904367
 42
0.016754
  0
VERTEX
  8
0
 10
1590.740084
 20
1674.787988
 42
0.014028
  0
VERTEX
  8
0
 10
1627.500000
 20
1673.740722
 42
0.007665
  0
VERTEX
  8
0
 10
1653.919496
 20
1674.134494
 42
0.013028
  0
VERTEX
  8
0
 10
1675.983748
 20
1675.377789
 42
0.012264
  0
VERTEX
  8
0
 10
1698.851165
 20
1677.831002
 42
0.005922
  0
VERTEX
  8
0
 10
1728.000000
 20
1682.035122
 42
-0.005650
  0
VERTEX
  8
0
 10
1743.706282
 20
1684.309172
 42
-0.003969
  0
VERTEX
  8
0
 10
1761.429549
 20
1686.528084
 42
-0.004010
  0
VERTEX
  8
0
 10
1778.545566
 20
1688.394066
 42
-0.007813
  0
VERTEX
  8
0
 10
1792.232400
 20
1689.559487
 42
0.000000
  0
VERTEX
  8
0
 10
1801.964801
 20
1690.235199
 42
0.000000
  0
VERTEX
  8
0
 10
1805.482400
 20
1686.717600
 42
-0.084557
  0
VERTEX
  8
0
 10
1807.918515
 20
1683.281217
 42
-0.105038
  0
VERTEX
  8
0
 10
1808.842711
 20
1679.482679
 42
-0.033897
  0
VERTEX
  8
0
 10
1808.593677
 20
1673.002500
 42
-0.002052
  0
VERTEX
  8
0
 10
1806.452882
 20
1653.669783
 42
-0.005494
  0
VERTEX
  8
0
 10
1799.444927
 20
1598.068180
 42
-0.006148
  0
VERTEX
  8
0
 10
1791.450054
 20
1544.685811
 42
-0.005702
  0
VERTEX
  8
0
 10
1781.615497
 20
1488.194075
 42
-0.003683
  0
VERTEX
  8
0
 10
1769.000926
 20
1423.000000
 42
-0.009279
  0
VERTEX
  8
0
 10
1754.082984
 20
1355.353362
 42
-0.013099
  0
VERTEX
  8
0
 10
1738.109001
 20
1295.739225
 42
-0.014217
  0
VERTEX
  8
0
 10
1720.237592
 20
1241.159593
 42
-0.015082
  0
VERTEX
  8
0
 10
1699.610951
 20
1188.762686
 42
-0.013429
  0
VERTEX
  8
0
 10
1679.267911
 20
1144.644590
 42
-0.024739
  0
VERTEX
  8
0
 10
1660.034250
 20
1110.127820
 42
-0.029158
  0
VERTEX
  8
0
 10
1640.015220
 20
1081.856295
 42
-0.031909
  0
VERTEX
  8
0
 10
1617.394619
 20
1056.994647
 42
-0.012445
  0
VERTEX
  8
0
 10
1607.351380
 20
1047.752636
 42
-0.014952
  0
VERTEX
  8
0
 10
1597.443275
 20
1039.590324
 42
-0.014042
  0
VERTEX
  8
0
 10
1586.557654
 20
1031.635044
 42
-0.009022
  0
VERTEX
  8
0
 10
1573.516174
 20
1022.997587
 42
-0.026791
  0
VERTEX
  8
0
 10
1515.282164
 20
990.166052
 42
-0.025330
  0
VERTEX
  8
0
 10
1452.788839
 20
963.067749
 42
-0.025960
  0
VERTEX
  8
0
 10
1389.648263
 20
943.079174
 42
-0.032798
  0
VERTEX
  8
0
 10
1329.500000
 20
931.567005
 42
-0.021383
  0
VERTEX
  8
0
 10
1276.485758
 20
927.275287
 42
-0.012681
  0
VERTEX
  8
0
 10
1213.065256
 20
926.472461
 42
-0.012589
  0
VERTEX
  8
0
 10
1148.553495
 20
928.917349
 42
-0.018412
  0
VERTEX
  8
0
 10
1092.005430
 20
934.584021
 42
-0.019403
  0
VERTEX
  8
0
 10
1048.954663
 20
942.217774
 42
-0.016400
  0
VERTEX
  8
0
 10
1004.110903
 20
953.529475
 42
-0.015803
  0
VERTEX
  8
0
 10
958.351545
 20
968.262725
 42
-0.014764
  0
VERTEX
  8
0
 10
912.550194
 20
986.165508
 42
-0.018992
  0
VERTEX
  8
0
 10
880.646546
 20
1001.189917
 42
-0.026028
  0
VERTEX
  8
0
 10
853.272032
 20
1017.234473
 42
-0.027161
  0
VERTEX
  8
0
 10
828.634803
 20
1035.444220
 42
-0.023911
  0
VERTEX
  8
0
 10
804.996385
 20
1056.968442
 42
-0.021087
  0
VERTEX
  8
0
 10
785.630102
 20
1078.084673
 42
-0.020827
  0
VERTEX
  8
0
 10
768.026982
 20
1100.841923
 42
-0.020998
  0
VERTEX
  8
0
 10
752.516448
 20
1124.789595
 42
-0.022354
  0
VERTEX
  8
0
 10
739.414259
 20
1149.469075
 42
-0.017333
  0
VERTEX
  8
0
 10
718.514691
 20
1197.727103
 42
-0.013813
  0
VERTEX
  8
0
 10
699.252164
 20
1251.091309
 42
-0.013413
  0
VERTEX
  8
0
 10
682.368120
 20
1307.268898
 42
-0.013610
  0
VERTEX
  8
0
 10
668.610353
 20
1364.000000
 42
-0.006331
  0
VERTEX
  8
0
 10
655.839206
 20
1427.643867
 42
-0.001468
  0
VERTEX
  8
0
 10
636.033284
 20
1534.998822
 42
-0.000191
  0
VERTEX
  8
0
 10
614.379538
 20
1654.592451
 42
-0.099058
  0
VERTEX
  8
0
 10
614.520027
 20
1662.091181
 42
-0.044045
  0
VERTEX
  8
0
 10
614.883670
 20
1663.249336
 42
-0.029704
  0
VERTEX
  8
0
 10
615.488639
 20
1664.496423
 42
-0.029958
  0
VERTEX
  8
0
 10
616.224268
 20
1665.641707
 42
-0.051140
  0
VERTEX
  8
0
 10
616.984238
 20
1666.485736
 42
-0.126775
  0
VERTEX
  8
0
 10
618.661655
 20
1667.366194
 42
-0.063663
  0
VERTEX
  8
0
 10
621.057576
 20
1667.616276
 42
-0.023454
  0
VERTEX
  8
0
 10
625.292266
 20
1667.319144
 42
-0.002190
  0
VERTEX
  8
0
 10
635.677558
 20
1666.052863
 42
-0.004826
  0
VERTEX
  8
0
 10
644.114329
 20
1664.903806
 42
-0.001745
  0
VERTEX
  8
0
 10
656.077158
 20
1663.114099
 42
-0.001730
  0
VERTEX
  8
0
 10
669.163971
 20
1661.063152
 42
-0.002058
  0
VERTEX
  8
0
 10
681.500000
 20
1659.033999
 42
0.012642
  0
VERTEX
  8
0
 10
722.653423
 20
1653.156346
 42
0.020453
  0
VERTEX
  8
0
 10
757.910724
 20
1650.482902
 42
0.022072
  0
VERTEX
  8
0
 10
791.246341
 20
1650.794763
 42
0.018554
  0
VERTEX
  8
0
 10
826.429881
 20
1653.990997
 42
0.051412
  0
VERTEX
  8
0
 10
909.955464
 20
1673.586189
 42
0.051858
  0
VERTEX
  8
0
 10
987.468587
 20
1709.774446
 42
0.052055
  0
VERTEX
  8
0
 10
1055.618909
 20
1760.986130
 42
0.052593
  0
VERTEX
  8
0
 10
1111.460214
 20
1825.007131
 42
0.011961
  0
VERTEX
  8
0
 10
1120.645550
 20
1838.777748
 42
0.010611
  0
VERTEX
  8
0
 10
1129.548781
 20
1853.526477
 42
0.009152
  0
VERTEX
  8
0
 10
1138.950747
 20
1870.591125
 42
0.005243
  0
VERTEX
  8
0
 10
1149.698104
 20
1891.500000
 42
-0.002318
  0
VERTEX
  8
0
 10
1161.947881
 20
1915.678651
 42
-0.003920
  0
VERTEX
  8
0
 10
1172.463247
 20
1935.807080
 42
-0.000704
  0
VERTEX
  8
0
 10
1181.810098
 20
1953.302595
 42
-0.276415
  0
VERTEX
  8
0
 10
1182.975232
 20
1954.000000
 42
-0.227609
  0
VERTEX
  8
0
 10
1183.483608
 20
1953.755934
 42
-0.001074
  0
VERTEX
  8
0
 10
1187.214811
 20
1949.079688
 42
-0.004635
  0
VERTEX
  8
0
 10
1191.429965
 20
1943.671374
 42
-0.002878
  0
SEQEND
  0
POLYLINE
  8
0
 66
1
 70
1
  0
VERTEX
  8
0
 10
281.500000
 20
1017.872635
 42
0.039204
  0
VERTEX
  8
0
 10
266.260480
 20
1014.741599
 42
0.035559
  0
VERTEX
  8
0
 10
251.171678
 20
1009.197959
 42
0.035904
  0
VERTEX
  8
0
 10
237.173709
 20
1001.642245
 42
0.042210
  0
VERTEX
  8
0
 10
225.189311
 20
992.510764
 42
0.047926
  0
VERTEX
  8
0
 10
213.183169
 20
979.349793
 42
0.022518
  0
VERTEX
  8
0
 10
200.189646
 20
960.305612
 42
0.020585
  0
VERTEX
  8
0
 10
187.304116
 20
937.406277
 42
0.017379
  0
VERTEX
  8
0
 10
175.545973
 20
912.210123
 42
0.011312
  0
VERTEX
  8
0
 10
170.628482
 20
899.871401
 42
0.028034
  0
VERTEX
  8
0
 10
167.748592
 20
890.580344
 42
0.033609
  0
VERTEX
  8
0
 10
166.226623
 20
882.087658
 42
0.024406
  0
VERTEX
  8
0
 10
165.637845
 20
872.500000
 42
0.039995
  0
VERTEX
  8
0
 10
166.548322
 20
859.015205
 42
0.023389
  0
VERTEX
  8
0
 10
169.673869
 20
843.117961
 42
0.019983
  0
VERTEX
  8
0
 10
174.950485
 20
824.827437
 42
0.012731
  0
VERTEX
  8
0
 10
182.468616
 20
803.991374
 42
0.012475
  0
VERTEX
  8
0
 10
188.682651
 20
789.157255
 42
0.027883
  0
VERTEX
  8
0
 10
194.298320
 20
778.301595
 42
0.035635
  0
VERTEX
  8
0
 10
200.041472
 20
769.985333
 42
0.043373
  0
VERTEX
  8
0
 10
206.575694
 20
763.142286
 42
0.066581
  0
VERTEX
  8
0
 10
213.325836
 20
758.634199
 42
0.058371
  0
VERTEX
  8
0
 10
221.328374
 20
755.810191
 42
0.060282
  0
VERTEX
  8
0
 10
229.484988
 20
754.973529
 42
0.083952
  0
VERTEX
  8
0
 10
236.684057
 20
756.326078
 42
0.075891
  0
VERTEX
  8
0
 10
243.814045
 20
760.264988
 42
0.057799
  0
VERTEX
  8
0
 10
250.217440
 20
766.495032
 42
0.052404
  0
VERTEX
  8
0
 10
255.568908
 20
774.682061
 42
0.042071
  0
VERTEX
  8
0
 10
259.573910
 20
784.421589
 42
0.024039
  0
VERTEX
  8
0
 10
261.797358
 20
792.848480
 42
0.016549
  0
VERTEX
  8
0
 10
263.534853
 20
802.572755
 42
0.012346
  0
VERTEX
  8
0
 10
265.016806
 20
814.964635
 42
0.004934
  0
VERTEX
  8
0
 10
266.459168
 20
832.000000
 42
-0.017707
  0
VERTEX
  8
0
 10
270.177709
 20
865.665255
 42
-0.046984
  0
VERTEX
  8
0
 10
275.909739
 20
889.157621
 42
-0.065280
  0
VERTEX
  8
0
 10
284.459018
 20
906.258530
 42
-0.076712
  0
VERTEX
  8
0
 10
296.758193
 20
919.538013
 42
-0.049256
  0
VERTEX
  8
0
 10
306.992716
 20
926.129089
 42
-0.042290
  0
VERTEX
  8
0
 10
318.847556
 20
930.990817
 42
-0.034429
  0
VERTEX
  8
0
 10
333.493795
 20
934.510273
 42
-0.017247
  0
VERTEX
  8
0
 10
352.376985
 20
937.027130
 42
-0.025379
  0
VERTEX
  8
0
 10
373.741360
 20
938.037683
 42
-0.015401
  0
VERTEX
  8
0
 10
399.033237
 20
937.170279
 42
-0.015425
  0
VERTEX
  8
0
 10
424.088766
 20
934.759312
 42
-0.026607
  0
VERTEX
  8
0
 10
444.692572
 20
931.010514
 42
-0.061225
  0
VERTEX
  8
0
 10
464.108106
 20
923.802559
 42
-0.066617
  0
VERTEX
  8
0
 10
480.596514
 20
912.258621
 42
-0.069125
  0
VERTEX
  8
0
 10
492.986641
 20
897.213352
 42
-0.074724
  0
VERTEX
  8
0
 10
500.408713
 20
879.742366
 42
-0.042795
  0
VERTEX
  8
0
 10
502.591924
 20
866.791929
 42
-0.018280
  0
VERTEX
  8
0
 10
503.381209
 20
849.231427
 42
-0.018177
  0
VERTEX
  8
0
 10
502.863054
 20
830.723692
 42
-0.026399
  0
VERTEX
  8
0
 10
500.954135
 20
814.500000
 42
0.027883
  0
VERTEX
  8
0
 10
499.860117
 20
804.958322
 42
0.009000
  0
VERTEX
  8
0
 10
499.285095
 20
790.735804
 42
0.007758
  0
VERTEX
  8
0
 10
499.188615
 20
776.739994
 42
0.049503
  0
VERTEX
  8
0
 10
499.949787
 20
769.689819
 42
0.077155
  0
VERTEX
  8
0
 10
502.440660
 20
763.081854
 42
0.099349
  0
VERTEX
  8
0
 10
506.673983
 20
758.181838
 42
0.107547
  0
VERTEX
  8
0
 10
512.183759
 20
755.547800
 42
0.104660
  0
VERTEX
  8
0
 10
518.346935
 20
755.405307
 42
0.103720
  0
VERTEX
  8
0
 10
526.837164
 20
758.916573
 42
0.022608
  0
VERTEX
  8
0
 10
539.569486
 20
768.476812
 42
0.023852
  0
VERTEX
  8
0
 10
552.802388
 20
780.485992
 42
0.029038
  0
VERTEX
  8
0
 10
563.936200
 20
792.975198
 42
0.019369
  0
VERTEX
  8
0
 10
576.549879
 20
810.228274
 42
0.023296
  0
VERTEX
  8
0
 10
586.983402
 20
827.400392
 42
0.025544
  0
VERTEX
  8
0
 10
594.798886
 20
843.649411
 42
0.042744
  0
VERTEX
  8
0
 10
599.447377
 20
858.071501
 42
0.031980
  0
VERTEX
  8
0
 10
601.471271
 20
870.421914
 42
0.040728
  0
VERTEX
  8
0
 10
601.668346
 20
881.960085
 42
0.043795
  0
VERTEX
  8
0
 10
600.032800
 20
892.646790
 42
0.049190
  0
VERTEX
  8
0
 10
596.587972
 20
902.456862
 42
0.046716
  0
VERTEX
  8
0
 10
590.546641
 20
912.782737
 42
0.019243
  0
VERTEX
  8
0
 10
580.583060
 20
925.588575
 42
0.018849
  0
VERTEX
  8
0
 10
568.773760
 20
938.589969
 42
0.023095
  0
VERTEX
  8
0
 10
556.760903
 20
949.770646
 42
0.017573
  0
VERTEX
  8
0
 10
538.172632
 20
964.443197
 42
0.023153
  0
VERTEX
  8
0
 10
520.190923
 20
976.399018
 42
0.024793
  0
VERTEX
  8
0
 10
502.282884
 20
985.971612
 42
0.026597
  0
VERTEX
  8
0
 10
483.923263
 20
993.478565
 42
0.032605
  0
VERTEX
  8
0
 10
460.646062
 20
999.915060
 42
0.008327
  0
VERTEX
  8
0
 10
422.201488
 20
1007.226382
 42
0.008811
  0
VERTEX
  8
0
 10
380.165441
 20
1013.736920
 42
0.012437
  0
VERTEX
  8
0
 10
342.500000
 20
1017.941299
 42
0.016286
  0
VERTEX
  8
0
 10
329.430753
 20
1018.644086
 42
0.005570
  0
VERTEX
  8
0
 10
310.451994
 20
1018.834148
 42
0.005042
  0
VERTEX
  8
0
 10
291.823936
 20
1018.625336
 42
0.025749
  0
SEQEND
  0
POLYLINE
  8
0
 66
1
 70
1
  0
VERTEX
  8
0
 10
356.000000
 20
1013.576302
 42
-0.007168
  0
VERTEX
  8
0
 10
395.390973
 20
1008.388158
 42
-0.008818
  0
VERTEX
  8
0
 10
431.975818
 20
1002.374192
 42
-0.009401
  0
VERTEX
  8
0
 10
462.900500
 20
996.125930
 42
-0.028748
  0
VERTEX
  8
0
 10
483.483982
 20
990.304005
 42
-0.042357
  0
VERTEX
  8
0
 10
509.653986
 20
978.686558
 42
-0.031361
  0
VERTEX
  8
0
 10
536.403801
 20
961.723114
 42
-0.030839
  0
VERTEX
  8
0
 10
561.365068
 20
941.142136
 42
-0.036251
  0
VERTEX
  8
0
 10
582.191144
 20
918.659040
 42
-0.027817
  0
VERTEX
  8
0
 10
590.679164
 20
906.746049
 42
-0.053177
  0
VERTEX
  8
0
 10
595.859174
 20
896.216673
 42
-0.059943
  0
VERTEX
  8
0
 10
598.329885
 20
885.721183
 42
-0.046776
  0
VERTEX
  8
0
 10
598.540550
 20
874.000000
 42
-0.038423
  0
VERTEX
  8
0
 10
596.263096
 20
859.164122
 42
-0.036975
  0
VERTEX
  8
0
 10
591.725804
 20
844.652961
 42
-0.032664
  0
VERTEX
  8
0
 10
584.529343
 20
829.456175
 42
-0.019938
  0
VERTEX
  8
0
 10
574.193049
 20
812.500000
 42
-0.017289
  0
VERTEX
  8
0
 10
562.863678
 20
796.693613
 42
-0.025336
  0
VERTEX
  8
0
 10
551.750538
 20
783.688708
 42
-0.027979
  0
VERTEX
  8
0
 10
540.342082
 20
772.908954
 42
-0.030705
  0
VERTEX
  8
0
 10
528.135528
 20
763.825639
 42
-0.012557
  0
VERTEX
  8
0
 10
522.279188
 20
760.208988
 42
-0.058084
  0
VERTEX
  8
0
 10
518.637839
 20
758.617324
 42
-0.089827
  0
VERTEX
  8
0
 10
515.542040
 20
758.253857
 42
-0.057261
  0
VERTEX
  8
0
 10
511.963055
 20
758.892923
 42
-0.134703
  0
VERTEX
  8
0
 10
506.841960
 20
762.095685
 42
-0.114716
  0
VERTEX
  8
0
 10
503.690351
 20
767.655686
 42
-0.064824
  0
VERTEX
  8
0
 10
502.244884
 20
776.741012
 42
-0.017057
  0
VERTEX
  8
0
 10
502.330493
 20
791.500000
 42
-0.005900
  0
VERTEX
  8
0
 10
502.667478
 20
798.011029
 42
-0.004410
  0
VERTEX
  8
0
 10
503.186778
 20
805.178125
 42
-0.004459
  0
VERTEX
  8
0
 10
503.795793
 20
811.921577
 42
-0.010143
  0
VERTEX
  8
0
 10
504.404385
 20
817.000000
 42
0.018944
  0
VERTEX
  8
0
 10
506.225497
 20
834.850109
 42
0.021463
  0
VERTEX
  8
0
 10
506.584585
 20
852.056388
 42
0.023054
  0
VERTEX
  8
0
 10
505.503882
 20
867.888825
 42
0.034047
  0
VERTEX
  8
0
 10
502.979976
 20
881.578295
 42
0.077015
  0
VERTEX
  8
0
 10
495.408969
 20
899.281871
 42
0.068171
  0
VERTEX
  8
0
 10
482.573182
 20
914.708740
 42
0.065484
  0
VERTEX
  8
0
 10
465.523007
 20
926.623087
 42
0.061564
  0
VERTEX
  8
0
 10
445.616928
 20
934.028480
 42
0.028055
  0
VERTEX
  8
0
 10
423.475876
 20
937.990804
 42
0.016135
  0
VERTEX
  8
0
 10
396.472071
 20
940.392912
 42
0.016140
  0
VERTEX
  8
0
 10
369.411892
 20
941.047246
 42
0.028453
  0
VERTEX
  8
0
 10
347.107838
 20
939.595604
 42
0.017383
  0
VERTEX
  8
0
 10
326.466082
 20
936.335463
 42
0.045859
  0
VERTEX
  8
0
 10
312.109268
 20
932.159464
 42
0.057792
  0
VERTEX
  8
0
 10
300.774684
 20
926.111239
 42
0.044778
  0
VERTEX
  8
0
 10
290.022256
 20
917.143892
 42
0.011488
  0
VERTEX
  8
0
 10
285.643223
 20
912.566032
 42
0.021546
  0
VERTEX
  8
0
 10
282.355530
 20
908.640036
 42
0.024356
  0
VERTEX
  8
0
 10
279.694780
 20
904.795178
 42
0.020712
  0
VERTEX
  8
0
 10
277.262615
 20
900.500000
 42
0.042037
  0
VERTEX
  8
0
 10
272.454560
 20
888.796316
 42
0.025345
  0
VERTEX
  8
0
 10
268.666988
 20
874.271888
 42
0.020615
  0
VERTEX
  8
0
 10
265.711822
 20
856.323982
 42
0.011086
  0
VERTEX
  8
0
 10
263.476628
 20
834.000000
 42
-0.004852
  0
VERTEX
  8
0
 10
261.457860
 20
810.941273
 42
-0.019733
  0
VERTEX
  8
0
 10
259.541895
 20
796.991449
 42
-0.031221
  0
VERTEX
  8
0
 10
257.069132
 20
786.815317
 42
-0.034830
  0
VERTEX
  8
0
 10
253.414289
 20
777.404266
 42
-0.046894
  0
VERTEX
  8
0
 10
248.779660
 20
769.562302
 42
-0.066931
  0
VERTEX
  8
0
 10
243.209361
 20
763.715206
 42
-0.073746
  0
VERTEX
  8
0
 10
236.750746
 20
759.941849
 42
-0.074320
  0
VERTEX
  8
0
 10
229.492152
 20
758.218126
 42
-0.159166
  0
VERTEX
  8
0
 10
214.405661
 20
761.764780
 42
-0.100048
  0
VERTEX
  8
0
 10
200.984186
 20
774.168522
 42
-0.061031
  0
VERTEX
  8
0
 10
188.464774
 20
796.898735
 42
-0.020858
  0
VERTEX
  8
0
 10
175.897014
 20
832.447169
 42
-0.025090
  0
VERTEX
  8
0
 10
170.062332
 20
855.495141
 42
-0.056756
  0
VERTEX
  8
0
 10
168.547647
 20
873.402187
 42
-0.060832
  0
VERTEX
  8
0
 10
171.127696
 20
890.413487
 42
-0.032797
  0
VERTEX
  8
0
 10
178.159954
 20
910.445854
 42
-0.020523
  0
VERTEX
  8
0
 10
193.261286
 20
942.175286
 42
-0.031708
  0
VERTEX
  8
0
 10
209.093149
 20
968.076078
 42
-0.037421
  0
VERTEX
  8
0
 10
225.316492
 20
987.859226
 42
-0.068375
  0
VERTEX
  8
0
 10
241.613545
 20
1000.839720
 42
-0.027215
  0
VERTEX
  8
0
 10
251.178744
 20
1005.839488
 42
-0.024811
  0
VERTEX
  8
0
 10
261.526280
 20
1009.943854
 42
-0.024701
  0
VERTEX
  8
0
 10
272.279411
 20
1013.019808
 42
-0.026325
  0
VERTEX
  8
0
 10
283.058148
 20
1014.943163
 42
-0.030814
  0
VERTEX
  8
0
 10
294.712121
 20
1015.670553
 42
-0.004866
  0
VERTEX
  8
0
 10
317.667652
 20
1015.463829
 42
-0.005572
  0
VERTEX
  8
0
 10
340.891718
 20
1014.769650
 42
-0.018900
  0
SEQEND
  0
POLYLINE
  8
0
 66
1
 70
1
  0
VERTEX
  8
0
 10
2079.000000
 20
1008.893958
 42
0.019214
  0
VERTEX
  8
0
 10
2030.287067
 20
1003.817825
 42
0.020262
  0
VERTEX
  8
0
 10
1982.972916
 20
995.072502
 42
0.021669
  0
VERTEX
  8
0
 10
1940.917809
 20
983.586160
 42
0.041243
  0
VERTEX
  8
0
 10
1908.538630
 20
970.185866
 42
0.034319
  0
VERTEX
  8
0
 10
1895.077771
 20
962.053884
 42
0.027163
  0
VERTEX
  8
0
 10
1881.707971
 20
951.540421
 42
0.027447
  0
VERTEX
  8
0
 10
1869.738591
 20
939.804287
 42
0.038315
  0
VERTEX
  8
0
 10
1860.505804
 20
928.000000
 42
0.025995
  0
VERTEX
  8
0
 10
1854.190043
 20
917.347959
 42
0.024806
  0
VERTEX
  8
0
 10
1848.904985
 20
905.933224
 42
0.024805
  0
VERTEX
  8
0
 10
1844.776262
 20
894.050757
 42
0.025988
  0
VERTEX
  8
0
 10
1841.918423
 20
882.000000
 42
0.033034
  0
VERTEX
  8
0
 10
1840.999051
 20
874.029575
 42
0.012130
  0
VERTEX
  8
0
 10
1840.720824
 20
862.693728
 42
0.012292
  0
VERTEX
  8
0
 10
1841.000473
 20
851.188395
 42
0.027564
  0
VERTEX
  8
0
 10
1841.907325
 20
842.500000
 42
0.061696
  0
VERTEX
  8
0
 10
1849.853589
 20
815.108576
 42
0.046316
  0
VERTEX
  8
0
 10
1864.865941
 20
787.507552
 42
0.046406
  0
VERTEX
  8
0
 10
1884.658518
 20
763.204440
 42
0.062794
  0
VERTEX
  8
0
 10
1906.854902
 20
745.649428
 42
0.038757
  0
VERTEX
  8
0
 10
1915.841752
 20
741.126546
 42
0.127394
  0
VERTEX
  8
0
 10
1922.369689
 20
740.237434
 42
0.170278
  0
VERTEX
  8
0
 10
1927.380968
 20
742.691475
 42
0.084254
  0
VERTEX
  8
0
 10
1931.490444
 20
748.571383
 42
0.055031
  0
VERTEX
  8
0
 10
1933.654629
 20
754.850230
 42
0.028981
  0
VERTEX
  8
0
 10
1935.003465
 20
762.999404
 42
0.019614
  0
VERTEX
  8
0
 10
1935.758422
 20
774.273576
 42
0.006346
  0
VERTEX
  8
0
 10
1936.008489
 20
791.000000
 42
-0.007659
  0
VERTEX
  8
0
 10
1936.536791
 20
821.056424
 42
-0.010999
  0
VERTEX
  8
0
 10
1937.997691
 20
847.644289
 42
-0.011378
  0
VERTEX
  8
0
 10
1940.153061
 20
869.203404
 42
-0.052289
  0
VERTEX
  8
0
 10
1942.975107
 20
881.427647
 42
-0.036607
  0
VERTEX
  8
0
 10
1947.243443
 20
891.396591
 42
-0.041079
  0
VERTEX
  8
0
 10
1952.784097
 20
900.237183
 42
-0.042423
  0
VERTEX
  8
0
 10
1959.514015
 20
907.806714
 42
-0.044573
  0
VERTEX
  8
0
 10
1967.321446
 20
913.994275
 42
-0.062986
  0
VERTEX
  8
0
 10
1980.169517
 20
920.284350
 42
-0.019477
  0
VERTEX
  8
0
 10
2000.843677
 20
926.465441
 42
-0.019761
  0
VERTEX
  8
0
 10
2023.834068
 20
931.414999
 42
-0.026355
  0
VERTEX
  8
0
 10
2045.036017
 20
933.967995
 42
-0.024903
  0
VERTEX
  8
0
 10
2066.456766
 20
934.339523
 42
-0.034456
  0
VERTEX
  8
0
 10
2085.570496
 20
932.395930
 42
-0.037221
  0
VERTEX
  8
0
 10
2103.017711
 20
928.040595
 42
-0.038470
  0
VERTEX
  8
0
 10
2119.426786
 20
921.181359
 42
-0.048354
  0
VERTEX
  8
0
 10
2135.801364
 20
910.697940
 42
-0.052834
  0
VERTEX
  8
0
 10
2149.327830
 20
897.537710
 42
-0.051962
  0
VERTEX
  8
0
 10
2159.971681
 20
881.631177
 42
-0.044216
  0
VERTEX
  8
0
 10
2167.794287
 20
863.000000
 42
-0.023645
  0
VERTEX
  8
0
 10
2172.108796
 20
846.901889
 42
-0.009613
  0
VERTEX
  8
0
 10
2176.513890
 20
824.640029
 42
-0.009132
  0
VERTEX
  8
0
 10
2179.998720
 20
802.748787
 42
-0.034322
  0
VERTEX
  8
0
 10
2180.984359
 20
788.886490
 42
0.038616
  0
VERTEX
  8
0
 10
2181.762117
 20
779.131221
 42
0.043292
  0
VERTEX
  8
0
 10
2184.030862
 20
769.990380
 42
0.045778
  0
VERTEX
  8
0
 10
2187.679736
 20
761.848104
 42
0.055536
  0
VERTEX
  8
0
 10
2192.563056
 20
755.061885
 42
0.032982
  0
VERTEX
  8
0
 10
2196.156609
 20
751.576322
 42
0.061119
  0
VERTEX
  8
0
 10
2199.546602
 20
749.345021
 42
0.066397
  0
VERTEX
  8
0
 10
2203.175597
 20
748.112391
 42
0.046589
  0
VERTEX
  8
0
 10
2207.474054
 20
747.673613
 42
0.061625
  0
VERTEX
  8
0
 10
2212.298991
 20
748.228389
 42
0.066070
  0
VERTEX
  8
0
 10
2216.722509
 20
749.941671
 42
0.052930
  0
VERTEX
  8
0
 10
2221.278197
 20
753.106990
 42
0.023606
  0
VERTEX
  8
0
 10
2226.579166
 20
758.147281
 42
0.034976
  0
VERTEX
  8
0
 10
2237.244532
 20
770.978670
 42
0.039276
  0
VERTEX
  8
0
 10
2245.565419
 20
784.702687
 42
0.034747
  0
VERTEX
  8
0
 10
2252.372715
 20
800.936231
 42
0.019363
  0
VERTEX
  8
0
 10
2258.484043
 20
821.500000
 42
0.013565
  0
VERTEX
  8
0
 10
2261.756331
 20
835.928125
 42
0.019746
  0
VERTEX
  8
0
 10
2263.788311
 20
848.813310
 42
0.020843
  0
VERTEX
  8
0
 10
2264.727070
 20
861.265798
 42
0.018068
  0
VERTEX
  8
0
 10
2264.693445
 20
874.363860
 42
0.023934
  0
VERTEX
  8
0
 10
2263.230425
 20
891.223538
 42
0.029436
  0
VERTEX
  8
0
 10
2260.197410
 20
906.720457
 42
0.029276
  0
VERTEX
  8
0
 10
2255.348549
 20
921.823117
 42
0.023242
  0
VERTEX
  8
0
 10
2248.428864
 20
937.500000
 42
0.054090
  0
VERTEX
  8
0
 10
2230.535666
 20
965.402121
 42
0.065728
  0
VERTEX
  8
0
 10
2208.066917
 20
986.810258
 42
0.067160
  0
VERTEX
  8
0
 10
2181.240373
 20
1001.321211
 42
0.060138
  0
VERTEX
  8
0
 10
2150.500000
 20
1008.895807
 42
0.026270
  0
VERTEX
  8
0
 10
2139.602885
 20
1009.648163
 42
0.004107
  0
VERTEX
  8
0
 10
2118.042348
 20
1009.824722
 42
0.004906
  0
VERTEX
  8
0
 10
2095.708618
 20
1009.604989
 42
0.011440
  0
SEQEND
  0
POLYLINE
  8
0
 66
1
 70
1
  0
VERTEX
  8
0
 10
2148.696915
 20
1005.927520
 42
-0.027734
  0
VERTEX
  8
0
 10
2163.111942
 20
1003.504974
 42
-0.027561
  0
VERTEX
  8
0
 10
2177.200975
 20
999.498372
 42
-0.028285
  0
VERTEX
  8
0
 10
2190.386113
 20
994.098154
 42
-0.033701
  0
VERTEX
  8
0
 10
2202.095284
 20
987.507562
 42
-0.044209
  0
VERTEX
  8
0
 10
2214.402896
 20
977.788856
 42
-0.029254
  0
VERTEX
  8
0
 10
2226.760778
 20
964.670252
 42
-0.028534
  0
VERTEX
  8
0
 10
2237.907819
 20
949.698730
 42
-0.033880
  0
VERTEX
  8
0
 10
2246.590910
 20
934.363750
 42
-0.039673
  0
VERTEX
  8
0
 10
2255.935736
 20
910.139833
 42
-0.044307
  0
VERTEX
  8
0
 10
2260.914131
 20
885.620771
 42
-0.043265
  0
VERTEX
  8
0
 10
2261.559454
 20
860.106138
 42
-0.034888
  0
VERTEX
  8
0
 10
2257.977527
 20
832.906771
 42
-0.023868
  0
VERTEX
  8
0
 10
2252.297867
 20
810.515289
 42
-0.032982
  0
VERTEX
  8
0
 10
2244.956572
 20
791.133847
 42
-0.036823
  0
VERTEX
  8
0
 10
2235.966247
 20
774.740842
 42
-0.047918
  0
VERTEX
  8
0
 10
2225.326260
 20
761.338645
 42
-0.017637
  0
VERTEX
  8
0
 10
2219.927276
 20
756.116465
 42
-0.052688
  0
VERTEX
  8
0
 10
2215.774775
 20
753.100213
 42
-0.071579
  0
VERTEX
  8
0
 10
2211.861189
 20
751.537015
 42
-0.059161
  0
VERTEX
  8
0
 10
2207.397883
 20
751.003738
 42
-0.060881
  0
VERTEX
  8
0
 10
2203.021061
 20
751.535398
 42
-0.077810
  0
VERTEX
  8
0
 10
2199.281154
 20
753.106911
 42
-0.068360
  0
VERTEX
  8
0
 10
2195.856095
 20
755.931515
 42
-0.035779
  0
VERTEX
  8
0
 10
2192.403982
 20
760.260789
 42
-0.036565
  0
VERTEX
  8
0
 10
2188.832156
 20
766.377635
 42
-0.045746
  0
VERTEX
  8
0
 10
2186.493163
 20
772.517185
 42
-0.036828
  0
VERTEX
  8
0
 10
2184.991622
 20
779.964860
 42
-0.014554
  0
VERTEX
  8
0
 10
2183.987167
 20
790.372036
 42
0.019932
  0
VERTEX
  8
0
 10
2181.328689
 20
815.129726
 42
0.016890
  0
VERTEX
  8
0
 10
2176.601655
 20
841.018040
 42
0.017173
  0
VERTEX
  8
0
 10
2170.695410
 20
864.272673
 42
0.046335
  0
VERTEX
  8
0
 10
2164.448629
 20
880.111432
 42
0.033524
  0
VERTEX
  8
0
 10
2158.528883
 20
890.093282
 42
0.025649
  0
VERTEX
  8
0
 10
2150.809698
 20
900.171781
 42
0.025810
  0
VERTEX
  8
0
 10
2142.175127
 20
909.320415
 42
0.035946
  0
VERTEX
  8
0
 10
2133.500000
 20
916.492385
 42
0.066552
  0
VERTEX
  8
0
 10
2109.705308
 20
929.063992
 42
0.053724
  0
VERTEX
  8
0
 10
2081.643880
 20
936.104053
 42
0.048308
  0
VERTEX
  8
0
 10
2049.862625
 20
937.437136
 42
0.035920
  0
VERTEX
  8
0
 10
2015.000000
 20
933.005858
 42
0.013437
  0
VERTEX
  8
0
 10
2003.266301
 20
930.318953
 42
0.008912
  0
VERTEX
  8
0
 10
1989.950464
 20
926.636498
 42
0.008102
  0
VERTEX
  8
0
 10
1977.769899
 20
922.817416
 42
0.037656
  0
VERTEX
  8
0
 10
1970.974213
 20
919.981718
 42
0.067870
  0
VERTEX
  8
0
 10
1958.683947
 20
911.462574
 42
0.059461
  0
VERTEX
  8
0
 10
1948.486282
 20
899.606937
 42
0.057556
  0
VERTEX
  8
0
 10
1941.091345
 20
885.283560
 42
0.055782
  0
VERTEX
  8
0
 10
1937.058539
 20
869.500000
 42
0.011393
  0
VERTEX
  8
0
 10
1935.550757
 20
856.551176
 42
0.008904
  0
VERTEX
  8
0
 10
1934.485489
 20
842.435722
 42
0.006546
  0
VERTEX
  8
0
 10
1933.693490
 20
824.619439
 42
0.002421
  0
VERTEX
  8
0
 10
1933.027903
 20
799.500000
 42
-0.002403
  0
VERTEX
  8
0
 10
1932.281446
 20
771.291071
 42
-0.023395
  0
VERTEX
  8
0
 10
1931.350472
 20
759.386246
 42
-0.057254
  0
VERTEX
  8
0
 10
1929.601407
 20
752.214300
 42
-0.073128
  0
VERTEX
  8
0
 10
1926.346301
 20
746.250000
 42
-0.088179
  0
VERTEX
  8
0
 10
1923.838409
 20
743.916877
 42
-0.141004
  0
VERTEX
  8
0
 10
1921.057149
 20
743.077065
 42
-0.096666
  0
VERTEX
  8
0
 10
1917.491859
 20
743.724534
 42
-0.027599
  0
VERTEX
  8
0
 10
1912.351546
 20
746.066844
 42
-0.063700
  0
VERTEX
  8
0
 10
1893.700100
 20
759.102033
 42
-0.039593
  0
VERTEX
  8
0
 10
1875.389452
 20
778.582771
 42
-0.038782
  0
VERTEX
  8
0
 10
1859.869043
 20
801.377471
 42
-0.050273
  0
VERTEX
  8
0
 10
1849.569042
 20
824.454930
 42
-0.043856
  0
VERTEX
  8
0
 10
1845.362040
 20
842.287875
 42
-0.035344
  0
VERTEX
  8
0
 10
1843.918186
 20
861.933669
 42
-0.035630
  0
VERTEX
  8
0
 10
1845.253298
 20
881.386546
 42
-0.047271
  0
VERTEX
  8
0
 10
1849.368432
 20
898.633075
 42
-0.051670
  0
VERTEX
  8
0
 10
1859.103659
 20
919.751715
 42
-0.048413
  0
VERTEX
  8
0
 10
1873.144399
 20
938.930571
 42
-0.047606
  0
VERTEX
  8
0
 10
1890.864182
 20
955.338037
 42
-0.046511
  0
VERTEX
  8
0
 10
1911.500000
 20
968.243121
 42
-0.019855
  0
VERTEX
  8
0
 10
1919.721995
 20
971.976225
 42
-0.006855
  0
VERTEX
  8
0
 10
1931.875375
 20
976.729172
 42
-0.006937
  0
VERTEX
  8
0
 10
1945.062743
 20
981.471483
 42
-0.009661
  0
VERTEX
  8
0
 10
1957.000000
 20
985.321855
 42
-0.019972
  0
VERTEX
  8
0
 10
1983.534840
 20
992.175201
 42
-0.012134
  0
VERTEX
  8
0
 10
2015.370860
 20
998.249947
 42
-0.011800
  0
VERTEX
  8
0
 10
2048.972234
 20
1003.008450
 42
-0.013867
  0
VERTEX
  8
0
 10
2081.000000
 20
1005.877756
 42
-0.009754
  0
VERTEX
  8
0
 10
2097.824961
 20
1006.586653
 42
-0.005466
  0
VERTEX
  8
0
 10
2118.297451
 20
1006.825533
 42
-0.004924
  0
VERTEX
  8
0
 10
2137.604739
 20
1006.649579
 42
-0.023026
  0
SEQEND
  0
POLYLINE
  8
0
 66
1
 70
1
  0
VERTEX
  8
0
 10
1629.424916
 20
2344.986176
 42
0.008678
  0
VERTEX
  8
0
 10
1618.485481
 20
2342.625482
 42
0.003481
  0
VERTEX
  8
0
 10
1603.603909
 20
2339.033291
 42
0.003157
  0
VERTEX
  8
0
 10
1589.180767
 20
2335.348458
 42
0.014952
  0
VERTEX
  8
0
 10
1581.000000
 20
2332.939739
 42
0.037503
  0
VERTEX
  8
0
 10
1569.049676
 20
2328.010480
 42
0.029672
  0
VERTEX
  8
0
 10
1556.953444
 20
2320.995760
 42
0.026993
  0
VERTEX
  8
0
 10
1544.671355
 20
2311.873792
 42
0.020275
  0
VERTEX
  8
0
 10
1532.161375
 20
2300.603087
 42
0.036121
  0
VERTEX
  8
0
 10
1511.009742
 20
2276.714638
 42
0.041744
  0
VERTEX
  8
0
 10
1494.631025
 20
2251.108553
 42
0.041654
  0
VERTEX
  8
0
 10
1482.706555
 20
2223.089034
 42
0.035699
  0
VERTEX
  8
0
 10
1474.843334
 20
2192.000000
 42
0.024661
  0
VERTEX
  8
0
 10
1474.274608
 20
2187.547703
 42
0.008140
  0
VERTEX
  8
0
 10
1473.869468
 20
2180.963744
 42
0.007214
  0
VERTEX
  8
0
 10
1473.620667
 20
2172.875034
 42
0.004654
  0
VERTEX
  8
0
 10
1473.554913
 20
2163.500000
 42
0.003694
  0
VERTEX
  8
0
 10
1473.674160
 20
2151.184089
 42
0.015945
  0
VERTEX
  8
0
 10
1474.032373
 20
2143.872912
 42
0.021331
  0
VERTEX
  8
0
 10
1474.803503
 20
2137.660653
 42
0.010739
  0
VERTEX
  8
0
 10
1476.277275
 20
2129.898447
 42
0.062202
  0
VERTEX
  8
0
 10
1491.031266
 20
2087.290687
 42
0.064931
  0
VERTEX
  8
0
 10
1515.655514
 20
2050.296187
 42
0.065842
  0
VERTEX
  8
0
 10
1548.593925
 20
2021.270045
 42
0.067108
  0
VERTEX
  8
0
 10
1587.741488
 20
2002.028502
 42
0.064858
  0
VERTEX
  8
0
 10
1630.826792
 20
1993.595491
 42
0.064718
  0
VERTEX
  8
0
 10
1674.667479
 20
1996.471434
 42
0.063557
  0
VERTEX
  8
0
 10
1717.006000
 20
2010.582118
 42
0.058824
  0
VERTEX
  8
0
 10
1755.667650
 20
2035.154039
 42
0.041094
  0
VERTEX
  8
0
 10
1769.927586
 20
2048.866069
 42
0.035493
  0
VERTEX
  8
0
 10
1782.533973
 20
2065.384202
 42
0.033758
  0
VERTEX
  8
0
 10
1793.246639
 20
2084.382209
 42
0.029554
  0
VERTEX
  8
0
 10
1801.849749
 20
2105.500000
 42
0.015517
  0
VERTEX
  8
0
 10
1808.004113
 20
2125.627825
 42
0.018401
  0
VERTEX
  8
0
 10
1812.515716
 20
2144.991669
 42
0.019754
  0
VERTEX
  8
0
 10
1815.322114
 20
2163.238513
 42
0.026214
  0
VERTEX
  8
0
 10
1816.340572
 20
2180.000000
 42
0.012995
  0
VERTEX
  8
0
 10
1816.170894
 20
2189.576300
 42
0.037820
  0
VERTEX
  8
0
 10
1815.383869
 20
2196.141494
 42
0.044652
  0
VERTEX
  8
0
 10
1813.705404
 20
2201.888417
 42
0.024579
  0
VERTEX
  8
0
 10
1810.699604
 20
2208.573358
 42
0.097166
  0
VERTEX
  8
0
 10
1804.098328
 20
2216.984414
 42
0.099239
  0
VERTEX
  8
0
 10
1794.854201
 20
2222.201633
 42
0.082789
  0
VERTEX
  8
0
 10
1782.895835
 20
2224.018588
 42
0.047152
  0
VERTEX
  8
0
 10
1768.320924
 20
2222.428784
 42
-0.037017
  0
VERTEX
  8
0
 10
1757.482512
 20
2221.024121
 42
-0.013222
  0
VERTEX
  8
0
 10
1741.883354
 20
2220.580360
 42
-0.013401
  0
VERTEX
  8
0
 10
1726.082809
 20
2220.972325
 42
-0.031501
  0
VERTEX
  8
0
 10
1714.364312
 20
2222.320967
 42
-0.015781
  0
VERTEX
  8
0
 10
1705.997063
 20
2224.096707
 42
-0.013769
  0
VERTEX
  8
0
 10
1697.365148
 20
2226.469110
 42
-0.013501
  0
VERTEX
  8
0
 10
1689.779161
 20
2229.006249
 42
-0.049468
  0
VERTEX
  8
0
 10
1685.218914
 20
2231.201303
 42
-0.048265
  0
VERTEX
  8
0
 10
1683.802250
 20
2232.264739
 42
-0.025329
  0
VERTEX
  8
0
 10
1682.251737
 20
2233.832809
 42
-0.024947
  0
VERTEX
  8
0
 10
1680.812274
 20
2235.615639
 42
-0.034885
  0
VERTEX
  8
0
 10
1679.725367
 20
2237.350772
 42
-0.075498
  0
VERTEX
  8
0
 10
1678.288998
 20
2241.422198
 42
-0.039869
  0
VERTEX
  8
0
 10
1677.706111
 20
2246.760715
 42
-0.010402
  0
VERTEX
  8
0
 10
1677.622981
 20
2256.831256
 42
-0.000428
  0
VERTEX
  8
0
 10
1678.107833
 20
2293.000000
 42
0.001947
  0
VERTEX
  8
0
 10
1678.269087
 20
2308.556186
 42
0.011612
  0
VERTEX
  8
0
 10
1678.133143
 20
2316.670967
 42
0.022447
  0
VERTEX
  8
0
 10
1677.688046
 20
2321.903476
 42
0.042730
  0
VERTEX
  8
0
 10
1676.786937
 20
2326.026849
 42
0.066661
  0
VERTEX
  8
0
 10
1673.649231
 20
2332.802390
 42
0.070691
  0
VERTEX
  8
0
 10
1668.889236
 20
2338.363194
 42
0.066287
  0
VERTEX
  8
0
 10
1662.486242
 20
2342.643926
 42
0.049013
  0
VERTEX
  8
0
 10
1654.500000
 20
2345.640646
 42
0.039998
  0
VERTEX
  8
0
 10
1649.349314
 20
2346.583635
 42
0.031815
  0
VERTEX
  8
0
 10
1643.699134
 20
2346.795692
 42
0.026886
  0
VERTEX
  8
0
 10
1637.195071
 20
2346.275209
 42
0.015393
  0
SEQEND
  0
POLYLINE
  8
0
 66
1
 70
1
  0
VERTEX
  8
0
 10
1656.177309
 20
2342.045766
 42
-0.051516
  0
VERTEX
  8
0
 10
1660.813491
 20
2340.120994
 42
-0.041024
  0
VERTEX
  8
0
 10
1665.351262
 20
2337.158010
 42
-0.042080
  0
VERTEX
  8
0
 10
1669.195498
 20
2333.615555
 42
-0.067575
  0
VERTEX
  8
0
 10
1671.735201
 20
2329.959840
 42
-0.068202
  0
VERTEX
  8
0
 10
1673.974566
 20
2323.548504
 42
-0.028900
  0
VERTEX
  8
0
 10
1675.266858
 20
2314.512872
 42
-0.022138
  0
VERTEX
  8
0
 10
1675.743271
 20
2302.610761
 42
-0.010007
  0
VERTEX
  8
0
 10
1675.364226
 20
2287.000000
 42
0.002578
  0
VERTEX
  8
0
 10
1675.033224
 20
2278.546412
 42
0.001949
  0
VERTEX
  8
0
 10
1674.753867
 20
2269.262500
 42
0.001970
  0
VERTEX
  8
0
 10
1674.559860
 20
2260.541391
 42
0.004575
  0
VERTEX
  8
0
 10
1674.500000
 20
2254.000000
 42
0.015531
  0
VERTEX
  8
0
 10
1674.805057
 20
2244.181360
 42
0.059176
  0
VERTEX
  8
0
 10
1675.902565
 20
2238.161471
 42
0.085373
  0
VERTEX
  8
0
 10
1678.132619
 20
2233.759110
 42
0.058084
  0
VERTEX
  8
0
 10
1681.989940
 20
2229.661918
 42
0.079189
  0
VERTEX
  8
0
 10
1686.151209
 20
2227.159276
 42
0.016031
  0
VERTEX
  8
0
 10
1694.270348
 20
2224.183122
 42
0.017026
  0
VERTEX
  8
0
 10
1703.773340
 20
2221.396454
 42
0.017963
  0
VERTEX
  8
0
 10
1713.276443
 20
2219.318474
 42
0.032253
  0
VERTEX
  8
0
 10
1725.322635
 20
2217.928604
 42
0.013021
  0
VERTEX
  8
0
 10
1741.874473
 20
2217.525549
 42
0.012808
  0
VERTEX
  8
0
 10
1758.224950
 20
2217.972188
 42
0.038026
  0
VERTEX
  8
0
 10
1769.341016
 20
2219.413499
 42
-0.027294
  0
VERTEX
  8
0
 10
1777.950195
 20
2220.718014
 42
-0.041130
  0
VERTEX
  8
0
 10
1785.534133
 20
2220.821113
 42
-0.047174
  0
VERTEX
  8
0
 10
1792.166816
 20
2219.730998
 42
-0.060387
  0
VERTEX
  8
0
 10
1797.915177
 20
2217.449650
 42
-0.052092
  0
VERTEX
  8
0
 10
1802.168151
 20
2214.524266
 42
-0.054776
  0
VERTEX
  8
0
 10
1805.645290
 20
2210.827126
 42
-0.048416
  0
VERTEX
  8
0
 10
1808.555482
 20
2206.064919
 42
-0.028724
  0
VERTEX
  8
0
 10
1811.113924
 20
2199.917076
 42
-0.101959
  0
VERTEX
  8
0
 10
1813.804593
 20
2179.913107
 42
-0.027713
  0
VERTEX
  8
0
 10
1809.807394
 20
2148.082684
 42
-0.028398
  0
VERTEX
  8
0
 10
1801.550891
 20
2113.917383
 42
-0.039244
  0
VERTEX
  8
0
 10
1790.080181
 20
2084.547856
 42
-0.045411
  0
VERTEX
  8
0
 10
1777.483980
 20
2063.608091
 42
-0.042105
  0
VERTEX
  8
0
 10
1761.023580
 20
2044.706530
 42
-0.040524
  0
VERTEX
  8
0
 10
1740.979954
 20
2028.192128
 42
-0.035839
  0
VERTEX
  8
0
 10
1717.719865
 20
2014.359507
 42
-0.056281
  0
VERTEX
  8
0
 10
1682.083080
 20
2001.253307
 42
-0.056277
  0
VERTEX
  8
0
 10
1644.420142
 20
1996.423570
 42
-0.056451
  0
VERTEX
  8
0
 10
1606.735928
 20
2000.116228
 42
-0.057311
  0
VERTEX
  8
0
 10
1571.035364
 20
2012.143757
 42
-0.102789
  0
VERTEX
  8
0
 10
1518.361694
 20
2051.715959
 42
-0.100074
  0
VERTEX
  8
0
 10
1485.198902
 20
2109.349707
 42
-0.098011
  0
VERTEX
  8
0
 10
1476.622209
 20
2176.382239
 42
-0.094297
  0
VERTEX
  8
0
 10
1493.974818
 20
2242.630177
 42
-0.038759
  0
VERTEX
  8
0
 10
1508.722058
 20
2268.285784
 42
-0.037335
  0
VERTEX
  8
0
 10
1527.419526
 20
2291.702275
 42
-0.038621
  0
VERTEX
  8
0
 10
1548.634310
 20
2311.274430
 42
-0.050473
  0
VERTEX
  8
0
 10
1570.884118
 20
2325.444394
 42
-0.037729
  0
VERTEX
  8
0
 10
1578.811827
 20
2328.710520
 42
-0.009464
  0
VERTEX
  8
0
 10
1592.194449
 20
2332.798237
 42
-0.009247
  0
VERTEX
  8
0
 10
1608.267839
 20
2337.057354
 42
-0.007526
  0
VERTEX
  8
0
 10
1625.628758
 20
2341.039606
 42
-0.014636
  0
VERTEX
  8
0
 10
1635.508548
 20
2342.849238
 42
-0.029749
  0
VERTEX
  8
0
 10
1643.367740
 20
2343.577544
 42
-0.036787
  0
VERTEX
  8
0
 10
1650.031356
 20
2343.306740
 42
-0.044131
  0
SEQEND
  0
POLYLINE
  8
0
 66
1
 70
1
  0
VERTEX
  8
0
 10
752.500000
 20
2215.974275
 42
0.025321
  0
VERTEX
  8
0
 10
738.193048
 20
2213.753749
 42
0.017055
  0
VERTEX
  8
0
 10
722.129544
 20
2209.844588
 42
0.017194
  0
VERTEX
  8
0
 10
706.721667
 20
2204.956410
 42
0.030716
  0
VERTEX
  8
0
 10
694.500000
 20
2199.745831
 42
0.060094
  0
VERTEX
  8
0
 10
670.708157
 20
2184.006015
 42
0.058193
  0
VERTEX
  8
0
 10
651.050219
 20
2162.906195
 42
0.056281
  0
VERTEX
  8
0
 10
636.260175
 20
2137.154824
 42
0.049853
  0
VERTEX
  8
0
 10
626.844927
 20
2107.688407
 42
0.033161
  0
VERTEX
  8
0
 10
625.187084
 20
2096.202828
 42
0.016905
  0
VERTEX
  8
0
 10
624.556483
 20
2081.630345
 42
0.016899
  0
VERTEX
  8
0
 10
624.914606
 20
2066.929863
 42
0.030705
  0
VERTEX
  8
0
 10
626.347579
 20
2055.000000
 42
0.039547
  0
VERTEX
  8
0
 10
632.119720
 20
2033.300892
 42
0.037664
  0
VERTEX
  8
0
 10
641.308022
 20
2012.408515
 42
0.036642
  0
VERTEX
  8
0
 10
653.805391
 20
1992.601702
 42
0.033255
  0
VERTEX
  8
0
 10
669.439106
 20
1974.138798
 42
0.054797
  0
VERTEX
  8
0
 10
695.423422
 20
1952.596086
 42
0.061867
  0
VERTEX
  8
0
 10
724.467064
 20
1938.236992
 42
0.062603
  0
VERTEX
  8
0
 10
755.837623
 20
1931.532979
 42
0.058292
  0
VERTEX
  8
0
 10
788.682646
 20
1932.550090
 42
0.026413
  0
VERTEX
  8
0
 10
803.415008
 20
1935.539903
 42
0.022952
  0
VERTEX
  8
0
 10
818.471490
 20
1940.179826
 42
0.023651
  0
VERTEX
  8
0
 10
832.412981
 20
1945.945163
 42
0.036840
  0
VERTEX
  8
0
 10
843.734937
 20
1952.323786
 42
0.088169
  0
VERTEX
  8
0
 10
865.160792
 20
1972.793969
 42
0.042568
  0
VERTEX
  8
0
 10
884.970692
 20
2005.305973
 42
0.040693
  0
VERTEX
  8
0
 10
900.249164
 20
2043.468284
 42
0.048217
  0
VERTEX
  8
0
 10
908.081870
 20
2081.500000
 42
0.021853
  0
VERTEX
  8
0
 10
908.865542
 20
2093.912240
 42
0.014814
  0
VERTEX
  8
0
 10
908.720008
 20
2108.081417
 42
0.010902
  0
VERTEX
  8
0
 10
907.914989
 20
2121.112270
 42
0.112042
  0
VERTEX
  8
0
 10
906.296630
 20
2126.223242
 42
0.091863
  0
VERTEX
  8
0
 10
902.292809
 20
2130.853034
 42
0.136603
  0
VERTEX
  8
0
 10
897.392477
 20
2132.942431
 42
0.066731
  0
VERTEX
  8
0
 10
889.639827
 20
2132.928839
 42
0.009672
  0
VERTEX
  8
0
 10
874.000000
 20
2130.495294
 42
-0.017258
  0
VERTEX
  8
0
 10
858.764410
 20
2128.360809
 42
-0.022279
  0
VERTEX
  8
0
 10
844.665432
 20
2127.512009
 42
-0.024852
  0
VERTEX
  8
0
 10
832.539279
 20
2127.925838
 42
-0.055507
  0
VERTEX
  8
0
 10
823.500000
 20
2129.708439
 42
-0.054041
  0
VERTEX
  8
0
 10
812.073126
 20
2134.723691
 42
-0.082087
  0
VERTEX
  8
0
 10
803.694094
 20
2141.574217
 42
-0.083688
  0
VERTEX
  8
0
 10
798.071606
 20
2150.650093
 42
-0.058420
  0
VERTEX
  8
0
 10
794.842191
 20
2162.276361
 42
-0.019569
  0
VERTEX
  8
0
 10
794.289072
 20
2167.060745
 42
-0.031301
  0
VERTEX
  8
0
 10
794.234045
 20
2171.172116
 42
-0.021282
  0
VERTEX
  8
0
 10
794.700633
 20
2176.242932
 42
-0.004622
  0
VERTEX
  8
0
 10
795.958258
 20
2184.943049
 42
0.007107
  0
VERTEX
  8
0
 10
796.812887
 20
2191.070127
 42
0.008296
  0
VERTEX
  8
0
 10
797.444898
 20
2196.911039
 42
0.007823
  0
VERTEX
  8
0
 10
797.819392
 20
2201.858663
 42
0.043062
  0
VERTEX
  8
0
 10
797.749458
 20
2204.530448
 42
0.060866
  0
VERTEX
  8
0
 10
796.885306
 20
2208.158614
 42
0.077854
  0
VERTEX
  8
0
 10
795.208145
 20
2211.151372
 42
0.080661
  0
VERTEX
  8
0
 10
792.751269
 20
2213.411135
 42
0.071362
  0
VERTEX
  8
0
 10
789.602950
 20
2214.893984
 42
0.060163
  0
VERTEX
  8
0
 10
784.485866
 20
2215.812004
 42
0.007057
  0
VERTEX
  8
0
 10
772.883533
 20
2216.313778
 42
0.009077
  0
VERTEX
  8
0
 10
760.990647
 20
2216.444057
 42
0.024041
  0
SEQEND
  0
POLYLINE
  8
0
 66
1
 70
1
  0
VERTEX
  8
0
 10
788.338872
 20
2212.061261
 42
-0.067602
  0
VERTEX
  8
0
 10
791.159658
 20
2210.526409
 42
-0.081675
  0
VERTEX
  8
0
 10
793.265632
 20
2208.373989
 42
-0.082501
  0
VERTEX
  8
0
 10
794.556899
 20
2205.679391
 42
-0.070693
  0
VERTEX
  8
0
 10
794.999764
 20
2202.561439
 42
-0.025630
  0
VERTEX
  8
0
 10
794.882141
 20
2200.270948
 42
-0.005014
  0
VERTEX
  8
0
 10
794.418257
 20
2196.168048
 42
-0.005311
  0
VERTEX
  8
0
 10
793.778138
 20
2191.392037
 42
-0.004898
  0
VERTEX
  8
0
 10
793.020497
 20
2186.500000
 42
0.009693
  0
VERTEX
  8
0
 10
791.634600
 20
2176.946510
 42
0.026407
  0
VERTEX
  8
0
 10
791.144051
 20
2170.133225
 42
0.032854
  0
VERTEX
  8
0
 10
791.420316
 20
2164.210479
 42
0.024134
  0
VERTEX
  8
0
 10
792.471494
 20
2157.719605
 42
0.050951
  0
VERTEX
  8
0
 10
795.358739
 20
2148.725575
 42
0.064243
  0
VERTEX
  8
0
 10
799.855270
 20
2141.236986
 42
0.063426
  0
VERTEX
  8
0
 10
806.157114
 20
2135.064206
 42
0.047987
  0
VERTEX
  8
0
 10
814.407928
 20
2129.977522
 42
0.060449
  0
VERTEX
  8
0
 10
825.739327
 20
2126.022448
 42
0.043502
  0
VERTEX
  8
0
 10
839.041257
 20
2124.308868
 42
0.035110
  0
VERTEX
  8
0
 10
855.094695
 20
2124.774944
 42
0.018412
  0
VERTEX
  8
0
 10
874.899525
 20
2127.485862
 42
-0.015157
  0
VERTEX
  8
0
 10
893.456322
 20
2130.149095
 42
-0.172118
  0
VERTEX
  8
0
 10
900.564704
 20
2128.494733
 42
-0.216932
  0
VERTEX
  8
0
 10
904.175806
 20
2122.910118
 42
-0.025590
  0
VERTEX
  8
0
 10
905.623297
 20
2107.811970
 42
-0.015574
  0
VERTEX
  8
0
 10
905.784782
 20
2095.640145
 42
-0.017713
  0
VERTEX
  8
0
 10
905.163540
 20
2083.995903
 42
-0.017588
  0
VERTEX
  8
0
 10
903.713542
 20
2072.352627
 42
-0.014940
  0
VERTEX
  8
0
 10
901.386305
 20
2060.182770
 42
-0.035579
  0
VERTEX
  8
0
 10
892.582560
 20
2030.675863
 42
-0.031443
  0
VERTEX
  8
0
 10
879.380879
 20
2001.424192
 42
-0.032865
  0
VERTEX
  8
0
 10
863.828643
 20
1976.200555
 42
-0.067424
  0
VERTEX
  8
0
 10
847.983642
 20
1959.289587
 42
-0.043325
  0
VERTEX
  8
0
 10
838.045885
 20
1952.538975
 42
-0.026039
  0
VERTEX
  8
0
 10
825.248610
 20
1946.229965
 42
-0.024495
  0
VERTEX
  8
0
 10
810.767578
 20
1940.829115
 42
-0.023798
  0
VERTEX
  8
0
 10
795.688407
 20
1936.811046
 42
-0.033996
  0
VERTEX
  8
0
 10
783.944464
 20
1935.097791
 42
-0.017216
  0
VERTEX
  8
0
 10
769.005211
 20
1934.462954
 42
-0.017172
  0
VERTEX
  8
0
 10
754.219968
 20
1934.851890
 42
-0.038036
  0
VERTEX
  8
0
 10
743.052578
 20
1936.387773
 42
-0.033307
  0
VERTEX
  8
0
 10
723.267968
 20
1942.061912
 42
-0.038750
  0
VERTEX
  8
0
 10
705.430810
 20
1950.099259
 42
-0.038680
  0
VERTEX
  8
0
 10
689.020961
 20
1960.806731
 42
-0.032977
  0
VERTEX
  8
0
 10
673.500000
 20
1974.457745
 42
-0.034928
  0
VERTEX
  8
0
 10
657.601583
 20
1992.818302
 42
-0.036913
  0
VERTEX
  8
0
 10
644.735127
 20
2012.890372
 42
-0.037842
  0
VERTEX
  8
0
 10
635.231640
 20
2034.137680
 42
-0.041105
  0
VERTEX
  8
0
 10
629.350761
 20
2056.000000
 42
-0.030312
  0
VERTEX
  8
0
 10
627.964585
 20
2067.495369
 42
-0.017404
  0
VERTEX
  8
0
 10
627.621151
 20
2081.455423
 42
-0.017418
  0
VERTEX
  8
0
 10
628.247181
 20
2095.344966
 42
-0.031533
  0
VERTEX
  8
0
 10
629.867373
 20
2106.604058
 42
-0.040035
  0
VERTEX
  8
0
 10
636.785671
 20
2130.131465
 42
-0.044104
  0
VERTEX
  8
0
 10
647.200792
 20
2151.464785
 42
-0.045529
  0
VERTEX
  8
0
 10
660.842651
 20
2170.045126
 42
-0.048664
  0
VERTEX
  8
0
 10
677.347342
 20
2185.397135
 42
-0.031416
  0
VERTEX
  8
0
 10
690.039596
 20
2193.880021
 42
-0.033976
  0
VERTEX
  8
0
 10
703.375170
 20
2200.461067
 42
-0.029760
  0
VERTEX
  8
0
 10
718.933329
 20
2205.807528
 42
-0.016367
  0
VERTEX
  8
0
 10
738.500000
 20
2210.570262
 42
-0.013217
  0
VERTEX
  8
0
 10
744.985364
 20
2211.747748
 42
-0.018086
  0
VERTEX
  8
0
 10
750.879202
 20
2212.440517
 42
-0.014324
  0
VERTEX
  8
0
 10
757.760107
 20
2212.799965
 42
-0.004988
  0
VERTEX
  8
0
 10
767.684900
 20
2212.934645
 42
-0.004829
  0
VERTEX
  8
0
 10
774.830580
 20
2212.891308
 42
-0.006635
  0
VERTEX
  8
0
 10
781.253276
 20
2212.705047
 42
-0.004431
  0
VERTEX
  8
0
 10
786.620981
 20
2212.430388
 42
-0.075979
  0
SEQEND
  0
ENDSEC
  0
EOF
